SplineFontDB: 1.0
FontName: FreeMonoOblique
FullName: Nimbus Mono L Regular Oblique
FamilyName: Nimbus
Weight: Regular
Copyright: Copyright (URW)++,Copyright 1999 by (URW)++ Design & Development; Cyrillic glyphs added by Valek Filippov (C) 2001
Version: 1.06
ItalicAngle: -12
UnderlinePosition: -100
UnderlineWidth: 50
Ascent: 800
Descent: 200
FSType: 0
Encoding: unicode
DisplaySize: -36
AntiAlias: 1
BeginPrivate: 8
UniqueID 7 5020947
BlueValues 31 [-20 0 417 437 563 583 603 623]
BlueScale 8 0.039625
StdHW 4 [41]
StdVW 4 [43]
StemSnapH 4 [41]
StemSnapV 2 []
ForceBold 5 false
EndPrivate
BeginChars: 65536 1016
StartChar: exclam
Encoding: 33 33
Width: 600
Flags: MW
HStem: -15 100
VStem: 246 122<29 40.5>
Fore
458 563 m 2
 370 237 l 1
 365 217 357 209 343 209 c 0
 335 209 328 216 328 224 c 0
 328 228 328 231 329 237 c 2
 380 563 l 2
 386 601 402 618 431 618 c 0
 449 618 463 606 463 589 c 0
 463 584 461 575 458 563 c 2
311 85 m 2
 323 85 l 2
 350 85 368 69 368 45 c 0
 368 13 337 -15 302 -15 c 2
 290 -15 l 2
 264 -15 246 1 246 24 c 0
 246 57 277 85 311 85 c 2
EndSplineSet
EndChar
StartChar: quotedbl
Encoding: 34 34
Width: 600
Flags: MW
HStem: 315 289<274 286 454 465.5>
Fore
274 604 m 1
 402 604 l 1
 315 351 l 1
 306 326 295 315 277 315 c 0
 263 315 254 325 254 341 c 2
 254 351 l 1
 274 604 l 1
454 604 m 1
 582 604 l 1
 495 351 l 1
 486 326 474 315 457 315 c 0
 443 315 434 325 434 341 c 2
 434 351 l 1
 454 604 l 1
EndSplineSet
EndChar
StartChar: numbersign
Encoding: 35 35
Width: 600
Flags: MW
HStem: 189 41<169 247 299 378 430 501> 356 41<225 294 346 425 477 557>
VStem: 192 396
Fore
466 356 m 1
 430 230 l 1
 510 230 l 2
 527 230 534 225 534 214 c 0
 534 199 521 189 501 189 c 2
 419 189 l 1
 355 -36 l 2
 350 -54 342 -62 329 -62 c 0
 320 -62 313 -55 313 -46 c 0
 313 -43 314 -39 315 -33 c 1
 378 189 l 1
 287 189 l 1
 224 -36 l 2
 219 -54 210 -62 197 -62 c 0
 188 -62 181 -55 181 -46 c 0
 181 -43 181 -43 184 -33 c 2
 247 189 l 1
 160 189 l 2
 144 189 137 194 137 205 c 0
 137 221 149 230 169 230 c 2
 258 230 l 1
 294 356 l 1
 216 356 l 2
 199 356 192 361 192 372 c 0
 192 388 204 397 225 397 c 2
 305 397 l 1
 369 622 l 2
 374 639 382 647 395 647 c 0
 404 647 411 640 411 632 c 0
 411 629 410 623 409 619 c 2
 346 397 l 1
 437 397 l 1
 500 622 l 2
 505 639 514 647 526 647 c 0
 536 647 543 640 543 632 c 0
 543 629 543 629 540 619 c 2
 477 397 l 1
 566 397 l 2
 583 397 589 392 589 381 c 0
 589 366 577 356 557 356 c 2
 466 356 l 1
425 356 m 1
 334 356 l 1
 299 230 l 1
 390 230 l 1
 425 356 l 1
EndSplineSet
EndChar
StartChar: dollar
Encoding: 36 36
Width: 600
Flags: W
HStem: 448 115 539 116
VStem: 225 42<409.5 448> 492 41
Fore
403 576 m 1
 414 628 l 2
 418 646 426 655 440 655 c 0
 449 655 456 648 456 639 c 1
 455 628 l 1
 444 576 l 1
 487 572 508 562 539 534 c 1
 544 553 553 563 566 563 c 0
 575 563 582 556 582 548 c 0
 582 545 582 543 580 536 c 1
 567 476 l 1
 564 458 554 448 542 448 c 0
 535 448 530 452 525 461 c 1
 527 485 l 1
 527 490 507 511 493 520 c 0
 475 530 441 539 416 539 c 0
 342 539 267 478 267 418 c 0
 267 401 277 381 291 371 c 0
 308 360 327 354 385 342 c 0
 454 329 480 320 502 301 c 0
 521 286 534 257 534 232 c 0
 534 140 450 66 333 54 c 1
 307 -65 l 2
 303 -83 295 -92 281 -92 c 0
 272 -92 265 -85 265 -76 c 1
 266 -65 l 1
 292 54 l 1
 246 56 197 79 177 108 c 1
 173 92 l 1
 169 74 161 65 147 65 c 0
 139 65 131 72 131 80 c 0
 131 82 132 88 133 92 c 2
 149 171 l 1
 153 188 163 199 176 199 c 0
 181 199 187 195 192 187 c 1
 189 155 l 1
 189 151 216 123 229 114 c 0
 247 101 287 92 320 92 c 0
 412 92 492 151 492 220 c 0
 492 239 481 260 466 271 c 0
 448 285 433 289 366 303 c 0
 304 315 277 325 256 341 c 0
 238 356 225 383 225 409 c 0
 225 489 305 565 403 576 c 1
EndSplineSet
EndChar
StartChar: percent
Encoding: 37 37
Width: 600
Flags: MW
HStem: -12 38<346.5 393.5> 198 38<376.5 423.5> 363 38<303 349.5> 573 38<333 380>
VStem: 216 39<449.5 495.5> 260 39<74.5 120.5> 428 39<478 525> 472 39<103.5 150.5>
Fore
412 236 m 0
 470 236 511 196 511 137 c 0
 511 61 437 -12 358 -12 c 0
 302 -12 260 30 260 86 c 0
 260 163 334 236 412 236 c 0
403 198 m 0
 350 198 299 147 299 94 c 0
 299 55 327 26 366 26 c 0
 421 26 472 76 472 131 c 0
 472 170 444 198 403 198 c 0
367 611 m 0
 426 611 467 570 467 512 c 0
 467 436 393 363 314 363 c 0
 257 363 216 405 216 462 c 0
 216 538 290 611 367 611 c 0
360 573 m 0
 306 573 255 522 255 469 c 0
 255 430 284 401 322 401 c 0
 377 401 428 451 428 505 c 0
 428 545 400 573 360 573 c 0
569 344 m 2
 163 222 l 2
 159 220 154 220 151 220 c 0
 143 220 137 227 137 235 c 0
 137 245 145 253 159 258 c 2
 565 380 l 2
 570 381 573 382 578 382 c 0
 585 382 591 375 591 367 c 0
 591 356 584 348 569 344 c 2
EndSplineSet
EndChar
StartChar: ampersand
Encoding: 38 38
Width: 600
Flags: W
HStem: -16 41<232 270> 0 41<422 451> 208 41<483 495 483 483> 478 41<366 402.5>
VStem: 132 42<90.5 148> 249 41<372.5 405>
Fore
393 0 m 1
 372 48 l 1
 334 5 293 -16 247 -16 c 0
 181 -16 132 37 132 108 c 0
 132 189 192 263 277 287 c 1
 253 348 249 359 249 379 c 0
 249 449 324 519 399 519 c 0
 422 519 442 513 461 499 c 1
 472 505 l 2
 479 508 486 510 490 510 c 0
 498 510 505 502 505 494 c 0
 505 483 499 476 483 468 c 2
 448 452 l 1
 431 470 414 478 391 478 c 0
 341 478 290 429 290 381 c 0
 290 364 297 339 314 298 c 2
 388 121 l 1
 417 159 440 200 461 249 c 1
 504 249 l 2
 521 249 527 245 527 233 c 0
 527 217 515 208 495 208 c 2
 483 208 l 1
 457 154 429 110 403 82 c 1
 422 41 l 1
 460 41 l 2
 476 41 483 37 483 25 c 0
 483 10 470 0 451 0 c 2
 393 0 l 1
357 86 m 1
 287 251 l 1
 222 237 174 180 174 116 c 0
 174 65 209 25 255 25 c 0
 290 25 326 47 357 86 c 1
EndSplineSet
EndChar
StartChar: quotesingle
Encoding: 39 39
Width: 600
Flags: MW
HStem: 315 289<364 375.5>
Fore
364 604 m 1
 492 604 l 1
 405 351 l 1
 396 326 384 315 367 315 c 0
 353 315 344 325 344 341 c 2
 344 351 l 1
 364 604 l 1
EndSplineSet
EndChar
StartChar: parenleft
Encoding: 40 40
Width: 600
Flags: MW
VStem: 335 59<113.5 197>
Fore
566 604 m 0
 576 604 583 597 583 588 c 0
 583 581 583 581 572 567 c 0
 449 406 394 270 394 124 c 0
 394 56 406 -9 435 -93 c 0
 436 -96 437 -99 437 -101 c 0
 437 -112 424 -124 411 -124 c 0
 406 -124 401 -121 398 -115 c 0
 383 -90 370 -54 354 4 c 0
 340 54 335 89 335 138 c 0
 335 268 381 383 493 530 c 0
 536 586 553 604 566 604 c 0
EndSplineSet
EndChar
StartChar: parenright
Encoding: 41 41
Width: 600
Flags: MW
VStem: 313 59<282 382>
Fore
296 604 m 0
 301 604 306 601 309 595 c 0
 345 533 372 422 372 342 c 0
 372 212 326 97 214 -50 c 0
 172 -106 154 -124 141 -124 c 0
 131 -124 124 -117 124 -108 c 0
 124 -103 125 -99 130 -93 c 0
 256 69 313 208 313 356 c 0
 313 424 301 489 272 573 c 0
 271 576 270 579 270 581 c 0
 270 592 283 604 296 604 c 0
EndSplineSet
EndChar
StartChar: asterisk
Encoding: 42 42
Width: 600
Flags: W
Fore
372 438 m 1
 402 577 l 2
 406 595 414 604 428 604 c 0
 437 604 444 597 444 589 c 1
 443 577 l 1
 413 438 l 1
 556 481 l 2
 561 483 568 484 571 484 c 0
 579 484 586 476 586 468 c 0
 586 455 578 448 560 442 c 2
 417 400 l 1
 475 288 l 2
 477 284 479 276 479 273 c 0
 479 262 466 250 454 250 c 0
 446 250 443 253 437 264 c 2
 379 376 l 1
 274 264 l 2
 264 254 258 250 251 250 c 0
 241 250 234 257 234 266 c 0
 234 274 236 276 246 288 c 1
 351 400 l 1
 227 442 l 1
 224 443 l 2
 217 444 211 451 211 458 c 0
 211 471 223 483 236 483 c 0
 240 483 241 483 249 480 c 2
 372 438 l 1
EndSplineSet
EndChar
StartChar: plus
Encoding: 43 43
Width: 600
Flags: MW
HStem: 261 41<162 334 384 556>
VStem: 131 457<278.5 284.5>
Fore
375 261 m 1
 332 59 l 2
 328 41 320 32 306 32 c 0
 297 32 290 39 290 47 c 1
 291 59 l 1
 334 261 l 1
 154 261 l 2
 138 261 131 266 131 277 c 0
 131 292 143 302 162 302 c 2
 343 302 l 1
 386 503 l 1
 389 521 398 530 412 530 c 0
 421 530 428 523 428 514 c 1
 427 503 l 1
 384 302 l 1
 564 302 l 2
 581 302 588 298 588 286 c 0
 588 271 575 261 556 261 c 2
 375 261 l 1
EndSplineSet
EndChar
StartChar: comma
Encoding: 44 44
Width: 600
Flags: W
Fore
238 145 m 1
 371 145 l 1
 170 -120 l 2
 155 -139 147 -145 133 -145 c 0
 120 -145 110 -135 110 -122 c 0
 110 -117 112 -111 115 -105 c 2
 238 145 l 1
EndSplineSet
EndChar
StartChar: hyphen
Encoding: 45 45
Width: 600
Flags: MW
HStem: 258 41<163 556>
VStem: 131 456
Fore
556 258 m 2
 154 258 l 2
 138 258 131 263 131 274 c 0
 131 290 143 299 163 299 c 2
 565 299 l 2
 581 299 588 294 588 283 c 0
 588 268 576 258 556 258 c 2
EndSplineSet
EndChar
StartChar: period
Encoding: 46 46
Width: 600
Flags: MW
HStem: -15 131
VStem: 235 151<43 58>
Fore
319 116 m 2
 330 116 l 2
 363 116 386 95 386 64 c 0
 386 22 346 -15 302 -15 c 2
 291 -15 l 2
 258 -15 235 6 235 37 c 0
 235 79 275 116 319 116 c 2
EndSplineSet
EndChar
StartChar: slash
Encoding: 47 47
Width: 600
Flags: W
Fore
617 633 m 1
 141 -63 l 2
 131 -77 125 -81 115 -81 c 0
 107 -81 99 -74 99 -65 c 0
 99 -60 101 -55 107 -46 c 2
 583 650 l 2
 592 664 599 668 608 668 c 0
 618 668 625 661 625 652 c 0
 625 647 623 643 617 633 c 1
EndSplineSet
EndChar
StartChar: zero
Encoding: 48 48
Width: 600
Flags: MW
HStem: -15 41<270 325.5> 577 41<401 457>
VStem: 156 44<127.5 176.5> 527 44<426.5 475.5>
Fore
561 351 m 1
 540 251 l 1
 506 94 408 -15 298 -15 c 0
 208 -15 156 50 156 162 c 0
 156 191 159 221 166 251 c 1
 187 351 l 2
 220 509 320 618 430 618 c 0
 519 618 571 553 571 441 c 0
 571 412 568 382 561 351 c 1
227 346 m 1
 208 257 l 2
 203 233 200 206 200 178 c 0
 200 77 235 26 305 26 c 0
 346 26 385 44 414 79 c 0
 453 124 486 193 500 257 c 2
 519 346 l 2
 524 370 527 398 527 425 c 0
 527 526 492 577 422 577 c 0
 380 577 342 559 313 524 c 0
 273 478 240 410 227 346 c 1
EndSplineSet
EndChar
StartChar: one
Encoding: 49 49
Width: 600
Flags: MW
HStem: 0 41<149 289 330 461>
VStem: 117 374
Fore
451 612 m 1
 330 41 l 1
 469 41 l 2
 486 41 492 37 492 25 c 0
 492 10 480 0 461 0 c 2
 141 0 l 2
 124 0 117 5 117 16 c 0
 117 32 129 41 149 41 c 2
 289 41 l 1
 398 557 l 1
 258 515 l 2
 247 512 246 512 243 512 c 0
 235 512 228 520 228 528 c 0
 228 541 236 548 254 554 c 2
 451 612 l 1
EndSplineSet
EndChar
StartChar: two
Encoding: 50 50
Width: 600
Flags: W
HStem: 0 41<132 446> 0 104<473 478> 0 41 577 41<392 446>
VStem: 530 42<453 500>
Fore
132 41 m 1
 446 41 l 1
 453 77 l 1
 457 95 466 104 480 104 c 0
 489 104 496 97 496 89 c 0
 496 86 496 85 494 77 c 1
 478 0 l 1
 84 0 l 1
 97 60 l 1
 380 282 l 1
 507 385 530 414 530 471 c 0
 530 529 478 577 414 577 c 0
 344 577 273 533 244 472 c 0
 237 458 230 452 219 452 c 0
 211 452 203 459 203 466 c 0
 203 481 225 516 250 542 c 0
 299 591 360 618 424 618 c 0
 505 618 572 555 572 479 c 0
 572 427 552 388 496 334 c 0
 450 290 239 122 133 44 c 1
 132 41 l 1
EndSplineSet
EndChar
StartChar: three
Encoding: 51 51
Width: 600
Flags: W
HStem: -15 41<268.5 348.5> 312 40 577 41<403.5 457.5>
VStem: 496 42<150 225.5> 537 42<457.5 512>
Fore
444 328 m 1
 505 301 538 254 538 197 c 0
 538 89 415 -15 287 -15 c 0
 238 -15 194 -2 148 26 c 0
 122 41 110 53 110 64 c 0
 110 76 122 88 133 88 c 0
 139 88 143 86 149 81 c 0
 190 44 240 26 297 26 c 0
 400 26 496 107 496 193 c 0
 496 260 428 313 345 312 c 0
 329 312 322 317 322 328 c 0
 322 335 326 342 332 347 c 0
 339 353 339 353 380 353 c 0
 466 353 537 413 537 485 c 0
 537 539 491 577 424 577 c 0
 367 577 315 558 277 523 c 0
 264 511 261 509 253 509 c 0
 244 509 237 515 237 525 c 0
 237 534 246 545 267 561 c 0
 313 597 374 618 433 618 c 0
 520 618 579 567 579 493 c 0
 579 422 528 361 444 328 c 1
EndSplineSet
EndChar
StartChar: four
Encoding: 52 52
Width: 600
Flags: MW
HStem: 0 41<309 385 425 451> 169 41<189 412 461 487> 563 41<472 495 472 472>
VStem: 277 206<17.5 24>
Fore
412 169 m 1
 141 169 l 1
 151 216 l 1
 461 604 l 1
 545 604 l 1
 461 210 l 1
 495 210 l 2
 512 210 518 206 518 194 c 0
 518 178 506 169 487 169 c 2
 453 169 l 1
 425 41 l 1
 459 41 l 2
 476 41 483 36 483 25 c 0
 483 10 470 0 451 0 c 2
 300 0 l 2
 284 0 277 5 277 16 c 0
 277 32 289 41 309 41 c 2
 385 41 l 1
 412 169 l 1
420 210 m 1
 495 563 l 1
 472 563 l 1
 189 210 l 1
 420 210 l 1
EndSplineSet
EndChar
StartChar: five
Encoding: 53 53
Width: 600
Flags: MW
HStem: -15 41<270.5 333> 354 41<384 427> 563 41<310 310 310 552>
VStem: 506 42<222 276.5>
Fore
310 563 m 1
 268 365 l 1
 324 386 363 395 405 395 c 0
 491 395 548 338 548 250 c 0
 548 108 429 -15 292 -15 c 0
 245 -15 202 -2 165 23 c 0
 133 45 113 65 113 78 c 0
 113 90 125 102 138 102 c 0
 143 102 147 100 153 93 c 0
 192 49 242 26 299 26 c 0
 367 26 427 59 466 118 c 0
 491 157 506 202 506 242 c 0
 506 311 462 354 392 354 c 0
 352 354 305 342 259 321 c 0
 246 315 241 313 235 313 c 0
 227 313 221 319 220 328 c 0
 220 330 220 333 221 335 c 1
 278 604 l 1
 560 604 l 2
 577 604 584 599 584 588 c 0
 584 572 572 563 552 563 c 2
 310 563 l 1
EndSplineSet
EndChar
StartChar: six
Encoding: 54 54
Width: 600
Flags: MW
HStem: -15 41<313 386> 323 41<392.5 440> 577 41<519 555.5>
VStem: 510 42<164 243.5>
Fore
228 242 m 1
 287 324 349 364 420 364 c 0
 497 364 552 304 552 219 c 0
 552 99 445 -15 333 -15 c 0
 242 -15 184 60 184 179 c 0
 184 308 235 434 319 513 c 0
 390 580 478 618 560 618 c 0
 598 618 631 604 631 587 c 0
 631 575 620 563 608 563 c 0
 603 563 599 564 591 569 c 0
 582 574 565 577 546 577 c 0
 458 577 349 510 290 420 c 0
 257 369 239 318 228 242 c 1
222 188 m 1
 224 148 225 145 230 123 c 0
 246 58 283 26 343 26 c 0
 429 26 510 116 510 212 c 0
 510 275 468 323 412 323 c 0
 373 323 329 303 289 266 c 0
 271 250 256 232 222 188 c 1
EndSplineSet
EndChar
StartChar: seven
Encoding: 55 55
Width: 600
Flags: MW
HStem: 563 41<265 557 265 265>
Fore
553 545 m 1
 557 563 l 1
 265 563 l 1
 258 528 l 2
 254 509 245 500 231 500 c 0
 223 500 215 507 215 515 c 0
 215 518 216 523 217 528 c 2
 233 604 l 1
 606 604 l 1
 592 539 l 1
 319 20 l 2
 311 4 305 -1 294 -1 c 0
 285 -1 278 6 278 14 c 0
 278 19 280 24 284 32 c 2
 553 545 l 1
EndSplineSet
EndChar
StartChar: eight
Encoding: 56 56
Width: 600
Flags: MW
HStem: -15 41<270 350.5> 293 40<337.5 397.5> 577 41<380 455.5>
VStem: 143 42<103 167> 216 41<401.5 466.5> 482 42<143.5 217> 534 42<459.5 504>
Fore
441 313 m 1
 496 285 524 244 524 192 c 0
 524 87 412 -15 296 -15 c 0
 207 -15 143 45 143 128 c 0
 143 206 197 274 291 313 c 1
 237 344 216 376 216 424 c 0
 216 522 323 618 432 618 c 0
 515 618 576 561 576 483 c 0
 576 436 552 388 510 353 c 0
 491 338 475 328 441 313 c 1
422 577 m 0
 338 577 257 504 257 429 c 0
 257 374 305 333 370 333 c 0
 457 333 534 399 534 473 c 0
 534 535 489 577 422 577 c 0
361 293 m 0
 268 293 185 219 185 135 c 0
 185 71 235 26 305 26 c 0
 396 26 482 103 482 184 c 0
 482 250 434 293 361 293 c 0
EndSplineSet
EndChar
StartChar: nine
Encoding: 57 57
Width: 600
Flags: MW
HStem: -15 41<217.5 254> 239 41<333 380.5> 577 41<387 460>
VStem: 221 42<359.5 439>
Fore
545 361 m 1
 487 279 424 239 353 239 c 0
 276 239 221 299 221 384 c 0
 221 504 328 618 440 618 c 0
 531 618 589 543 589 424 c 0
 589 295 538 169 454 90 c 0
 383 23 295 -15 213 -15 c 0
 175 -15 142 -1 142 16 c 0
 142 28 153 40 165 40 c 0
 170 40 174 39 182 34 c 0
 191 29 208 26 227 26 c 0
 315 26 424 93 483 183 c 0
 510 225 532 282 541 334 c 0
 542 340 542 340 545 361 c 1
551 415 m 1
 549 454 548 459 543 480 c 0
 527 545 490 577 430 577 c 0
 344 577 263 487 263 391 c 0
 263 328 305 280 361 280 c 0
 400 280 444 300 484 337 c 0
 502 353 517 371 551 415 c 1
EndSplineSet
EndChar
StartChar: colon
Encoding: 58 58
Width: 600
Flags: W
HStem: -15 131 285 132
VStem: 235 151<43.5 58> 299 151<344 358>
Fore
319 116 m 2
 330 116 l 2
 363 116 386 95 386 65 c 0
 386 22 346 -15 302 -15 c 2
 291 -15 l 2
 258 -15 235 6 235 37 c 0
 235 79 275 116 319 116 c 2
383 417 m 2
 394 417 l 2
 427 417 450 396 450 365 c 0
 450 323 410 285 366 285 c 2
 355 285 l 2
 322 285 299 306 299 337 c 0
 299 379 339 417 383 417 c 2
EndSplineSet
EndChar
StartChar: semicolon
Encoding: 59 59
Width: 600
Flags: MW
HStem: 397 20<359 370 370 386.5>
VStem: 275 151<344 358>
Fore
242 145 m 1
 375 145 l 1
 174 -120 l 2
 159 -139 151 -145 138 -145 c 0
 124 -145 114 -135 114 -122 c 0
 114 -117 116 -111 119 -105 c 2
 242 145 l 1
359 417 m 2
 370 417 l 2
 403 417 426 396 426 365 c 0
 426 323 386 285 342 285 c 2
 331 285 l 2
 298 285 275 306 275 337 c 0
 275 379 315 417 359 417 c 2
EndSplineSet
EndChar
StartChar: less
Encoding: 60 60
Width: 600
Flags: W
Fore
131 281 m 1
 598 513 l 2
 604 516 609 518 611 518 c 0
 618 518 623 514 625 508 c 2
 626 505 l 2
 627 503 627 502 627 499 c 0
 627 491 621 484 610 478 c 2
 213 281 l 1
 526 84 l 2
 533 79 535 76 535 70 c 0
 535 66 533 61 530 57 c 2
 528 54 l 2
 524 48 516 44 511 44 c 0
 508 44 503 46 498 49 c 2
 131 281 l 1
EndSplineSet
EndChar
StartChar: equal
Encoding: 61 61
Width: 600
Flags: MW
HStem: 190 41<127 562> 334 41<158 593>
Fore
593 334 m 2
 149 334 l 2
 133 334 126 339 126 350 c 0
 126 366 138 375 158 375 c 2
 602 375 l 2
 618 375 625 370 625 359 c 0
 625 344 613 334 593 334 c 2
562 190 m 2
 118 190 l 2
 102 190 95 195 95 206 c 0
 95 222 107 231 127 231 c 2
 571 231 l 2
 587 231 594 226 594 215 c 0
 594 200 582 190 562 190 c 2
EndSplineSet
EndChar
StartChar: greater
Encoding: 62 62
Width: 600
Flags: W
Fore
588 281 m 1
 121 49 l 2
 115 46 110 44 108 44 c 0
 101 44 96 48 94 54 c 2
 93 57 l 2
 92 59 92 61 92 63 c 0
 92 71 98 78 109 84 c 2
 506 281 l 1
 193 478 l 2
 186 483 184 486 184 492 c 0
 184 496 186 502 189 505 c 2
 191 508 l 2
 196 514 203 518 208 518 c 0
 211 518 216 516 221 513 c 2
 588 281 l 1
EndSplineSet
EndChar
StartChar: question
Encoding: 63 63
Width: 600
Flags: MW
HStem: -15 100<305 312> 536 41<407 455.5>
VStem: 237 143<28.5 41> 539 42<430.5 472>
Fore
375 247 m 1
 366 206 l 1
 363 188 354 179 340 179 c 0
 331 179 324 186 324 194 c 1
 325 206 l 1
 340 274 l 1
 482 328 539 377 539 444 c 0
 539 500 492 536 419 536 c 0
 374 536 340 528 282 502 c 1
 274 461 l 1
 270 443 261 434 248 434 c 0
 238 434 231 441 231 450 c 0
 231 452 232 456 233 461 c 2
 247 529 l 1
 259 533 264 535 279 541 c 0
 348 569 381 577 433 577 c 0
 525 577 581 531 581 455 c 0
 581 406 556 356 515 323 c 0
 481 297 444 277 375 247 c 1
305 85 m 2
 333 85 l 2
 363 85 380 70 380 45 c 0
 380 12 349 -15 312 -15 c 2
 284 -15 l 2
 255 -15 237 0 237 24 c 0
 237 58 268 85 305 85 c 2
EndSplineSet
EndChar
StartChar: at
Encoding: 64 64
Width: 600
Flags: MW
HStem: -62 41<282.5 322.5> 147 41<395.5 413.5> 376 39 583 41<379.5 454>
VStem: 139 42<106.5 133.5> 297 42<234.5 280.5> 519 42<493 518.5>
Fore
449 145 m 1
 450 150 l 1
 430 148 419 147 408 147 c 0
 343 147 297 187 297 245 c 0
 297 316 356 384 438 408 c 0
 461 414 477 416 506 416 c 1
 516 463 l 2
 518 472 519 480 519 490 c 0
 519 547 483 583 425 583 c 0
 334 583 250 490 222 358 c 2
 188 198 l 1
 184 176 181 152 181 131 c 0
 181 82 195 35 218 9 c 0
 236 -11 264 -21 301 -21 c 0
 344 -21 388 -9 412 9 c 0
 425 19 427 20 434 20 c 0
 443 20 450 13 450 5 c 0
 450 -27 364 -62 286 -62 c 0
 238 -62 202 -46 178 -13 c 0
 154 20 139 70 139 121 c 0
 139 146 142 172 147 198 c 1
 182 361 l 1
 214 513 320 624 433 624 c 0
 510 624 561 574 561 499 c 0
 561 487 560 475 557 463 c 1
 498 186 l 1
 509 184 514 180 514 170 c 0
 514 154 502 145 482 145 c 2
 449 145 l 1
459 192 m 1
 498 376 l 1
 410 376 339 322 339 255 c 0
 339 214 371 188 420 188 c 0
 432 188 446 189 459 192 c 1
EndSplineSet
EndChar
StartChar: A
Encoding: 65 65
Width: 600
Flags: MW
HStem: 0 41<45 76 117 187 417 493 536 564> 188 41<227 462> 522 41<246 357 397 397 397 412>
VStem: 13 206<17.5 24.5> 385 210
Fore
468 188 m 1
 203 188 l 1
 117 41 l 1
 196 41 l 2
 213 41 219 37 219 25 c 0
 219 10 206 0 187 0 c 2
 36 0 l 2
 20 0 13 5 13 17 c 0
 13 32 25 41 45 41 c 2
 76 41 l 1
 357 522 l 1
 237 522 l 2
 221 522 214 527 214 538 c 0
 214 554 226 563 246 563 c 2
 449 563 l 1
 536 41 l 1
 573 41 l 2
 590 41 596 37 596 25 c 0
 596 10 584 0 564 0 c 2
 408 0 l 2
 392 0 385 5 385 16 c 0
 385 32 397 41 417 41 c 2
 493 41 l 1
 468 188 l 1
462 229 m 1
 412 522 l 1
 397 522 l 1
 227 229 l 1
 462 229 l 1
EndSplineSet
EndChar
StartChar: B
Encoding: 66 66
Width: 600
Flags: W
HStem: 0 41<79 133 174 377> 272 41<232 372> 522 41<190 235 276 276 276 440>
VStem: 535 42<139.5 188> 549 42<414 447>
Fore
133 41 m 1
 235 522 l 1
 181 522 l 2
 165 522 158 527 158 539 c 0
 158 554 170 563 190 563 c 2
 448 563 l 2
 533 563 591 515 591 445 c 0
 591 383 554 335 477 298 c 1
 544 273 577 234 577 181 c 0
 577 88 479 0 377 0 c 2
 70 0 l 2
 54 0 47 5 47 17 c 0
 47 32 59 41 79 41 c 2
 133 41 l 1
232 313 m 1
 379 313 l 2
 474 313 549 368 549 437 c 0
 549 457 538 480 521 496 c 0
 501 514 476 522 440 522 c 2
 276 522 l 1
 232 313 l 1
174 41 m 1
 382 41 l 2
 463 41 535 104 535 175 c 0
 535 201 518 229 493 246 c 0
 465 265 433 272 372 272 c 2
 223 272 l 1
 174 41 l 1
EndSplineSet
EndChar
StartChar: C
Encoding: 67 67
Width: 600
Flags: MW
HStem: -16 41<277.5 354> 536 40<394.5 441.5>
VStem: 110 42<152 204>
Fore
586 507 m 1
 592 536 l 2
 596 554 605 563 618 563 c 0
 628 563 635 557 635 548 c 0
 635 546 634 541 633 536 c 2
 609 424 l 1
 606 406 596 396 583 396 c 0
 577 396 572 399 566 408 c 1
 570 446 l 1
 570 449 546 486 538 494 c 0
 515 518 464 536 419 536 c 0
 309 536 197 438 172 319 c 2
 157 248 l 2
 154 233 152 217 152 203 c 0
 152 101 227 25 328 25 c 0
 397 25 454 51 522 115 c 0
 530 123 534 125 542 125 c 0
 552 125 558 119 558 111 c 0
 558 100 551 91 524 67 c 0
 461 14 389 -16 319 -16 c 0
 201 -16 110 76 110 196 c 0
 110 212 112 227 115 242 c 2
 132 325 l 1
 145 386 188 455 242 502 c 0
 296 550 361 576 428 576 c 0
 494 576 549 552 586 507 c 1
EndSplineSet
EndChar
StartChar: D
Encoding: 68 68
Width: 600
Flags: MW
HStem: 0 41<79 113 154 290> 522 41<190 215 256 256 256 399>
VStem: 551 41<358 378>
Fore
113 41 m 1
 215 522 l 1
 181 522 l 2
 165 522 158 527 158 538 c 0
 158 554 170 563 190 563 c 2
 410 563 l 2
 519 563 592 484 592 368 c 0
 592 348 590 329 586 310 c 2
 574 254 l 2
 544 112 419 0 290 0 c 2
 70 0 l 2
 54 0 47 5 47 16 c 0
 47 32 59 41 79 41 c 2
 113 41 l 1
154 41 m 1
 303 41 l 2
 399 41 508 139 531 245 c 2
 547 318 l 1
 549 332 551 346 551 357 c 0
 551 399 538 440 514 472 c 0
 488 507 453 522 399 522 c 2
 256 522 l 1
 154 41 l 1
EndSplineSet
EndChar
StartChar: E
Encoding: 69 69
Width: 600
Flags: MW
HStem: 0 41<79 133 174 488> 272 41<232 368> 522 41<190 235 276 276 276 569>
Fore
223 272 m 1
 174 41 l 1
 488 41 l 1
 513 160 l 2
 517 178 526 187 540 187 c 0
 549 187 556 180 556 172 c 0
 556 169 555 165 554 160 c 2
 520 0 l 1
 70 0 l 2
 54 0 47 5 47 17 c 0
 47 32 59 41 79 41 c 2
 133 41 l 1
 235 522 l 1
 181 522 l 2
 165 522 158 527 158 539 c 0
 158 554 170 563 190 563 c 2
 619 563 l 1
 589 424 l 1
 586 406 577 397 563 397 c 0
 554 397 547 404 547 412 c 1
 548 424 l 1
 569 522 l 1
 276 522 l 1
 232 313 l 1
 377 313 l 1
 386 358 l 1
 390 376 399 385 412 385 c 0
 422 385 429 378 429 370 c 0
 429 368 428 362 427 358 c 2
 399 227 l 1
 396 209 387 200 373 200 c 0
 364 200 357 207 357 215 c 1
 358 227 l 1
 368 272 l 1
 223 272 l 1
EndSplineSet
EndChar
StartChar: F
Encoding: 70 70
Width: 600
Flags: MW
HStem: 0 41<79 133 174 304> 272 41<232 368> 522 41<190 235 276 276 276 590>
VStem: 47 289<17.5 24>
Fore
223 272 m 1
 174 41 l 1
 312 41 l 2
 329 41 336 36 336 25 c 0
 336 10 323 0 304 0 c 2
 70 0 l 2
 54 0 47 5 47 16 c 0
 47 32 59 41 79 41 c 2
 133 41 l 1
 235 522 l 1
 181 522 l 2
 165 522 158 527 158 538 c 0
 158 554 170 563 190 563 c 2
 640 563 l 1
 610 424 l 1
 607 406 598 397 584 397 c 0
 576 397 568 404 568 412 c 1
 569 424 l 1
 590 522 l 1
 276 522 l 1
 232 313 l 1
 377 313 l 1
 386 358 l 1
 390 376 399 385 412 385 c 0
 422 385 429 379 429 370 c 0
 429 368 428 362 427 358 c 2
 399 227 l 1
 396 209 387 200 373 200 c 0
 364 200 357 207 357 215 c 1
 358 227 l 1
 368 272 l 1
 223 272 l 1
EndSplineSet
EndChar
StartChar: G
Encoding: 71 71
Width: 600
Flags: MW
HStem: -16 41<281.5 361> 209 41<394 524 565 579 565 565> 536 40<370.5 448>
VStem: 108 42<136.5 189.5> 362 250<226.5 233>
Fore
565 209 m 1
 528 36 l 1
 462 2 392 -16 330 -16 c 0
 193 -16 108 59 108 179 c 0
 108 200 110 222 115 244 c 2
 131 318 l 2
 162 463 295 576 436 576 c 0
 502 576 553 558 590 522 c 1
 593 536 l 2
 597 554 606 563 619 563 c 0
 629 563 636 556 636 548 c 0
 636 545 636 544 634 536 c 1
 615 445 l 2
 611 427 601 417 588 417 c 0
 583 417 578 421 572 429 c 1
 575 465 l 1
 576 471 552 499 537 508 c 1
 513 525 468 536 428 536 c 0
 313 536 197 438 172 317 c 1
 156 244 l 1
 152 224 150 206 150 187 c 0
 150 86 222 25 341 25 c 0
 393 25 430 33 492 59 c 1
 524 209 l 1
 385 209 l 2
 369 209 362 214 362 225 c 0
 362 241 374 250 394 250 c 2
 588 250 l 2
 605 250 612 245 612 234 c 0
 612 219 599 209 579 209 c 2
 565 209 l 1
EndSplineSet
EndChar
StartChar: H
Encoding: 72 72
Width: 600
Flags: W
HStem: 0 41<89 135 176 221 392 446 487 524> 272 41<234 495> 522 41<221 237 278 278 278 332 503 548 589 589 589 614>
VStem: 189 174 360 196<17.5 24> 471 174
Fore
495 272 m 1
 225 272 l 1
 176 41 l 1
 230 41 l 2
 247 41 253 37 253 25 c 0
 253 10 240 0 221 0 c 2
 81 0 l 2
 64 0 57 5 57 16 c 0
 57 32 69 41 89 41 c 2
 135 41 l 1
 237 522 l 1
 212 522 l 2
 196 522 189 527 189 538 c 0
 189 554 201 563 221 563 c 2
 341 563 l 2
 358 563 364 559 364 547 c 0
 364 532 352 522 332 522 c 2
 278 522 l 1
 234 313 l 1
 504 313 l 1
 548 522 l 1
 494 522 l 2
 478 522 471 527 471 538 c 0
 471 554 483 563 503 563 c 2
 623 563 l 2
 640 563 646 559 646 547 c 0
 646 532 634 522 614 522 c 2
 589 522 l 1
 487 41 l 1
 532 41 l 2
 550 41 556 37 556 25 c 0
 556 10 543 0 524 0 c 2
 383 0 l 2
 367 0 360 5 360 16 c 0
 360 32 372 41 392 41 c 2
 446 41 l 1
 495 272 l 1
EndSplineSet
EndChar
StartChar: I
Encoding: 73 73
Width: 600
Flags: HMW
HStem: 0 41<148 288 329 460> 522 41<259 390 431 571 431 431>
VStem: 117 375<17.5 24>
Fore
431 522 m 1
 329 41 l 1
 468 41 l 2
 486 41 492 37 492 25 c 0
 492 10 479 0 460 0 c 2
 140 0 l 2
 124 0 117 5 117 16 c 0
 117 32 129 41 148 41 c 2
 288 41 l 5
 390 522 l 1
 251 522 l 2
 235 522 228 527 228 538 c 0
 228 554 240 563 259 563 c 2
 579 563 l 2
 597 563 603 559 603 547 c 0
 603 532 590 522 571 522 c 2
 431 522 l 1
EndSplineSet
EndChar
StartChar: J
Encoding: 74 74
Width: 600
Flags: MW
HStem: -16 41<253 319> 522 41<380 530 571 667 571 571>
VStem: 348 350
Fore
571 522 m 1
 495 165 l 2
 474 67 371 -16 269 -16 c 0
 205 -16 158 9 100 74 c 1
 132 223 l 2
 136 241 144 250 158 250 c 0
 167 250 174 243 174 235 c 1
 173 223 l 1
 145 93 l 1
 186 47 228 25 278 25 c 0
 360 25 438 87 454 165 c 1
 530 522 l 1
 372 522 l 2
 355 522 348 527 348 538 c 0
 348 554 360 563 380 563 c 2
 676 563 l 2
 693 563 699 559 699 547 c 0
 699 532 687 522 667 522 c 2
 571 522 l 1
EndSplineSet
EndChar
StartChar: K
Encoding: 75 75
Width: 600
Flags: MW
HStem: 0 41<79 133 174 240 498 545> 522 41<190 235 276 276 276 351 519 556 613 613 613 630>
VStem: 158 225<539.5 546.5> 487 174
Fore
212 221 m 1
 174 41 l 1
 248 41 l 2
 265 41 272 36 272 25 c 0
 272 10 259 0 240 0 c 2
 70 0 l 2
 54 0 47 5 47 17 c 0
 47 32 59 41 79 41 c 2
 133 41 l 1
 235 522 l 1
 181 522 l 2
 165 522 158 527 158 539 c 0
 158 554 170 563 190 563 c 2
 359 563 l 2
 377 563 383 559 383 547 c 0
 383 532 371 522 351 522 c 2
 276 522 l 1
 223 273 l 1
 556 522 l 1
 511 522 l 2
 494 522 487 527 487 538 c 0
 487 554 499 563 519 563 c 2
 638 563 l 2
 656 563 662 559 662 547 c 0
 662 532 650 522 630 522 c 2
 613 522 l 1
 349 324 l 1
 437 284 464 233 498 41 c 1
 554 41 l 2
 570 41 577 36 577 25 c 0
 577 10 564 0 545 0 c 2
 459 0 l 1
 428 204 397 263 309 294 c 1
 212 221 l 1
EndSplineSet
EndChar
StartChar: L
Encoding: 76 76
Width: 600
Flags: MW
HStem: 0 41<99 195 236 508> 522 41<209 297 338 434 338 338>
VStem: 178 288<539.5 546.5>
Fore
338 522 m 1
 236 41 l 1
 508 41 l 1
 542 201 l 2
 546 219 555 228 568 228 c 0
 578 228 585 222 585 214 c 0
 585 211 584 206 583 201 c 2
 541 0 l 1
 90 0 l 2
 74 0 67 5 67 16 c 0
 67 32 79 41 99 41 c 2
 195 41 l 1
 297 522 l 1
 201 522 l 2
 184 522 178 527 178 539 c 0
 178 554 190 563 209 563 c 2
 443 563 l 2
 460 563 466 559 466 547 c 0
 466 532 454 522 434 522 c 2
 338 522 l 1
EndSplineSet
EndChar
StartChar: M
Encoding: 77 77
Width: 600
Flags: MW
HStem: 0 41<47 81 122 188 425 500 541 566> 522 41<167 183 224 232 224 224 594 594 594 602 643 643 643 668>
VStem: 15 205<17.5 24.5> 394 204<17.5 24.5>
Fore
362 169 m 1
 316 169 l 1
 232 522 l 1
 224 522 l 1
 122 41 l 1
 196 41 l 2
 213 41 220 36 220 25 c 0
 220 10 207 0 188 0 c 2
 38 0 l 2
 22 0 15 5 15 17 c 0
 15 32 27 41 47 41 c 2
 81 41 l 1
 183 522 l 1
 158 522 l 2
 141 522 135 527 135 539 c 0
 135 554 147 563 167 563 c 2
 266 563 l 1
 349 215 l 1
 577 563 l 1
 677 563 l 2
 694 563 700 559 700 547 c 0
 700 532 688 522 668 522 c 2
 643 522 l 1
 541 41 l 1
 575 41 l 2
 591 41 598 36 598 25 c 0
 598 10 585 0 566 0 c 2
 417 0 l 2
 401 0 394 5 394 17 c 0
 394 32 406 41 425 41 c 2
 500 41 l 1
 602 522 l 1
 594 522 l 1
 362 169 l 1
EndSplineSet
EndChar
StartChar: N
Encoding: 78 78
Width: 600
Flags: MW
HStem: 0 41<78 112 153 219> 522 41<169 214 505 571 612 612 612 646>
VStem: 46 205<17.5 24.5> 473 204
Fore
501 0 m 1
 449 0 l 1
 251 504 l 1
 153 41 l 1
 227 41 l 2
 244 41 251 37 251 25 c 0
 251 10 238 0 219 0 c 2
 69 0 l 2
 53 0 46 5 46 17 c 0
 46 32 58 41 78 41 c 2
 112 41 l 1
 214 522 l 1
 160 522 l 2
 143 522 137 527 137 539 c 0
 137 554 149 563 169 563 c 2
 275 563 l 1
 473 59 l 1
 571 522 l 1
 497 522 l 2
 480 522 473 527 473 538 c 0
 473 554 485 563 505 563 c 2
 655 563 l 2
 672 563 678 559 678 547 c 0
 678 532 666 522 646 522 c 2
 612 522 l 1
 501 0 l 1
EndSplineSet
EndChar
StartChar: O
Encoding: 79 79
Width: 600
Flags: MW
HStem: -16 41<256.5 371.5> 535 41<346 461>
VStem: 102 42<161 297> 574 42<263 400>
Fore
422 576 m 0
 536 576 616 486 616 357 c 0
 616 164 461 -16 296 -16 c 0
 181 -16 102 74 102 207 c 0
 102 396 258 576 422 576 c 0
415 535 m 0
 277 535 144 378 144 216 c 0
 144 106 211 25 302 25 c 0
 441 25 574 181 574 345 c 0
 574 455 507 535 415 535 c 0
EndSplineSet
EndChar
StartChar: P
Encoding: 80 80
Width: 600
Flags: MW
HStem: 0 41<79 133 174 303> 231 41<223 346> 522 41<190 235 276 276 276 425>
VStem: 47 289<17.5 24.5> 545 42<382 450>
Fore
214 231 m 1
 174 41 l 1
 312 41 l 2
 329 41 336 36 336 25 c 0
 336 10 323 0 303 0 c 2
 70 0 l 2
 54 0 47 5 47 17 c 0
 47 32 59 41 79 41 c 2
 133 41 l 1
 235 522 l 1
 181 522 l 2
 164 522 158 527 158 539 c 0
 158 554 170 563 190 563 c 2
 430 563 l 2
 522 563 587 508 587 431 c 0
 587 324 474 231 346 231 c 2
 214 231 l 1
223 272 m 1
 357 272 l 2
 455 272 545 343 545 421 c 0
 545 479 494 522 425 522 c 2
 276 522 l 1
 223 272 l 1
EndSplineSet
EndChar
StartChar: Q
Encoding: 81 81
Width: 600
Flags: W
HStem: -115 41<422.5 430.5> -89 41<296.5 310.5> 535 41<346 461>
VStem: 102 42<161 297.5> 574 42<263.5 400.5>
Fore
301 -16 m 1
 238 -56 l 1
 270 -50 286 -48 307 -48 c 0
 337 -48 359 -52 386 -63 c 0
 409 -72 416 -74 429 -74 c 0
 450 -74 468 -67 504 -47 c 0
 509 -44 513 -43 517 -43 c 0
 526 -43 533 -49 533 -59 c 0
 533 -70 527 -76 510 -86 c 0
 478 -104 443 -115 418 -115 c 0
 402 -115 391 -112 364 -102 c 0
 339 -92 323 -89 298 -89 c 0
 269 -89 200 -100 153 -112 c 0
 149 -113 145 -114 143 -114 c 0
 133 -114 127 -107 127 -97 c 0
 127 -89 132 -81 142 -75 c 2
 246 -10 l 1
 160 10 102 97 102 206 c 0
 102 396 258 576 422 576 c 0
 537 576 616 486 616 354 c 0
 616 166 465 -11 301 -16 c 1
415 535 m 0
 277 535 144 379 144 216 c 0
 144 106 211 25 302 25 c 0
 441 25 574 181 574 346 c 0
 574 455 507 535 415 535 c 0
EndSplineSet
EndChar
StartChar: R
Encoding: 82 82
Width: 600
Flags: MW
HStem: 0 41<79 133 174 240 540 562> 251 41<227 341 341 351> 522 41<189 235 276 276 276 429>
VStem: 47 225<17.5 24.5> 545 42<395.5 452>
Fore
218 251 m 1
 174 41 l 1
 248 41 l 2
 265 41 272 37 272 25 c 0
 272 10 259 0 240 0 c 2
 70 0 l 2
 54 0 47 5 47 17 c 0
 47 32 59 41 79 41 c 2
 133 41 l 1
 235 522 l 1
 181 522 l 2
 164 522 158 527 158 539 c 0
 158 554 170 563 189 563 c 2
 438 563 l 2
 522 563 587 507 587 434 c 0
 587 357 528 299 414 262 c 1
 468 218 489 183 540 41 c 1
 570 41 l 2
 587 41 594 36 594 25 c 0
 594 10 581 0 562 0 c 2
 505 0 l 1
 452 162 419 216 351 251 c 1
 218 251 l 1
227 292 m 1
 341 292 l 2
 448 292 545 355 545 425 c 0
 545 479 493 522 429 522 c 2
 276 522 l 1
 227 292 l 1
EndSplineSet
EndChar
StartChar: S
Encoding: 83 83
Width: 600
Flags: MW
HStem: -17 41<287.5 332.5> 536 41<371 433.5>
VStem: 201 45<389 435> 500 45<161 188>
Fore
555 517 m 1
 559 536 l 2
 563 554 572 563 586 563 c 0
 595 563 602 556 602 548 c 0
 602 545 602 543 600 536 c 1
 578 433 l 1
 575 416 565 405 553 405 c 0
 547 405 542 408 536 417 c 1
 539 459 l 1
 539 464 517 497 508 506 c 0
 491 523 451 536 416 536 c 0
 326 536 246 471 246 399 c 0
 246 379 257 356 272 344 c 0
 292 328 317 319 378 309 c 0
 453 296 480 287 505 269 c 0
 528 252 545 217 545 185 c 0
 545 137 520 84 482 50 c 0
 437 10 364 -17 301 -17 c 0
 231 -17 176 9 145 56 c 1
 139 27 l 2
 135 9 126 0 112 0 c 0
 103 0 96 7 96 15 c 0
 96 17 97 23 98 27 c 2
 121 139 l 1
 125 157 135 167 148 167 c 0
 154 167 159 163 164 155 c 1
 160 109 l 1
 160 103 188 65 201 55 c 0
 222 37 268 24 307 24 c 0
 410 24 500 95 500 177 c 0
 500 199 487 224 470 237 c 0
 450 253 430 259 361 271 c 0
 293 283 259 295 234 317 c 0
 214 334 201 364 201 392 c 0
 201 489 305 577 420 577 c 0
 479 577 523 558 555 517 c 1
EndSplineSet
EndChar
StartChar: T
Encoding: 84 84
Width: 600
Flags: MW
HStem: 0 41<184 289 330 426> 522 41<224 391 224 224 432 432 432 598>
VStem: 152 306<17.5 24.5>
Fore
330 41 m 1
 435 41 l 2
 451 41 458 36 458 25 c 0
 458 10 445 0 426 0 c 2
 175 0 l 2
 159 0 152 5 152 17 c 0
 152 32 164 41 184 41 c 2
 289 41 l 1
 391 522 l 1
 224 522 l 1
 209 449 l 1
 205 431 196 422 182 422 c 0
 173 422 166 429 166 437 c 1
 167 449 l 1
 192 563 l 1
 648 563 l 1
 624 449 l 2
 620 431 611 421 598 421 c 0
 592 421 583 428 582 435 c 0
 582 436 582 447 583 449 c 1
 598 522 l 1
 432 522 l 1
 330 41 l 1
EndSplineSet
EndChar
StartChar: U
Encoding: 85 85
Width: 600
Flags: W
HStem: -16 41<267.5 349.5> 522 41<187 212 253 253 253 328 504 569 610 644 610 610>
VStem: 136 42<113.5 147> 155 203 472 204<539.5 546.5>
Fore
610 522 m 1
 539 185 l 2
 515 72 409 -16 297 -16 c 0
 201 -16 136 47 136 140 c 0
 136 154 138 170 141 185 c 2
 212 522 l 1
 179 522 l 2
 162 522 155 527 155 538 c 0
 155 554 167 563 187 563 c 2
 337 563 l 2
 353 563 359 559 359 547 c 0
 359 532 347 522 328 522 c 2
 253 522 l 1
 182 185 l 1
 179 173 178 161 178 151 c 0
 178 76 230 25 305 25 c 0
 394 25 479 95 498 185 c 2
 569 522 l 1
 495 522 l 2
 478 522 472 527 472 539 c 0
 472 554 484 563 504 563 c 2
 653 563 l 2
 670 563 676 559 676 547 c 0
 676 532 664 522 644 522 c 2
 610 522 l 1
EndSplineSet
EndChar
StartChar: V
Encoding: 86 86
Width: 600
Flags: MW
HStem: 0 41<305 307> 522 41<156 178 222 222 222 298 533 604 644 644 644 675>
VStem: 124 205 502 204
Fore
268 0 m 1
 178 522 l 1
 147 522 l 2
 130 522 124 527 124 538 c 0
 124 554 136 563 156 563 c 2
 306 563 l 2
 324 563 330 559 330 547 c 0
 330 531 318 522 298 522 c 2
 222 522 l 1
 305 41 l 1
 307 41 l 1
 604 522 l 1
 525 522 l 2
 508 522 502 527 502 538 c 0
 502 554 514 563 533 563 c 2
 684 563 l 2
 701 563 707 559 707 547 c 0
 707 531 695 522 675 522 c 2
 644 522 l 1
 324 0 l 1
 268 0 l 1
EndSplineSet
EndChar
StartChar: W
Encoding: 87 87
Width: 600
Flags: MW
HStem: 0 438<412 412 412 426> 522 41<167 173 214 214 214 308 523 610 649 649 649 664>
VStem: 135 204 491 204
Fore
122 0 m 1
 173 522 l 1
 158 522 l 2
 142 522 135 527 135 538 c 0
 135 554 147 563 167 563 c 2
 316 563 l 2
 334 563 340 559 340 547 c 0
 340 532 328 522 308 522 c 2
 214 522 l 1
 169 46 l 1
 364 438 l 1
 426 438 l 1
 452 46 l 1
 610 522 l 1
 514 522 l 2
 498 522 491 527 491 538 c 0
 491 554 503 563 523 563 c 2
 673 563 l 2
 690 563 696 559 696 547 c 0
 696 532 684 522 664 522 c 2
 649 522 l 1
 476 0 l 1
 412 0 l 1
 385 400 l 1
 185 0 l 1
 122 0 l 1
EndSplineSet
EndChar
StartChar: X
Encoding: 88 88
Width: 600
Flags: W
HStem: 0 41<76 93 142 198 410 472 525 533> 522 41<197 204 256 256 256 299 528 565 615 615 615 630>
VStem: 44 185 166 164 378 187<17.5 24> 496 165
Fore
386 288 m 1
 525 41 l 1
 542 41 l 2
 559 41 565 37 565 25 c 0
 565 10 552 0 533 0 c 2
 401 0 l 2
 385 0 378 5 378 16 c 0
 378 32 390 41 410 41 c 2
 472 41 l 1
 352 255 l 1
 142 41 l 1
 207 41 l 2
 224 41 230 37 230 25 c 0
 230 10 218 0 198 0 c 2
 67 0 l 2
 51 0 44 5 44 16 c 0
 44 32 56 41 76 41 c 2
 93 41 l 1
 334 288 l 1
 204 522 l 1
 189 522 l 2
 173 522 166 527 166 538 c 0
 166 554 178 563 197 563 c 2
 308 563 l 2
 325 563 331 559 331 547 c 0
 331 532 319 522 299 522 c 2
 256 522 l 1
 368 321 l 1
 565 522 l 1
 519 522 l 2
 503 522 496 527 496 538 c 0
 496 554 508 563 528 563 c 2
 639 563 l 2
 656 563 662 559 662 547 c 0
 662 532 650 522 630 522 c 2
 615 522 l 1
 386 288 l 1
EndSplineSet
EndChar
StartChar: Y
Encoding: 89 89
Width: 600
Flags: W
HStem: 0 41<185 290 331 427> 522 41<198 213 262 262 262 300 532 564 610 610 610 633>
VStem: 153 305 166 165 499 166<539 546>
Fore
376 254 m 1
 331 41 l 1
 436 41 l 2
 453 41 459 36 459 25 c 0
 459 10 447 0 427 0 c 2
 176 0 l 2
 160 0 153 5 153 16 c 0
 153 32 165 41 185 41 c 2
 290 41 l 1
 335 254 l 1
 213 522 l 1
 189 522 l 2
 173 522 166 527 166 538 c 0
 166 554 178 563 198 563 c 2
 309 563 l 2
 326 563 332 559 332 547 c 0
 332 532 320 522 300 522 c 2
 262 522 l 1
 366 295 l 1
 564 522 l 1
 523 522 l 2
 506 522 499 527 499 538 c 0
 499 554 511 563 532 563 c 2
 642 563 l 2
 658 563 665 558 665 546 c 0
 665 532 652 522 633 522 c 2
 610 522 l 1
 376 254 l 1
EndSplineSet
EndChar
StartChar: Z
Encoding: 90 90
Width: 600
Flags: MW
HStem: 0 41<150 465> 522 41<273 542 273 273>
Fore
497 0 m 1
 103 0 l 1
 116 59 l 1
 541 519 l 1
 542 522 l 1
 273 522 l 1
 248 404 l 2
 244 385 235 376 221 376 c 0
 212 376 205 383 205 392 c 0
 205 395 205 396 207 404 c 1
 241 563 l 1
 590 563 l 1
 578 505 l 1
 151 45 l 1
 150 41 l 1
 465 41 l 1
 495 182 l 2
 499 200 507 209 521 209 c 0
 531 209 538 202 538 194 c 0
 538 192 538 189 537 186 c 2
 536 182 l 1
 497 0 l 1
EndSplineSet
EndChar
StartChar: bracketleft
Encoding: 91 91
Width: 600
Flags: MW
HStem: -124 41<304 392> 563 41<441 441 441 538>
Fore
441 563 m 1
 304 -83 l 1
 401 -83 l 2
 418 -83 424 -87 424 -99 c 0
 424 -114 412 -124 392 -124 c 2
 254 -124 l 1
 409 604 l 1
 547 604 l 2
 564 604 570 600 570 588 c 0
 570 572 558 563 538 563 c 2
 441 563 l 1
EndSplineSet
EndChar
StartChar: backslash
Encoding: 92 92
Width: 600
Flags: W
Fore
292 650 m 1
 472 -46 l 2
 473 -50 474 -55 474 -57 c 0
 474 -69 462 -81 449 -81 c 0
 439 -81 435 -77 432 -63 c 1
 252 633 l 2
 251 637 250 642 250 644 c 0
 250 656 262 668 275 668 c 0
 285 668 289 664 292 650 c 1
EndSplineSet
EndChar
StartChar: bracketright
Encoding: 93 93
Width: 600
Flags: MW
HStem: -124 41<164 261> 563 41<310 398>
Fore
261 -83 m 1
 398 563 l 1
 301 563 l 2
 284 563 278 567 278 579 c 0
 278 594 290 604 310 604 c 2
 448 604 l 1
 293 -124 l 1
 155 -124 l 2
 138 -124 132 -120 132 -108 c 0
 132 -92 144 -83 164 -83 c 2
 261 -83 l 1
EndSplineSet
EndChar
StartChar: asciicircum
Encoding: 94 94
Width: 600
Flags: W
Fore
430 615 m 1
 562 392 l 2
 565 387 567 381 567 378 c 0
 567 366 554 354 542 354 c 0
 534 354 530 357 524 367 c 2
 417 552 l 1
 231 367 l 2
 221 357 216 354 208 354 c 0
 199 354 192 361 192 370 c 0
 192 377 195 382 205 392 c 2
 430 615 l 1
EndSplineSet
EndChar
StartChar: underscore
Encoding: 95 95
Width: 600
Flags: MW
HStem: -125 50<-61 564>
VStem: -61 625<-125 -75>
Fore
564 -75 m 1
 564 -125 l 1
 -61 -125 l 1
 -61 -75 l 1
 564 -75 l 1
EndSplineSet
EndChar
StartChar: grave
Encoding: 96 96
Width: 600
Flags: W
Fore
328 630 m 2
 420 530 l 1
 423 528 429 516 429 514 c 0
 429 502 415 490 403 490 c 0
 398 490 393 493 387 499 c 2
 294 599 l 2
 289 605 286 610 286 614 c 0
 286 627 298 639 312 639 c 0
 317 639 321 637 328 630 c 2
EndSplineSet
EndChar
StartChar: a
Encoding: 97 97
Width: 600
Flags: W
HStem: -16 41<200.5 260> 0 41<469 514> 217 41<279.5 359.5> 390 41<372 411.5>
VStem: 93 42<73.5 130.5> 486 42<326.5 342.5>
Fore
419 0 m 1
 433 67 l 1
 360 10 295 -16 225 -16 c 0
 143 -16 93 23 93 87 c 0
 93 184 200 258 338 258 c 0
 384 258 414 253 470 237 c 1
 485 308 l 2
 486 313 486 316 486 322 c 0
 486 363 444 390 379 390 c 0
 345 390 304 382 231 360 c 0
 226 359 223 358 220 358 c 0
 212 358 205 365 205 374 c 0
 205 384 211 392 223 397 c 0
 259 412 353 431 391 431 c 0
 472 431 528 390 528 331 c 0
 528 322 527 316 526 308 c 1
 469 41 l 1
 523 41 l 2
 540 41 546 37 546 25 c 0
 546 10 534 0 514 0 c 2
 419 0 l 1
443 112 m 1
 462 202 l 1
 427 211 382 217 337 217 c 0
 222 217 135 165 135 96 c 0
 135 51 170 25 231 25 c 0
 304 25 361 49 443 112 c 1
EndSplineSet
EndChar
StartChar: b
Encoding: 98 98
Width: 600
Flags: W
HStem: -16 41<285.5 383.5> 0 41<58 112> 390 41<379 446> 563 41<177 223>
VStem: 549 42<189.5 288.5>
Fore
272 604 m 1
 214 328 l 1
 279 399 342 431 416 431 c 0
 519 431 591 360 591 258 c 0
 591 117 459 -16 319 -16 c 0
 247 -16 195 19 163 88 c 1
 144 0 l 1
 49 0 l 2
 33 0 26 5 26 17 c 0
 26 32 38 41 58 41 c 2
 112 41 l 1
 223 563 l 1
 169 563 l 2
 152 563 146 567 146 580 c 0
 146 595 158 604 177 604 c 2
 272 604 l 1
404 390 m 0
 290 390 184 282 184 167 c 0
 184 86 245 25 326 25 c 0
 441 25 549 132 549 247 c 0
 549 330 488 390 404 390 c 0
EndSplineSet
EndChar
StartChar: c
Encoding: 99 99
Width: 600
Flags: MW
HStem: -17 41<268.5 335> 391 41<358 413>
VStem: 121 42<121.5 186>
Fore
551 376 m 1
 554 389 l 1
 557 408 566 417 580 417 c 0
 589 417 596 410 596 402 c 0
 596 399 595 395 594 389 c 1
 575 298 l 2
 571 280 562 270 549 270 c 0
 542 270 537 273 532 282 c 1
 535 318 l 1
 535 323 510 353 498 362 c 0
 477 379 433 391 393 391 c 0
 323 391 258 360 216 306 c 0
 183 264 163 210 163 162 c 0
 163 81 225 24 312 24 c 0
 387 24 460 50 519 97 c 0
 527 104 534 108 539 108 c 0
 546 108 555 99 555 91 c 0
 555 79 534 59 501 39 c 0
 442 3 369 -17 301 -17 c 0
 196 -17 121 53 121 152 c 0
 121 301 253 432 403 432 c 0
 465 432 516 413 551 376 c 1
EndSplineSet
EndChar
StartChar: d
Encoding: 100 100
Width: 600
Flags: W
HStem: -16 41<245 312> 0 41<510 556> 390 41<308 407.5> 563 41<535 580>
VStem: 102 42<126.5 226.5>
Fore
630 604 m 1
 510 41 l 1
 565 41 l 2
 581 41 587 37 587 25 c 0
 587 10 575 0 556 0 c 2
 461 0 l 1
 480 89 l 1
 417 18 350 -16 274 -16 c 0
 176 -16 102 58 102 157 c 0
 102 299 232 431 371 431 c 0
 446 431 496 398 530 327 c 1
 580 563 l 1
 526 563 l 2
 509 563 503 567 503 580 c 0
 503 595 515 604 535 604 c 2
 630 604 l 1
365 390 m 0
 251 390 144 284 144 169 c 0
 144 84 203 25 287 25 c 0
 403 25 509 132 509 248 c 0
 509 331 450 390 365 390 c 0
EndSplineSet
EndChar
StartChar: e
Encoding: 101 101
Width: 600
Flags: MW
HStem: -16 41<261.5 332> 199 41<155 529> 390 41<326 420.5>
VStem: 104 41<132 179> 530 40<255 292.5>
Fore
562 199 m 1
 146 199 l 1
 145 189 145 181 145 177 c 0
 145 87 213 25 310 25 c 0
 373 25 450 47 498 79 c 0
 507 84 511 86 516 86 c 0
 525 86 531 79 531 70 c 0
 531 58 521 48 491 32 c 0
 437 2 364 -16 300 -16 c 0
 184 -16 104 60 104 171 c 0
 104 309 235 431 383 431 c 0
 492 431 570 361 570 262 c 0
 570 248 567 224 562 199 c 1
155 240 m 1
 529 240 l 1
 530 245 530 250 530 252 c 0
 530 333 466 390 375 390 c 0
 277 390 192 332 155 240 c 1
EndSplineSet
EndChar
StartChar: f
Encoding: 102 102
Width: 600
Flags: MW
HStem: 0 41<141 239 280 449> 376 41<231 310 360 540> 563 41<469 513.5>
VStem: 199 373<393.5 400.5>
Fore
351 376 m 1
 280 41 l 1
 457 41 l 2
 474 41 481 37 481 25 c 0
 481 10 468 0 449 0 c 2
 132 0 l 2
 116 0 109 5 109 17 c 0
 109 32 121 41 141 41 c 2
 239 41 l 1
 310 376 l 1
 222 376 l 2
 206 376 199 381 199 393 c 0
 199 408 211 417 231 417 c 2
 319 417 l 1
 332 478 l 1
 347 551 423 604 512 604 c 0
 551 604 617 597 649 591 c 0
 658 589 663 583 663 576 c 0
 663 562 651 551 637 551 c 0
 635 551 635 551 589 557 c 0
 566 560 525 563 502 563 c 0
 436 563 383 529 373 478 c 1
 360 417 l 1
 549 417 l 2
 566 417 572 413 572 401 c 0
 572 386 560 376 540 376 c 2
 351 376 l 1
EndSplineSet
EndChar
StartChar: g
Encoding: 103 103
Width: 600
Flags: W
HStem: -186 41<171 277> 10 41<242 307.5> 376 41<561 615 561 561> 390 41<300.5 394.5>
VStem: 105 42<146 238.5>
Fore
511 334 m 1
 529 417 l 1
 624 417 l 2
 641 417 647 413 647 401 c 0
 647 386 635 376 615 376 c 2
 561 376 l 1
 475 -28 l 1
 466 -69 447 -100 410 -132 c 0
 367 -170 326 -186 277 -186 c 2
 162 -186 l 2
 146 -186 139 -181 139 -170 c 0
 139 -154 151 -145 171 -145 c 2
 287 -145 l 2
 355 -145 421 -90 435 -22 c 1
 463 107 l 1
 403 40 344 10 271 10 c 0
 174 10 105 79 105 177 c 0
 105 307 230 431 361 431 c 0
 433 431 480 401 511 334 c 1
354 390 m 0
 247 390 147 291 147 186 c 0
 147 106 202 51 282 51 c 0
 392 51 491 150 491 258 c 0
 491 336 435 390 354 390 c 0
EndSplineSet
EndChar
StartChar: h
Encoding: 104 104
Width: 600
Flags: W
HStem: 0 41<87 133 174 210 400 446 487 524> 390 41<380.5 417> 563 41<198 244>
VStem: 55 188<17.5 24.5> 369 187<17.5 24.5> 501 42<314.5 319.5>
Fore
293 604 m 1
 239 347 l 1
 303 408 350 431 411 431 c 0
 491 431 543 387 543 319 c 0
 543 310 542 301 540 291 c 2
 487 41 l 1
 532 41 l 2
 549 41 556 36 556 25 c 0
 556 10 543 0 524 0 c 2
 392 0 l 2
 376 0 369 5 369 17 c 0
 369 32 381 41 400 41 c 2
 446 41 l 1
 498 288 l 1
 500 295 501 304 501 309 c 0
 501 330 493 349 477 364 c 0
 457 384 438 390 396 390 c 0
 341 390 309 373 241 309 c 2
 228 296 l 1
 174 41 l 1
 219 41 l 2
 236 41 243 36 243 25 c 0
 243 10 230 0 210 0 c 2
 78 0 l 2
 62 0 55 5 55 17 c 0
 55 32 67 41 87 41 c 2
 133 41 l 1
 244 563 l 1
 189 563 l 2
 173 563 167 567 167 580 c 0
 167 595 179 604 198 604 c 2
 293 604 l 1
EndSplineSet
EndChar
StartChar: i
Encoding: 105 105
Width: 600
Flags: HMW
HStem: 0 41<127 288 329 481> 376 41<250 359>
VStem: 96 417<17.5 24>
Fore
444 624 m 1
 422 520 l 1
 363 520 l 1
 385 624 l 1
 444 624 l 1
409 417 m 1
 329 41 l 1
 489 41 l 2
 506 41 513 36 513 25 c 0
 513 10 500 0 481 0 c 2
 119 0 l 2
 103 0 96 5 96 16 c 0
 96 32 108 41 127 41 c 2
 288 41 l 1
 359 376 l 1
 241 376 l 2
 225 376 218 381 218 393 c 0
 218 408 230 417 250 417 c 2
 409 417 l 1
EndSplineSet
EndChar
StartChar: j
Encoding: 106 106
Width: 600
Flags: MW
HStem: -186 41<144 264> 376 41<266 497> 520 104<488 525>
Fore
497 376 m 1
 257 376 l 2
 240 376 233 381 233 392 c 0
 233 408 245 417 266 417 c 2
 547 417 l 1
 452 -28 l 1
 433 -121 355 -186 264 -186 c 2
 135 -186 l 2
 119 -186 112 -181 112 -170 c 0
 112 -154 124 -145 144 -145 c 2
 272 -145 l 2
 338 -145 397 -96 411 -28 c 1
 497 376 l 1
547 624 m 5
 525 520 l 5
 466 520 l 5
 488 624 l 5
 547 624 l 5
EndSplineSet
EndChar
StartChar: k
Encoding: 107 107
Width: 600
Flags: W
HStem: 0 41<99 153 392 420 478 514> 376 41<425 438 499 499 499 546> 563 41<218 264>
VStem: 360 186<17.5 24.5> 393 185<393 400.5>
Fore
223 180 m 1
 185 0 l 1
 90 0 l 2
 74 0 67 5 67 17 c 0
 67 32 79 41 99 41 c 2
 153 41 l 1
 264 563 l 1
 210 563 l 2
 193 563 187 567 187 580 c 0
 187 595 199 604 218 604 c 2
 314 604 l 1
 234 229 l 1
 438 376 l 1
 416 376 l 2
 400 376 393 381 393 393 c 0
 393 408 405 417 425 417 c 2
 554 417 l 2
 572 417 578 413 578 400 c 0
 578 386 565 376 546 376 c 2
 499 376 l 1
 314 245 l 1
 478 41 l 1
 523 41 l 2
 539 41 546 37 546 25 c 0
 546 10 533 0 514 0 c 2
 383 0 l 2
 367 0 360 5 360 17 c 0
 360 32 372 41 392 41 c 2
 420 41 l 1
 278 219 l 1
 223 180 l 1
EndSplineSet
EndChar
StartChar: l
Encoding: 108 108
Width: 600
Flags: MW
HStem: 0 41<127 288 329 481> 563 41<291 399>
VStem: 96 417<17.5 24>
Fore
449 604 m 1
 329 41 l 1
 489 41 l 2
 506 41 513 36 513 25 c 0
 513 10 500 0 481 0 c 2
 119 0 l 2
 103 0 96 5 96 16 c 0
 96 32 108 41 127 41 c 2
 288 41 l 1
 399 563 l 1
 282 563 l 2
 265 563 259 567 259 579 c 0
 259 595 271 604 291 604 c 2
 449 604 l 1
EndSplineSet
EndChar
StartChar: m
Encoding: 109 109
Width: 600
Flags: W
HStem: 0 41<47 81 121 146 331 356 541 566> 376 41<127 152> 390 41<288 314 498 524>
VStem: 15 163<17.5 24> 561 42<341.5 349>
Fore
201 417 m 1
 190 365 l 1
 233 412 267 431 309 431 c 0
 352 431 379 408 391 360 c 1
 440 410 477 431 519 431 c 0
 568 431 603 395 603 345 c 0
 603 338 602 331 600 323 c 1
 541 41 l 1
 575 41 l 2
 592 41 598 37 598 25 c 0
 598 10 585 0 566 0 c 2
 492 0 l 1
 560 319 l 2
 561 324 561 327 561 333 c 0
 561 365 539 390 509 390 c 0
 473 390 437 366 387 308 c 1
 331 41 l 1
 365 41 l 2
 382 41 388 37 388 25 c 0
 388 10 376 0 356 0 c 2
 282 0 l 1
 349 316 l 1
 350 322 351 327 351 332 c 0
 351 364 328 390 300 390 c 0
 265 390 228 366 178 308 c 1
 121 41 l 1
 155 41 l 2
 171 41 178 36 178 25 c 0
 178 10 165 0 146 0 c 2
 37 0 l 2
 22 0 15 5 15 16 c 0
 15 32 27 41 47 41 c 2
 81 41 l 1
 152 376 l 1
 118 376 l 2
 102 376 95 381 95 392 c 0
 95 408 107 417 127 417 c 2
 201 417 l 1
EndSplineSet
EndChar
StartChar: n
Encoding: 110 110
Width: 600
Flags: W
HStem: 0 41<89 135 176 212 414 448 489 514> 376 41<181 206> 390 41<383.5 421.5>
VStem: 57 186 382 164<17.5 24> 502 43<314 318.5>
Fore
256 417 m 1
 241 348 l 1
 313 412 353 431 414 431 c 0
 493 431 545 387 545 319 c 0
 545 309 544 303 543 295 c 1
 489 41 l 1
 523 41 l 2
 540 41 546 37 546 25 c 0
 546 10 533 0 514 0 c 2
 405 0 l 2
 389 0 382 5 382 16 c 0
 382 32 394 41 414 41 c 2
 448 41 l 1
 500 288 l 1
 502 295 502 298 502 308 c 0
 502 329 493 349 478 364 c 0
 458 384 440 390 403 390 c 0
 339 390 309 373 230 294 c 1
 176 41 l 1
 221 41 l 2
 238 41 244 37 244 25 c 0
 244 10 232 0 212 0 c 2
 81 0 l 2
 64 0 57 5 57 16 c 0
 57 32 69 41 89 41 c 2
 135 41 l 1
 206 376 l 1
 172 376 l 2
 156 376 149 381 149 392 c 0
 149 408 161 417 181 417 c 2
 256 417 l 1
EndSplineSet
EndChar
StartChar: o
Encoding: 111 111
Width: 600
Flags: MW
HStem: -16 41<260.5 364.5> 390 41<323 427.5>
VStem: 111 42<128 227.5> 535 42<187 287.5>
Fore
391 431 m 0
 501 431 577 358 577 252 c 0
 577 113 441 -16 296 -16 c 0
 187 -16 111 58 111 162 c 0
 111 301 247 431 391 431 c 0
382 390 m 0
 264 390 153 284 153 171 c 0
 153 85 216 25 305 25 c 0
 424 25 535 130 535 244 c 0
 535 331 473 390 382 390 c 0
EndSplineSet
EndChar
StartChar: p
Encoding: 112 112
Width: 600
Flags: W
HStem: -186 41<19 73 114 203> 10 41<290.5 390> 376 41<138 183> 390 41<377 448>
VStem: -13 247 551 42<202 295>
Fore
233 417 m 1
 216 335 l 1
 283 404 339 431 415 431 c 0
 523 431 593 365 593 264 c 0
 593 131 466 10 326 10 c 0
 249 10 199 40 167 106 c 1
 114 -145 l 1
 211 -145 l 2
 229 -145 235 -149 235 -161 c 0
 235 -177 223 -186 203 -186 c 2
 10 -186 l 2
 -6 -186 -13 -181 -13 -170 c 0
 -13 -154 -1 -145 19 -145 c 2
 73 -145 l 1
 183 376 l 1
 129 376 l 2
 113 376 106 381 106 392 c 0
 106 408 118 417 138 417 c 2
 233 417 l 1
405 390 m 0
 292 390 188 292 188 187 c 0
 188 107 248 51 333 51 c 0
 447 51 551 149 551 255 c 0
 551 335 491 390 405 390 c 0
EndSplineSet
EndChar
StartChar: q
Encoding: 113 113
Width: 600
Flags: W
HStem: -186 41<332 430 471 517> 10 41<250 322.5> 376 41<582 636 582 582> 390 41<308 408.5>
VStem: 105 42<146.5 239.5> 300 249<-168.5 -162>
Fore
532 335 m 1
 550 417 l 1
 645 417 l 2
 662 417 668 413 668 401 c 0
 668 386 656 376 636 376 c 2
 582 376 l 1
 471 -145 l 1
 525 -145 l 2
 542 -145 549 -149 549 -161 c 0
 549 -176 536 -186 517 -186 c 2
 324 -186 l 2
 307 -186 300 -181 300 -170 c 0
 300 -154 312 -145 332 -145 c 2
 430 -145 l 1
 484 106 l 1
 423 40 361 10 284 10 c 0
 177 10 105 78 105 178 c 0
 105 311 233 431 374 431 c 0
 450 431 500 401 532 335 c 1
365 390 m 0
 251 390 147 293 147 186 c 0
 147 107 207 51 293 51 c 0
 407 51 512 148 512 254 c 0
 512 335 452 390 365 390 c 0
EndSplineSet
EndChar
StartChar: r
Encoding: 114 114
Width: 600
Flags: W
HStem: 0 41<120 216 257 427> 376 41<221 287> 386 41<506 531>
VStem: 88 371<17 24>
Fore
337 417 m 1
 315 315 l 1
 427 400 480 427 532 427 c 0
 558 427 575 420 595 403 c 0
 610 389 619 377 619 369 c 0
 619 357 606 344 592 344 c 0
 586 344 584 345 578 352 c 0
 559 376 542 386 520 386 c 0
 475 386 435 363 304 262 c 1
 257 41 l 1
 436 41 l 2
 451 41 459 36 459 24 c 0
 459 10 446 0 427 0 c 2
 111 0 l 2
 96 0 88 5 88 17 c 0
 88 31 101 41 120 41 c 2
 216 41 l 1
 287 376 l 1
 213 376 l 2
 197 376 190 381 190 393 c 0
 190 407 203 417 221 417 c 2
 337 417 l 1
EndSplineSet
EndChar
StartChar: s
Encoding: 115 115
Width: 600
Flags: W
HStem: -17 42<267.5 353> 292 125 391 40<343.5 399>
VStem: 190 45<299 329> 479 46<101 138.5>
Fore
110 27 m 1
 127 110 l 1
 131 128 140 137 154 137 c 0
 163 137 170 130 170 122 c 0
 170 120 170 117 169 115 c 0
 168 108 167 102 167 99 c 0
 167 56 225 25 305 25 c 0
 401 25 479 72 479 130 c 0
 479 147 465 168 447 180 c 0
 424 194 399 201 344 207 c 0
 272 215 245 222 221 239 c 0
 203 252 190 276 190 298 c 0
 190 372 277 431 386 431 c 0
 444 431 486 416 515 385 c 1
 519 406 529 417 542 417 c 0
 551 417 558 410 558 402 c 0
 558 399 557 394 556 389 c 2
 542 320 l 1
 538 302 528 292 515 292 c 0
 509 292 504 296 499 304 c 1
 502 335 l 1
 502 339 482 363 472 370 c 0
 453 382 416 391 382 391 c 0
 305 391 235 351 235 307 c 0
 235 291 252 271 273 262 c 0
 293 253 293 253 370 245 c 0
 430 238 465 227 491 206 c 0
 511 190 525 162 525 138 c 0
 525 54 423 -17 300 -17 c 0
 235 -17 187 1 153 38 c 1
 150 27 l 1
 146 9 138 0 124 0 c 0
 116 0 108 7 108 15 c 0
 108 17 109 24 110 27 c 1
EndSplineSet
EndChar
StartChar: t
Encoding: 116 116
Width: 600
Flags: MW
HStem: -16 41<274 322.5> 376 41<159 225 275 486>
VStem: 165 42<71 84>
Fore
275 417 m 1
 495 417 l 2
 512 417 518 413 518 401 c 0
 518 386 505 376 486 376 c 2
 266 376 l 1
 209 109 l 1
 208 102 207 95 207 91 c 0
 207 51 245 25 303 25 c 0
 359 25 435 42 478 65 c 0
 488 70 491 71 496 71 c 0
 504 71 511 64 511 54 c 0
 511 42 500 33 471 20 c 0
 423 -1 349 -16 296 -16 c 0
 217 -16 165 22 165 79 c 0
 165 89 166 97 168 107 c 2
 225 376 l 1
 151 376 l 2
 134 376 127 381 127 392 c 0
 127 408 139 417 159 417 c 2
 234 417 l 1
 259 536 l 2
 263 554 272 563 285 563 c 0
 295 563 302 556 302 548 c 0
 302 545 302 544 300 536 c 1
 275 417 l 1
EndSplineSet
EndChar
StartChar: u
Encoding: 117 117
Width: 600
Flags: W
HStem: -16 41<239.5 286.5> 0 41<489 514> 376 41<159 204 454 519>
VStem: 146 42
Fore
439 0 m 1
 453 66 l 1
 387 11 320 -16 253 -16 c 0
 187 -16 145 22 145 82 c 0
 145 93 146 104 149 115 c 1
 204 376 l 1
 150 376 l 2
 134 376 127 381 127 392 c 0
 127 408 139 417 159 417 c 2
 254 417 l 1
 190 115 l 1
 188 109 188 105 188 97 c 0
 188 55 218 25 261 25 c 0
 329 25 395 54 464 115 c 1
 519 376 l 1
 445 376 l 2
 428 376 421 381 421 392 c 0
 421 408 433 417 454 417 c 2
 569 417 l 1
 489 41 l 1
 523 41 l 2
 540 41 546 37 546 25 c 0
 546 10 534 0 514 0 c 2
 439 0 l 1
EndSplineSet
EndChar
StartChar: v
Encoding: 118 118
Width: 600
Flags: MW
HStem: 0 41<302 321> 376 41<146 178 223 223 223 289 480 540 582 582 582 623>
VStem: 114 206 448 206
Fore
336 0 m 1
 266 0 l 1
 178 376 l 1
 137 376 l 2
 121 376 114 381 114 392 c 0
 114 408 126 417 146 417 c 2
 297 417 l 2
 315 417 321 413 321 401 c 0
 321 386 309 376 289 376 c 2
 223 376 l 1
 302 41 l 1
 321 41 l 1
 540 376 l 1
 471 376 l 2
 455 376 448 381 448 392 c 0
 448 408 460 417 480 417 c 2
 632 417 l 2
 649 417 655 413 655 401 c 0
 655 386 643 376 623 376 c 2
 582 376 l 1
 336 0 l 1
EndSplineSet
EndChar
StartChar: w
Encoding: 119 119
Width: 600
Flags: MW
HStem: 0 21<160 211 160 160 391 442 391 391> 376 41<146 156 195 195 195 248 521 562 604 604 604 623>
VStem: 156 39 489 165
Fore
442 0 m 1
 391 0 l 1
 356 259 l 1
 211 0 l 1
 160 0 l 1
 156 376 l 1
 137 376 l 2
 121 376 114 381 114 392 c 0
 114 408 126 417 146 417 c 2
 257 417 l 2
 274 417 280 413 280 401 c 0
 280 386 268 376 248 376 c 2
 195 376 l 1
 199 56 l 1
 339 311 l 1
 391 311 l 1
 425 56 l 1
 562 376 l 1
 512 376 l 2
 496 376 489 381 489 392 c 0
 489 408 501 417 521 417 c 2
 632 417 l 2
 649 417 655 413 655 401 c 0
 655 386 643 376 623 376 c 2
 604 376 l 1
 442 0 l 1
EndSplineSet
EndChar
StartChar: x
Encoding: 120 120
Width: 600
Flags: W
HStem: 0 41<87 96 152 211 399 463 521 522> 376 41<246 246 246 292 478 517 573 573 573 579>
VStem: 158 165 367 187<17.5 24> 446 164
Fore
375 219 m 1
 521 41 l 1
 531 41 l 2
 548 41 554 37 554 25 c 0
 554 10 541 0 522 0 c 2
 390 0 l 2
 374 0 367 5 367 16 c 0
 367 32 379 41 399 41 c 2
 463 41 l 1
 340 190 l 1
 152 41 l 1
 220 41 l 2
 237 41 243 37 243 25 c 0
 243 10 230 0 211 0 c 2
 78 0 l 2
 62 0 55 5 55 16 c 0
 55 32 67 41 87 41 c 2
 96 41 l 1
 318 219 l 1
 188 376 l 1
 181 376 l 2
 165 376 158 381 158 392 c 0
 158 408 170 417 190 417 c 2
 301 417 l 2
 318 417 324 413 324 401 c 0
 324 386 312 376 292 376 c 2
 246 376 l 1
 352 246 l 1
 517 376 l 1
 469 376 l 2
 453 376 446 381 446 392 c 0
 446 408 458 417 478 417 c 2
 588 417 l 2
 605 417 611 413 611 401 c 0
 611 386 599 376 579 376 c 2
 573 376 l 1
 375 219 l 1
EndSplineSet
EndChar
StartChar: y
Encoding: 121 121
Width: 600
Flags: MW
HStem: -186 41<54 180 222 278> 376 41<167 175 221 221 221 273 501 546 589 589 589 602>
VStem: 135 169 469 164
Fore
282 0 m 1
 175 376 l 1
 159 376 l 2
 142 376 135 381 135 392 c 0
 135 408 147 417 167 417 c 2
 282 417 l 2
 298 417 305 412 305 401 c 0
 305 386 293 376 273 376 c 2
 221 376 l 1
 315 45 l 1
 546 376 l 1
 492 376 l 2
 476 376 469 381 469 393 c 0
 469 407 481 417 501 417 c 2
 611 417 l 2
 627 417 634 412 634 401 c 0
 634 386 622 376 602 376 c 2
 589 376 l 1
 222 -145 l 1
 286 -145 l 2
 304 -145 310 -149 310 -161 c 0
 310 -176 297 -186 278 -186 c 2
 45 -186 l 2
 29 -186 22 -181 22 -170 c 0
 22 -154 34 -145 54 -145 c 2
 180 -145 l 1
 282 0 l 1
EndSplineSet
EndChar
StartChar: z
Encoding: 122 122
Width: 600
Flags: MW
HStem: 0 41<180 457> 376 41<245 497 245 245>
Fore
563 417 m 1
 555 381 l 1
 180 41 l 1
 457 41 l 1
 469 97 l 2
 473 115 482 124 496 124 c 0
 505 124 512 117 512 109 c 0
 512 106 512 104 511 101 c 2
 510 97 l 1
 489 0 l 1
 115 0 l 1
 123 36 l 1
 497 376 l 1
 245 376 l 1
 233 321 l 2
 229 303 221 294 207 294 c 0
 199 294 191 301 191 309 c 1
 192 321 l 1
 213 417 l 1
 563 417 l 1
EndSplineSet
EndChar
StartChar: braceleft
Encoding: 123 123
Width: 600
Flags: W
VStem: 275 42<-48 -39> 316 42
Fore
428 499 m 1
 392 326 l 1
 383 285 366 262 329 240 c 1
 351 222 359 207 359 184 c 0
 359 177 358 165 355 154 c 1
 319 -19 l 1
 317 -24 317 -28 317 -35 c 0
 317 -61 335 -81 360 -83 c 0
 377 -85 382 -88 382 -100 c 0
 382 -114 369 -124 353 -124 c 0
 308 -124 275 -90 275 -43 c 0
 275 -35 276 -27 278 -19 c 1
 314 154 l 2
 315 159 316 165 316 170 c 0
 316 198 298 217 268 219 c 0
 253 219 248 224 248 235 c 0
 248 250 258 260 277 261 c 0
 313 263 343 289 351 326 c 2
 388 499 l 1
 400 558 453 604 509 604 c 0
 521 604 528 598 528 588 c 0
 528 573 519 565 497 563 c 0
 463 559 436 533 428 499 c 1
EndSplineSet
EndChar
StartChar: bar
Encoding: 124 124
Width: 600
Flags: W
Fore
442 577 m 1
 299 -97 l 2
 295 -115 286 -124 273 -124 c 0
 264 -124 257 -117 257 -109 c 0
 257 -107 258 -101 259 -97 c 2
 402 577 l 1
 406 594 415 604 428 604 c 0
 437 604 444 597 444 589 c 0
 444 586 444 585 442 577 c 1
EndSplineSet
EndChar
StartChar: braceright
Encoding: 125 125
Width: 600
Flags: W
VStem: 345 42 386 42<519.5 528>
Fore
275 -19 m 1
 311 154 l 1
 320 195 337 218 374 240 c 1
 352 258 344 274 344 296 c 0
 344 304 345 315 348 326 c 1
 384 499 l 1
 386 504 386 508 386 515 c 0
 386 541 368 561 343 563 c 0
 326 565 321 568 321 580 c 0
 321 594 334 604 350 604 c 0
 395 604 428 570 428 524 c 0
 428 515 427 507 425 499 c 1
 389 326 l 2
 388 321 387 315 387 311 c 0
 387 282 405 263 435 261 c 0
 450 261 455 256 455 245 c 0
 455 230 445 220 426 219 c 0
 390 217 360 191 352 154 c 2
 315 -19 l 1
 303 -78 250 -124 194 -124 c 0
 182 -124 175 -118 175 -108 c 0
 175 -93 184 -85 206 -83 c 0
 240 -79 267 -53 275 -19 c 1
EndSplineSet
EndChar
StartChar: asciitilde
Encoding: 126 126
Width: 600
Flags: MW
HStem: 212 41<432.5 449> 307 41<270.5 286.5>
Fore
558 330 m 0
 567 330 575 323 575 315 c 0
 575 306 566 294 541 271 c 0
 498 230 465 212 433 212 c 0
 402 212 383 224 332 277 c 0
 312 297 295 307 278 307 c 0
 251 307 239 299 183 242 c 1
 174 234 168 230 161 230 c 0
 152 230 145 237 145 245 c 0
 145 255 155 267 183 294 c 0
 226 333 254 348 287 348 c 0
 308 348 327 340 349 323 c 1
 372 301 l 1
 376 296 376 296 391 282 c 0
 417 258 425 253 440 253 c 0
 464 253 491 269 524 305 c 0
 544 327 549 330 558 330 c 0
EndSplineSet
EndChar
StartChar: exclamdown
Encoding: 161 161
Width: 600
Flags: MW
HStem: 317 100
VStem: 316 123<361.5 373>
Fore
227 -161 m 2
 315 165 l 1
 320 185 328 193 342 193 c 0
 350 193 357 186 357 178 c 0
 357 174 357 171 356 165 c 2
 305 -161 l 1
 299 -198 283 -216 254 -216 c 0
 236 -216 222 -203 222 -187 c 0
 222 -182 224 -173 227 -161 c 2
374 317 m 2
 362 317 l 2
 335 317 316 333 316 357 c 0
 316 389 347 417 383 417 c 2
 395 417 l 2
 421 417 439 401 439 378 c 0
 439 345 408 317 374 317 c 2
EndSplineSet
EndChar
StartChar: cent
Encoding: 162 162
Width: 600
Flags: MW
HStem: 363 115
VStem: 175 41<245 302.5>
Fore
385 496 m 1
 408 603 l 2
 412 621 421 630 434 630 c 0
 444 630 451 623 451 614 c 0
 451 611 451 611 449 603 c 1
 427 497 l 1
 465 497 503 483 523 461 c 1
 529 472 537 478 546 478 c 0
 557 478 563 472 563 461 c 0
 563 458 563 456 562 453 c 1
 549 392 l 2
 545 373 536 363 523 363 c 0
 518 363 507 371 507 375 c 1
 509 404 l 1
 509 409 494 431 484 438 c 0
 468 451 438 459 407 459 c 0
 305 459 216 375 216 277 c 0
 216 213 269 164 339 164 c 0
 386 164 440 181 477 207 c 0
 484 212 492 216 496 216 c 0
 503 216 512 208 512 202 c 0
 512 188 501 176 474 163 c 0
 432 142 388 129 348 127 c 1
 324 14 l 2
 320 -4 311 -13 297 -13 c 0
 289 -13 281 -6 281 2 c 0
 281 4 281 7 282 10 c 2
 283 14 l 1
 307 127 l 1
 227 137 175 194 175 273 c 0
 175 332 206 395 256 437 c 0
 292 468 326 483 385 496 c 1
EndSplineSet
EndChar
StartChar: sterling
Encoding: 163 163
Width: 600
Flags: MW
HStem: 0 40<109 113 113 117> 273 41<157 251 292 382> 537 41<397 430.5>
VStem: 245 42<387.5 417.5>
Fore
191 41 m 1
 443 41 l 2
 469 41 489 60 499 92 c 0
 504 108 512 115 525 115 c 0
 534 115 541 108 541 100 c 0
 541 86 529 59 514 41 c 0
 493 15 465 0 436 0 c 2
 113 0 l 2
 97 0 90 5 90 17 c 0
 90 30 101 40 117 40 c 0
 175 41 248 166 252 273 c 1
 148 273 l 2
 132 273 125 278 125 290 c 0
 125 305 137 314 157 314 c 2
 251 314 l 1
 246 353 245 373 245 393 c 0
 245 493 326 578 421 578 c 0
 457 578 487 565 511 539 c 0
 524 525 533 508 533 499 c 0
 533 488 520 476 508 476 c 0
 502 476 498 479 493 488 c 0
 473 522 448 537 413 537 c 0
 381 537 348 521 323 495 c 0
 297 466 287 439 287 396 c 0
 287 379 287 379 291 328 c 1
 292 314 l 1
 391 314 l 2
 408 314 414 310 414 298 c 0
 414 283 402 273 382 273 c 2
 292 273 l 1
 289 189 248 94 191 41 c 1
EndSplineSet
EndChar
StartChar: currency
Encoding: 164 164
Width: 600
Flags: MW
HStem: 127 41<308 345> 417 41<379.5 417>
VStem: 193 42<247.5 282> 489 43<303.5 339>
Fore
233 162 m 1
 165 106 l 2
 155 98 150 95 144 95 c 0
 134 95 127 102 127 111 c 0
 127 119 131 125 142 135 c 2
 210 191 l 1
 199 214 193 236 193 259 c 0
 193 305 217 358 253 394 c 1
 209 450 l 2
 204 456 202 461 202 465 c 0
 202 477 215 489 227 489 c 0
 234 489 238 487 244 478 c 1
 288 423 l 1
 323 446 360 458 399 458 c 0
 435 458 468 446 492 423 c 1
 559 478 l 2
 569 487 574 489 580 489 c 0
 590 489 597 482 597 473 c 0
 597 464 594 459 582 450 c 2
 515 394 l 1
 527 373 532 351 532 327 c 0
 532 280 510 230 471 191 c 1
 515 135 l 2
 516 134 516 134 521 119 c 1
 521 108 508 95 495 95 c 0
 490 95 485 98 479 106 c 2
 436 162 l 1
 400 138 364 127 326 127 c 0
 290 127 259 139 233 162 c 1
388 417 m 0
 310 417 235 344 235 267 c 0
 235 210 277 168 334 168 c 0
 414 168 489 241 489 318 c 0
 489 376 447 417 388 417 c 0
EndSplineSet
EndChar
StartChar: yen
Encoding: 165 165
Width: 600
Flags: MW
HStem: 0 41<203 289 330 407> 141 37<187 310 359 482> 238 37<208 324 392 503> 522 41<198 213 260 260 260 299 532 562 609 609 609 633>
VStem: 166 164 500 165<539 546.5>
Fore
372 238 m 1
 359 178 l 1
 490 178 l 2
 502 178 508 174 508 167 c 0
 508 150 499 141 482 141 c 2
 351 141 l 1
 330 41 l 1
 416 41 l 2
 433 41 439 37 439 25 c 0
 439 10 426 0 407 0 c 2
 194 0 l 2
 178 0 171 5 171 16 c 0
 171 32 183 41 203 41 c 2
 289 41 l 1
 310 141 l 1
 180 141 l 2
 167 141 161 145 161 153 c 0
 161 170 170 178 187 178 c 2
 318 178 l 1
 331 238 l 1
 200 238 l 2
 187 238 182 241 182 250 c 0
 182 267 190 275 208 275 c 2
 324 275 l 1
 213 522 l 1
 189 522 l 2
 172 522 166 527 166 538 c 0
 166 554 178 563 198 563 c 2
 308 563 l 2
 325 563 331 559 331 547 c 0
 331 532 319 522 299 522 c 2
 260 522 l 1
 363 295 l 1
 562 522 l 1
 523 522 l 2
 506 522 500 527 500 539 c 0
 500 554 512 563 532 563 c 2
 642 563 l 2
 659 563 665 559 665 546 c 0
 665 532 653 522 633 522 c 2
 609 522 l 1
 392 275 l 1
 510 275 l 2
 523 275 529 272 529 264 c 0
 529 246 520 238 503 238 c 2
 372 238 l 1
EndSplineSet
EndChar
StartChar: brokenbar
Encoding: 166 166
Width: 600
Flags: W
Fore
442 577 m 1
 385 310 l 2
 381 292 373 283 360 283 c 0
 351 283 344 290 344 298 c 1
 345 310 l 1
 402 577 l 1
 406 594 415 604 428 604 c 0
 437 604 444 597 444 589 c 0
 444 586 444 585 442 577 c 1
356 170 m 1
 299 -97 l 2
 295 -115 286 -124 273 -124 c 0
 264 -124 257 -117 257 -109 c 0
 257 -107 258 -101 259 -97 c 2
 315 170 l 1
 319 188 328 197 341 197 c 0
 350 197 357 190 357 182 c 1
 356 170 l 1
EndSplineSet
EndChar
StartChar: section
Encoding: 167 167
Width: 600
Flags: W
HStem: -62 40<141 298> -62 135<133.5 141> -62 40 563 40<412 574>
VStem: 140 44<336 364.5> 257 41<463 496.5> 416 42<42 79.5> 531 43
Fore
624 603 m 1
 601 494 l 1
 597 478 588 469 575 469 c 0
 565 469 557 476 558 484 c 0
 558 486 559 489 560 494 c 2
 574 563 l 1
 406 563 l 2
 351 563 298 519 298 474 c 0
 298 444 326 417 421 358 c 2
 470 327 l 2
 545 281 575 245 575 202 c 0
 575 175 562 150 538 132 c 0
 515 113 495 106 453 101 c 1
 457 91 458 84 458 75 c 0
 458 1 384 -62 298 -62 c 2
 91 -62 l 1
 115 49 l 1
 118 64 127 73 140 73 c 0
 150 73 157 67 157 58 c 1
 156 49 l 1
 141 -22 l 1
 306 -22 l 2
 364 -22 416 19 416 65 c 0
 416 95 385 127 309 175 c 2
 252 211 l 2
 174 260 140 301 140 345 c 0
 140 394 193 436 262 441 c 1
 258 451 257 458 257 468 c 0
 257 536 334 603 412 603 c 2
 624 603 l 1
445 290 m 2
 388 326 l 2
 332 361 308 379 286 403 c 1
 282 402 280 402 275 402 c 2
 268 402 l 2
 221 402 184 379 184 350 c 0
 184 322 219 285 285 243 c 2
 340 208 l 2
 389 177 414 157 429 139 c 1
 433 141 434 141 447 142 c 0
 497 143 531 163 531 192 c 0
 531 220 498 258 445 290 c 2
EndSplineSet
EndChar
StartChar: dieresis
Encoding: 168 168
Width: 600
Flags: MW
HStem: 511 100<303.5 314 524.5 535>
VStem: 258 102<555.5 566> 479 102<555.5 566>
Fore
319 611 m 0
 343 611 360 594 360 571 c 0
 360 540 330 511 298 511 c 0
 275 511 258 528 258 551 c 0
 258 581 288 611 319 611 c 0
540 611 m 0
 564 611 581 594 581 571 c 0
 581 540 551 511 519 511 c 0
 496 511 479 528 479 551 c 0
 479 581 509 611 540 611 c 0
EndSplineSet
EndChar
StartChar: copyright
Encoding: 169 169
Width: 600
Flags: W
HStem: -15 41<244 385.5> 111 36<308 346> 337 106 415 35<353 392> 537 41<334 475>
VStem: 57 42<170.5 308.5> 206 37<212.5 236.5> 621 42<254.5 392.5>
Fore
209 260 m 2
 219 305 l 1
 235 385 312 450 389 450 c 0
 420 450 441 443 471 421 c 1
 475 435 483 443 494 443 c 0
 502 443 508 437 508 429 c 0
 508 426 508 425 507 423 c 1
 494 358 l 1
 491 347 481 337 472 337 c 0
 466 337 461 341 457 348 c 1
 459 369 l 1
 459 370 446 389 443 393 c 0
 431 405 403 415 381 415 c 0
 325 415 267 364 254 302 c 2
 246 263 l 1
 244 255 243 247 243 239 c 0
 243 186 282 147 334 147 c 0
 370 147 400 161 434 194 c 0
 440 200 445 202 451 202 c 0
 459 202 465 197 465 189 c 0
 465 180 460 173 443 159 c 0
 408 128 366 111 326 111 c 0
 258 111 206 164 206 232 c 0
 206 241 207 251 209 260 c 2
426 578 m 0
 563 578 663 479 663 343 c 0
 663 158 485 -15 294 -15 c 0
 157 -15 57 85 57 220 c 0
 57 405 235 578 426 578 c 0
416 537 m 0
 252 537 99 388 99 229 c 0
 99 112 185 26 303 26 c 0
 468 26 621 175 621 334 c 0
 621 451 534 537 416 537 c 0
EndSplineSet
EndChar
StartChar: ordfeminine
Encoding: 170 170
Width: 600
Flags: W
HStem: 279 37<303.5 332.5> 282 37<466 484> 420 35<348.5 390.5> 537 37<407 426.5>
VStem: 229 37<338.5 367.5> 466 38<503.5 511>
Fore
421 282 m 1
 426 308 l 1
 381 286 352 279 313 279 c 0
 261 279 229 303 229 343 c 0
 229 404 300 455 385 455 c 0
 407 455 427 452 456 446 c 1
 465 490 l 2
 466 494 466 495 466 500 c 0
 466 522 443 537 410 537 c 0
 392 537 364 530 329 518 c 0
 319 514 318 514 315 514 c 0
 307 514 301 521 301 528 c 0
 301 538 306 545 317 550 c 0
 340 561 394 574 420 574 c 0
 470 574 504 547 504 506 c 0
 504 501 503 496 502 490 c 1
 466 319 l 1
 492 319 l 2
 505 319 511 314 511 305 c 0
 511 291 500 282 484 282 c 2
 421 282 l 1
435 350 m 1
 448 409 l 1
 434 415 402 420 379 420 c 0
 318 420 266 387 266 348 c 0
 266 329 287 316 320 316 c 0
 359 316 394 326 435 350 c 1
EndSplineSet
EndChar
StartChar: guillemotleft
Encoding: 171 171
Width: 600
Flags: W
Fore
108 209 m 1
 358 406 l 2
 368 414 374 417 381 417 c 0
 390 417 397 410 397 401 c 0
 397 393 395 389 382 377 c 2
 203 209 l 1
 310 40 l 1
 316 32 317 29 317 25 c 0
 317 12 305 0 292 0 c 0
 286 0 280 4 274 11 c 2
 108 209 l 1
337 209 m 1
 586 406 l 2
 597 414 603 417 610 417 c 0
 619 417 626 410 626 401 c 0
 626 393 624 389 611 377 c 2
 432 209 l 1
 539 40 l 1
 545 32 546 29 546 25 c 0
 546 12 534 0 521 0 c 0
 515 0 509 4 503 11 c 2
 337 209 l 1
EndSplineSet
EndChar
StartChar: logicalnot
Encoding: 172 172
Width: 600
Flags: MW
HStem: 397 41<192 571>
Fore
571 397 m 1
 183 397 l 2
 167 397 160 402 160 413 c 0
 160 429 172 438 192 438 c 2
 621 438 l 1
 569 195 l 1
 566 178 556 168 542 168 c 0
 534 168 526 175 526 183 c 0
 526 185 526 188 527 191 c 0
 528 193 528 195 528 195 c 1
 571 397 l 1
EndSplineSet
EndChar
StartChar: registered
Encoding: 174 174
Width: 600
Flags: MW
HStem: -15 41<244 385.5> 120 36<206 231 267 295 465 472> 258 36<296 352> 407 36<268 284 320 320 320 397> 537 41<334 475>
VStem: 57 42<170.5 308.5> 182 136 456 37<346 376> 621 42<254.5 392.5>
Fore
288 258 m 1
 267 156 l 1
 302 156 l 2
 313 156 319 151 319 142 c 0
 319 130 308 120 295 120 c 2
 199 120 l 2
 188 120 182 125 182 134 c 0
 182 146 193 156 206 156 c 2
 231 156 l 1
 284 407 l 1
 260 407 l 2
 249 407 243 412 243 421 c 0
 243 434 254 443 268 443 c 2
 405 443 l 2
 458 443 493 414 493 369 c 0
 493 323 457 283 404 269 c 1
 431 242 438 230 465 156 c 1
 480 156 l 2
 490 156 496 151 496 142 c 0
 496 130 485 120 472 120 c 2
 433 120 l 1
 413 198 385 246 352 258 c 1
 288 258 l 1
296 294 m 1
 352 294 l 2
 413 294 456 322 456 362 c 0
 456 390 433 407 397 407 c 2
 320 407 l 1
 296 294 l 1
426 578 m 0
 563 578 663 479 663 343 c 0
 663 158 485 -15 294 -15 c 0
 157 -15 57 85 57 220 c 0
 57 405 235 578 426 578 c 0
416 537 m 0
 252 537 99 388 99 229 c 0
 99 112 185 26 303 26 c 0
 468 26 621 175 621 334 c 0
 621 451 534 537 416 537 c 0
EndSplineSet
EndChar
StartChar: macron
Encoding: 175 175
Width: 600
Flags: MW
HStem: 536 40<305 532>
VStem: 273 291<552.5 559.5>
Fore
532 536 m 2
 296 536 l 2
 280 536 273 541 273 552 c 0
 273 567 285 576 305 576 c 2
 541 576 l 2
 557 576 564 571 564 560 c 0
 564 545 552 536 532 536 c 2
EndSplineSet
EndChar
StartChar: degree
Encoding: 176 176
Width: 600
Flags: MW
HStem: 346 41<358.5 416> 595 41<394.5 452>
VStem: 257 42<445.5 502.5> 511 42<480.5 536.5>
Fore
437 636 m 0
 504 636 553 587 553 521 c 0
 553 432 466 346 375 346 c 0
 306 346 257 394 257 462 c 0
 257 552 344 636 437 636 c 0
428 595 m 0
 361 595 299 535 299 470 c 0
 299 421 334 387 383 387 c 0
 449 387 511 448 511 513 c 0
 511 560 476 595 428 595 c 0
EndSplineSet
EndChar
StartChar: plusminus
Encoding: 177 177
Width: 600
Flags: W
HStem: 0 40<108 501> 301 40<171 343 393 565>
VStem: 76 457<16.5 23.5> 140 457<317.5 324.5>
Fore
384 301 m 1
 350 139 l 2
 346 121 337 112 324 112 c 0
 315 112 307 119 307 127 c 0
 307 130 307 131 309 139 c 1
 343 301 l 1
 163 301 l 2
 147 301 140 306 140 317 c 0
 140 332 152 341 171 341 c 2
 352 341 l 1
 386 502 l 2
 390 520 399 529 413 529 c 0
 421 529 429 522 429 514 c 0
 429 512 429 509 428 506 c 2
 427 502 l 1
 393 341 l 1
 573 341 l 2
 591 341 597 337 597 325 c 0
 597 310 585 301 565 301 c 2
 384 301 l 1
108 40 m 2
 510 40 l 2
 526 40 533 35 533 24 c 0
 533 9 521 0 501 0 c 2
 99 0 l 2
 83 0 76 5 76 16 c 0
 76 31 88 40 108 40 c 2
EndSplineSet
EndChar
StartChar: twosuperior
Encoding: 178 178
Width: 600
Flags: W
HStem: 259 36<282 432> 259 59<449.5 459> 259 36 576 36<408.5 434>
VStem: 477 37<509 537.5>
Fore
282 295 m 1
 432 295 l 1
 433 298 l 1
 435 310 444 318 455 318 c 0
 463 318 468 313 469 305 c 1
 469 298 l 1
 460 259 l 1
 230 259 l 1
 239 302 l 1
 397 425 l 1
 466 481 477 495 477 523 c 0
 477 552 450 576 418 576 c 0
 383 576 349 555 332 524 c 0
 327 513 320 508 311 508 c 0
 304 508 297 514 297 521 c 0
 297 531 309 551 326 568 c 0
 354 596 390 612 427 612 c 0
 475 612 514 575 514 530 c 0
 514 477 498 461 282 295 c 1
EndSplineSet
EndChar
StartChar: threesuperior
Encoding: 179 179
Width: 600
Flags: W
HStem: 251 36<341 382> 431 36 576 36<407.5 439>
VStem: 457 37<349.5 388> 479 37<520.5 544.5>
Fore
458 450 m 2
 452 446 l 1
 482 426 494 405 494 376 c 0
 494 312 422 251 348 251 c 0
 302 251 245 278 245 300 c 0
 245 311 255 321 266 321 c 0
 271 321 274 320 278 316 c 0
 303 295 326 287 356 287 c 0
 408 287 457 328 457 371 c 0
 457 405 425 430 380 431 c 0
 368 432 362 436 362 446 c 0
 362 458 373 467 387 467 c 2
 402 467 l 2
 444 467 479 496 479 531 c 0
 479 558 456 576 422 576 c 0
 393 576 367 566 348 549 c 0
 339 541 336 539 329 539 c 0
 321 539 315 545 315 553 c 0
 315 578 381 612 430 612 c 0
 481 612 516 582 516 538 c 0
 516 503 496 472 458 450 c 2
EndSplineSet
EndChar
StartChar: acute
Encoding: 180 180
Width: 600
Flags: W
Fore
560 599 m 2
 425 499 l 2
 416 493 410 490 405 490 c 0
 395 490 388 497 388 506 c 0
 388 515 392 520 405 530 c 2
 540 630 l 2
 550 637 555 639 561 639 c 0
 570 639 577 632 577 623 c 0
 577 614 573 608 560 599 c 2
EndSplineSet
EndChar
StartChar: mu
Encoding: 181 181
Width: 600
Flags: W
HStem: -16 40<237 287> 0 40<489 514> 377 40<159 205 454 520>
Fore
169 16 m 1
 129 -173 l 2
 125 -191 116 -200 102 -200 c 0
 93 -200 86 -193 86 -185 c 0
 86 -183 87 -178 88 -173 c 2
 205 377 l 1
 150 377 l 2
 134 377 127 382 127 393 c 0
 127 408 139 417 159 417 c 2
 254 417 l 1
 190 115 l 1
 188 107 187 98 187 94 c 0
 187 50 214 24 260 24 c 0
 329 24 395 53 464 115 c 1
 520 377 l 1
 445 377 l 2
 428 377 421 382 421 393 c 0
 421 408 433 417 454 417 c 2
 569 417 l 1
 489 40 l 1
 523 40 l 2
 539 40 546 36 546 24 c 0
 546 10 534 0 514 0 c 2
 439 0 l 1
 452 59 l 1
 389 10 320 -16 254 -16 c 0
 214 -16 191 -7 169 16 c 1
EndSplineSet
EndChar
StartChar: paragraph
Encoding: 182 182
Width: 600
Flags: MW
HStem: -62 41<182 280 433 487> 563 41<445 517 445 445 557 618 557 557>
VStem: 152 185 367 149
Fore
557 563 m 1
 433 -21 l 1
 495 -21 l 2
 510 -21 517 -26 517 -37 c 0
 517 -52 505 -62 487 -62 c 2
 388 -62 l 2
 374 -62 367 -57 367 -45 c 0
 367 -33 378 -22 393 -21 c 1
 517 563 l 1
 445 563 l 1
 321 -21 l 1
 332 -22 338 -27 338 -37 c 0
 338 -52 326 -62 308 -62 c 2
 174 -62 l 2
 159 -62 152 -56 152 -46 c 0
 152 -31 164 -21 182 -21 c 2
 280 -21 l 1
 340 260 l 1
 294 263 261 271 234 284 c 0
 189 307 163 343 163 386 c 0
 163 391 164 399 166 406 c 1
 176 453 l 2
 195 543 297 604 427 604 c 2
 627 604 l 2
 641 604 648 599 648 588 c 0
 648 573 636 563 618 563 c 2
 557 563 l 1
350 307 m 1
 403 558 l 1
 328 553 258 505 245 451 c 1
 237 414 l 1
 236 408 235 403 235 400 c 0
 232 354 282 314 350 307 c 1
EndSplineSet
EndChar
StartChar: periodcentered
Encoding: 183 183
Width: 600
Flags: MW
HStem: 217 131
VStem: 285 151<275 290>
Fore
369 348 m 2
 380 348 l 2
 413 348 436 327 436 296 c 0
 436 254 396 217 352 217 c 2
 341 217 l 2
 308 217 285 238 285 269 c 0
 285 311 325 348 369 348 c 2
EndSplineSet
EndChar
StartChar: cedilla
Encoding: 184 184
Width: 600
Flags: MW
HStem: -173 38<260.5 282.5> -81 81<274 278>
VStem: 319 36
Fore
274 0 m 1
 312 0 l 1
 302 -47 l 1
 338 -48 356 -63 356 -93 c 0
 356 -138 315 -173 262 -173 c 0
 225 -173 181 -154 181 -138 c 0
 181 -125 192 -114 205 -114 c 0
 210 -114 213 -115 220 -119 c 0
 240 -131 253 -135 268 -135 c 0
 297 -135 319 -121 319 -101 c 0
 319 -88 305 -81 278 -81 c 2
 257 -81 l 1
 274 0 l 1
EndSplineSet
EndChar
StartChar: onesuperior
Encoding: 185 185
Width: 600
Flags: MW
HStem: 259 36<285 345 381 445>
VStem: 249 220<275 281>
Fore
449 612 m 1
 381 295 l 1
 452 295 l 2
 463 295 469 290 469 281 c 0
 469 269 458 259 445 259 c 2
 266 259 l 2
 255 259 249 264 249 273 c 0
 249 289 260 295 285 295 c 2
 345 295 l 1
 402 563 l 1
 333 542 l 2
 330 541 326 541 323 541 c 0
 316 541 310 548 310 555 c 0
 310 560 313 566 317 570 c 0
 322 575 339 580 449 612 c 1
EndSplineSet
EndChar
StartChar: ordmasculine
Encoding: 186 186
Width: 600
Flags: MW
HStem: 284 37<343.5 404> 540 37<381.5 442>
VStem: 243 38<383 442> 505 38<419 478.5>
Fore
424 577 m 0
 494 577 543 529 543 460 c 0
 543 369 454 284 360 284 c 0
 293 284 243 333 243 400 c 0
 243 491 331 577 424 577 c 0
416 540 m 0
 347 540 281 476 281 408 c 0
 281 358 318 321 369 321 c 0
 439 321 505 385 505 453 c 0
 505 504 468 540 416 540 c 0
EndSplineSet
EndChar
StartChar: guillemotright
Encoding: 187 187
Width: 600
Flags: W
Fore
355 208 m 1
 107 11 l 2
 97 3 90 0 83 0 c 0
 74 0 67 6 67 16 c 0
 67 24 69 28 82 40 c 2
 260 208 l 1
 154 377 l 2
 148 386 147 388 147 392 c 0
 147 405 159 417 172 417 c 0
 178 417 184 413 190 406 c 2
 355 208 l 1
585 208 m 1
 336 11 l 2
 326 3 320 0 313 0 c 0
 304 0 297 7 297 16 c 0
 297 24 300 28 312 40 c 2
 490 208 l 1
 384 377 l 1
 378 385 377 388 377 392 c 0
 377 405 389 417 402 417 c 0
 408 417 414 413 420 406 c 2
 585 208 l 1
EndSplineSet
EndChar
StartChar: onequarter
Encoding: 188 188
Width: 600
Flags: MW
HStem: 0 36<487 517 553 559> 93 36<429 529 573 579> 259 37<98 117.5>
VStem: 74 220 456 127
Fore
274 612 m 1
 206 295 l 1
 277 295 l 2
 289 295 295 290 295 281 c 0
 295 269 284 259 270 259 c 2
 91 259 l 2
 80 259 74 264 74 273 c 0
 74 288 87 296 109 296 c 0
 126 296 147 296 170 295 c 1
 227 563 l 1
 158 542 l 2
 154 541 151 541 148 541 c 0
 141 541 135 548 135 555 c 0
 135 572 135 572 274 612 c 1
593 477 m 2
 154 63 l 2
 144 53 140 51 133 51 c 0
 124 51 117 58 117 67 c 0
 117 73 120 79 130 88 c 2
 569 502 l 2
 580 512 583 514 589 514 c 0
 598 514 605 507 605 498 c 0
 605 492 601 484 593 477 c 2
529 93 m 1
 380 93 l 1
 388 127 l 1
 562 345 l 1
 619 345 l 1
 573 129 l 1
 586 129 l 2
 598 129 604 124 604 115 c 0
 604 99 593 93 565 93 c 1
 553 36 l 1
 567 36 l 2
 578 36 584 31 584 22 c 0
 584 10 573 0 559 0 c 2
 473 0 l 2
 462 0 456 5 456 14 c 0
 456 28 468 37 487 36 c 2
 517 36 l 1
 529 93 l 1
537 129 m 1
 575 309 l 1
 574 309 l 1
 429 129 l 1
 537 129 l 1
EndSplineSet
EndChar
StartChar: onehalf
Encoding: 189 189
Width: 600
Flags: W
HStem: 0 36<395 545> 259 37<106 125.5> 317 36<521.5 547>
VStem: 82 219 590 37<250 278.5>
Fore
587 477 m 2
 148 63 l 2
 138 53 134 51 127 51 c 0
 118 51 111 58 111 67 c 0
 111 73 114 79 124 88 c 2
 562 502 l 1
 574 512 577 514 583 514 c 0
 592 514 599 507 599 498 c 0
 599 492 595 485 587 477 c 2
281 612 m 1
 214 295 l 1
 285 295 l 2
 296 295 302 290 302 281 c 0
 302 269 291 259 278 259 c 2
 99 259 l 2
 88 259 82 264 82 273 c 0
 82 288 95 296 117 296 c 0
 134 296 155 296 178 295 c 1
 235 563 l 1
 166 542 l 2
 162 541 159 541 156 541 c 0
 149 541 143 548 143 555 c 0
 143 572 143 572 281 612 c 1
395 36 m 1
 545 36 l 1
 546 39 l 1
 548 51 558 59 568 59 c 0
 576 59 584 53 583 46 c 2
 583 46 582 43 582 39 c 1
 573 0 l 1
 343 0 l 1
 353 43 l 1
 510 166 l 1
 579 222 590 236 590 264 c 0
 590 293 563 317 531 317 c 0
 496 317 462 296 445 265 c 0
 440 254 433 249 424 249 c 0
 417 249 410 255 410 262 c 0
 410 273 422 292 438 309 c 1
 467 337 503 353 540 353 c 0
 588 353 627 316 627 271 c 0
 627 218 611 202 395 36 c 1
EndSplineSet
EndChar
StartChar: threequarters
Encoding: 190 190
Width: 600
Flags: W
HStem: 0 36<487 517 553 559> 93 36<429 530 573 579.5> 251 36<166 207> 431 36 576 36<232.5 264>
VStem: 282 37<349.5 388> 304 37<519.5 544.5> 456 127
Fore
212 467 m 2
 228 467 l 2
 269 467 304 496 304 531 c 0
 304 558 281 576 247 576 c 0
 218 576 192 566 173 549 c 0
 164 541 161 539 154 539 c 0
 146 539 140 545 140 553 c 0
 140 578 206 612 255 612 c 0
 306 612 341 582 341 538 c 0
 341 501 321 472 277 446 c 1
 307 426 319 405 319 376 c 0
 319 312 247 251 173 251 c 0
 127 251 70 278 70 300 c 0
 70 311 80 321 91 321 c 0
 96 321 99 320 103 316 c 0
 128 295 151 287 181 287 c 0
 233 287 282 328 282 371 c 0
 282 405 250 430 205 431 c 0
 193 432 187 436 187 446 c 0
 187 458 198 467 212 467 c 2
592 477 m 2
 153 63 l 2
 144 54 138 51 132 51 c 0
 123 51 116 58 116 67 c 0
 116 73 119 78 129 88 c 2
 568 502 l 2
 579 512 582 514 588 514 c 0
 597 514 604 507 604 498 c 0
 604 492 600 484 592 477 c 2
530 93 m 1
 381 93 l 1
 388 127 l 1
 562 345 l 1
 619 345 l 1
 573 129 l 1
 586 129 l 2
 598 129 604 124 604 115 c 0
 604 99 594 93 565 93 c 1
 553 36 l 1
 567 36 l 2
 578 36 584 31 584 22 c 0
 584 10 573 0 559 0 c 2
 473 0 l 2
 462 0 456 5 456 14 c 0
 456 28 468 37 487 36 c 2
 517 36 l 1
 530 93 l 1
537 129 m 1
 575 309 l 1
 574 309 l 1
 429 129 l 1
 537 129 l 1
EndSplineSet
EndChar
StartChar: questiondown
Encoding: 191 191
Width: 600
Flags: MW
HStem: -175 41<230.5 279> 317 100<374 381>
VStem: 105 42<-70 -28.5> 306 143<360.5 373.5>
Fore
311 155 m 1
 320 196 l 2
 324 214 332 223 346 223 c 0
 355 223 362 216 362 208 c 1
 361 196 l 1
 346 128 l 1
 204 73 147 25 147 -42 c 0
 147 -98 194 -134 267 -134 c 0
 313 -134 345 -126 404 -100 c 1
 412 -59 l 1
 416 -41 425 -32 438 -32 c 0
 448 -32 455 -39 455 -48 c 0
 455 -50 454 -54 453 -59 c 2
 439 -126 l 1
 425 -132 418 -135 407 -139 c 0
 338 -167 305 -175 253 -175 c 0
 161 -175 105 -129 105 -53 c 0
 105 -4 130 46 171 79 c 0
 205 105 242 125 311 155 c 1
381 317 m 2
 353 317 l 2
 323 317 306 332 306 357 c 0
 306 390 337 417 374 417 c 2
 402 417 l 2
 431 417 449 402 449 377 c 0
 449 344 418 317 381 317 c 2
EndSplineSet
EndChar
StartChar: Agrave
Encoding: 192 192
Width: 600
Flags: MW
HStem: 0 41<45 76 117 187 417 493 536 564> 188 41<227 462> 522 41<246 357 397 397 397 412>
VStem: 13 206<17.5 24.5> 385 210
Fore
468 188 m 1
 203 188 l 1
 117 41 l 1
 196 41 l 2
 213 41 219 37 219 25 c 0
 219 10 206 0 187 0 c 2
 36 0 l 2
 20 0 13 5 13 17 c 0
 13 32 25 41 45 41 c 2
 76 41 l 1
 357 522 l 1
 237 522 l 2
 221 522 214 527 214 538 c 0
 214 554 226 563 246 563 c 2
 449 563 l 1
 536 41 l 1
 573 41 l 2
 590 41 596 37 596 25 c 0
 596 10 584 0 564 0 c 2
 408 0 l 2
 392 0 385 5 385 16 c 0
 385 32 397 41 417 41 c 2
 493 41 l 1
 468 188 l 1
462 229 m 1
 412 522 l 1
 397 522 l 1
 227 229 l 1
 462 229 l 1
371 780 m 2
 463 680 l 2
 468 674 473 668 472 666 c 0
 469 656 467 650 466 650 c 1
 462 644 453 640 447 640 c 0
 440 640 435 643 431 649 c 1
 338 749 l 2
 333 754 328 761 329 763 c 0
 334 782 341 789 354 789 c 0
 360 789 365 786 371 780 c 2
EndSplineSet
EndChar
StartChar: Aacute
Encoding: 193 193
Width: 600
Flags: MW
HStem: 0 41<45 76 117 187 417 493 536 564> 188 41<227 462> 522 41<246 357 397 397 397 412>
VStem: 13 206<17.5 24.5> 385 210
Fore
468 188 m 1
 203 188 l 1
 117 41 l 1
 196 41 l 2
 213 41 219 37 219 25 c 0
 219 10 206 0 187 0 c 2
 36 0 l 2
 20 0 13 5 13 17 c 0
 13 32 25 41 45 41 c 2
 76 41 l 1
 357 522 l 1
 237 522 l 2
 221 522 214 527 214 538 c 0
 214 554 226 563 246 563 c 2
 449 563 l 1
 536 41 l 1
 573 41 l 2
 590 41 596 37 596 25 c 0
 596 10 584 0 564 0 c 2
 408 0 l 2
 392 0 385 5 385 16 c 0
 385 32 397 41 417 41 c 2
 493 41 l 1
 468 188 l 1
462 229 m 1
 412 522 l 1
 397 522 l 1
 227 229 l 1
 462 229 l 1
530 749 m 2
 396 649 l 2
 390 644 380 640 376 640 c 0
 365 640 358 647 358 657 c 0
 358 664 363 671 375 680 c 2
 510 780 l 2
 519 787 524 789 531 789 c 0
 540 789 547 781 547 772 c 0
 547 765 542 758 530 749 c 2
EndSplineSet
EndChar
StartChar: Acircumflex
Encoding: 194 194
Width: 600
Flags: MW
HStem: 0 41<45 76 117 187 417 493 536 564> 188 41<227 462> 522 41<246 357 397 397 397 412>
VStem: 13 206<17.5 24.5> 385 210
Fore
468 188 m 1
 203 188 l 1
 117 41 l 1
 196 41 l 2
 213 41 219 37 219 25 c 0
 219 10 206 0 187 0 c 2
 36 0 l 2
 20 0 13 5 13 17 c 0
 13 32 25 41 45 41 c 2
 76 41 l 1
 357 522 l 1
 237 522 l 2
 221 522 214 527 214 538 c 0
 214 554 226 563 246 563 c 2
 449 563 l 1
 536 41 l 1
 573 41 l 2
 590 41 596 37 596 25 c 0
 596 10 584 0 564 0 c 2
 408 0 l 2
 392 0 385 5 385 16 c 0
 385 32 397 41 417 41 c 2
 493 41 l 1
 468 188 l 1
462 229 m 1
 412 522 l 1
 397 522 l 1
 227 229 l 1
 462 229 l 1
439 789 m 1
 549 680 l 2
 558 672 559 670 559 664 c 0
 559 652 546 640 532 640 c 0
 528 640 524 642 518 648 c 2
 429 739 l 1
 304 648 l 2
 300 645 288 640 285 640 c 0
 276 640 268 647 268 656 c 0
 268 664 274 674 283 678 c 2
 287 680 l 1
 439 789 l 1
EndSplineSet
EndChar
StartChar: Atilde
Encoding: 195 195
Width: 600
Flags: MW
HStem: 0 41<45 76 117 187 417 493 536 564> 188 41<227 462> 522 41<246 357 397 397 397 412> 666 41<479.5 491.5> 714 41<359.5 371>
VStem: 13 206<17.5 24.5> 385 210
Fore
468 188 m 1
 203 188 l 1
 117 41 l 1
 196 41 l 2
 213 41 219 37 219 25 c 0
 219 10 206 0 187 0 c 2
 36 0 l 2
 20 0 13 5 13 17 c 0
 13 32 25 41 45 41 c 2
 76 41 l 1
 357 522 l 1
 237 522 l 2
 221 522 214 527 214 538 c 0
 214 554 226 563 246 563 c 2
 449 563 l 1
 536 41 l 1
 573 41 l 2
 590 41 596 37 596 25 c 0
 596 10 584 0 564 0 c 2
 408 0 l 2
 392 0 385 5 385 16 c 0
 385 32 397 41 417 41 c 2
 493 41 l 1
 468 188 l 1
462 229 m 1
 412 522 l 1
 397 522 l 1
 227 229 l 1
 462 229 l 1
568 753 m 0
 577 753 585 746 585 738 c 0
 585 728 581 723 563 708 c 0
 529 678 504 666 479 666 c 0
 457 666 440 673 405 697 c 0
 388 709 377 714 365 714 c 0
 345 714 334 707 299 677 c 0
 294 672 286 669 280 669 c 0
 271 669 264 676 264 684 c 0
 264 693 271 703 290 718 c 0
 324 745 347 755 372 755 c 0
 393 755 404 751 432 732 c 0
 463 712 473 707 486 707 c 0
 502 707 515 714 551 745 c 0
 558 751 563 753 568 753 c 0
EndSplineSet
EndChar
StartChar: Adieresis
Encoding: 196 196
Width: 600
Flags: W
HStem: 0 41<45 76 117 187 417 493 536 564> 188 41<227 462> 522 41<246 357 397 397 397 412> 661 101<308 316.5 529 538>
VStem: 13 206<17.5 24.5> 262 101<706 716.5> 385 210 483 101<705.5 716.5>
Fore
468 188 m 1
 203 188 l 1
 117 41 l 1
 196 41 l 2
 213 41 219 37 219 25 c 0
 219 10 206 0 187 0 c 2
 36 0 l 2
 20 0 13 5 13 17 c 0
 13 32 25 41 45 41 c 2
 76 41 l 1
 357 522 l 1
 237 522 l 2
 221 522 214 527 214 538 c 0
 214 554 226 563 246 563 c 2
 449 563 l 1
 536 41 l 1
 573 41 l 2
 590 41 596 37 596 25 c 0
 596 10 584 0 564 0 c 2
 408 0 l 2
 392 0 385 5 385 16 c 0
 385 32 397 41 417 41 c 2
 493 41 l 1
 468 188 l 1
462 229 m 1
 412 522 l 1
 397 522 l 1
 227 229 l 1
 462 229 l 1
323 762 m 0
 346 762 363 745 363 721 c 0
 363 691 332 661 301 661 c 0
 280 661 262 680 262 702 c 0
 262 731 293 762 323 762 c 0
544 762 m 0
 567 762 584 745 584 721 c 0
 584 690 554 661 522 661 c 0
 501 661 483 680 483 702 c 0
 483 731 514 762 544 762 c 0
EndSplineSet
EndChar
StartChar: Aring
Encoding: 197 197
Width: 600
Flags: W
HStem: 0 41<45 76 117 187 417 493 536 564> 188 41<227 462> 522 41<246 357 397 397 397 412> 630 33<403.5 436.5> 778 33<423 456>
VStem: 13 206<17.5 24.5> 335 34<696 726.5> 385 210 491 34<714 745.5>
Fore
468 188 m 1
 203 188 l 1
 117 41 l 1
 196 41 l 2
 213 41 219 37 219 25 c 0
 219 10 206 0 187 0 c 2
 36 0 l 2
 20 0 13 5 13 17 c 0
 13 32 25 41 45 41 c 2
 76 41 l 1
 357 522 l 1
 237 522 l 2
 221 522 214 527 214 538 c 0
 214 554 226 563 246 563 c 2
 449 563 l 1
 536 41 l 1
 573 41 l 2
 590 41 596 37 596 25 c 0
 596 10 584 0 564 0 c 2
 408 0 l 2
 392 0 385 5 385 16 c 0
 385 32 397 41 417 41 c 2
 493 41 l 1
 468 188 l 1
462 229 m 1
 412 522 l 1
 397 522 l 1
 227 229 l 1
 462 229 l 1
449 811 m 0
 493 811 525 781 525 739 c 0
 525 683 470 630 410 630 c 0
 367 630 335 661 335 703 c 0
 335 758 391 811 449 811 c 0
442 778 m 0
 404 778 369 744 369 709 c 0
 369 683 390 663 417 663 c 0
 456 663 491 696 491 732 c 0
 491 759 470 778 442 778 c 0
EndSplineSet
EndChar
StartChar: AE
Encoding: 198 198
Width: 600
Flags: MW
HStem: 0 41<46 83 124 141 254 306 347 558> 189 41<216 337> 273 41<405 474> 522 41<264 318 358 358 358 408 449 449 449 640>
VStem: 14 158
Fore
337 189 m 1
 196 189 l 1
 124 41 l 1
 150 41 l 2
 167 41 173 37 173 25 c 0
 173 10 161 0 141 0 c 2
 37 0 l 2
 21 0 14 5 14 16 c 0
 14 32 26 41 46 41 c 2
 83 41 l 1
 318 522 l 1
 255 522 l 2
 239 522 232 527 232 538 c 0
 232 554 244 563 264 563 c 2
 690 563 l 1
 658 411 l 2
 654 393 645 384 631 384 c 0
 622 384 615 391 615 399 c 0
 615 401 616 407 617 411 c 2
 640 522 l 1
 449 522 l 1
 405 314 l 1
 483 314 l 1
 489 342 l 2
 493 360 501 369 515 369 c 0
 524 369 531 362 531 354 c 0
 531 351 531 350 529 342 c 1
 509 246 l 1
 505 228 496 219 483 219 c 0
 474 219 467 226 467 235 c 0
 467 238 467 241 469 246 c 1
 474 273 l 1
 396 273 l 1
 347 41 l 1
 558 41 l 1
 578 134 l 1
 580 152 589 160 604 160 c 0
 613 160 620 153 620 144 c 1
 619 134 l 1
 590 0 l 1
 245 0 l 2
 229 0 222 5 222 17 c 0
 222 32 234 41 254 41 c 2
 306 41 l 1
 337 189 l 1
346 230 m 1
 408 522 l 1
 358 522 l 1
 216 230 l 1
 346 230 l 1
EndSplineSet
EndChar
StartChar: Ccedilla
Encoding: 199 199
Width: 600
Flags: MW
HStem: -173 38<265.5 287.5> -16 41<314 314 314 327> 536 40<394.5 441.5>
VStem: 110 42<163 204> 324 36
Fore
314 -16 m 1
 307 -47 l 1
 343 -48 361 -63 361 -93 c 0
 361 -138 320 -173 267 -173 c 0
 230 -173 186 -154 186 -138 c 0
 186 -125 198 -114 210 -114 c 0
 215 -114 217 -115 225 -119 c 0
 244 -131 258 -135 273 -135 c 0
 302 -135 324 -121 324 -101 c 0
 324 -88 311 -81 283 -81 c 2
 262 -81 l 1
 277 -12 l 1
 235 -1 214 8 189 28 c 0
 140 67 110 130 110 196 c 0
 110 212 112 227 115 242 c 2
 132 325 l 1
 145 386 188 455 242 502 c 0
 296 550 361 576 428 576 c 0
 494 576 549 552 586 507 c 1
 592 536 l 2
 596 554 605 563 618 563 c 0
 628 563 635 557 635 548 c 0
 635 546 634 541 633 536 c 2
 609 424 l 1
 606 406 596 396 583 396 c 0
 577 396 571 400 566 408 c 1
 570 446 l 1
 570 449 546 486 538 494 c 0
 515 518 464 536 419 536 c 0
 309 536 197 438 172 319 c 2
 157 248 l 2
 154 233 152 217 152 203 c 0
 152 101 227 25 328 25 c 0
 397 25 454 51 522 115 c 0
 530 123 534 125 542 125 c 0
 551 125 558 119 558 111 c 0
 558 100 551 91 524 68 c 0
 465 17 388 -16 327 -16 c 2
 314 -16 l 1
EndSplineSet
EndChar
StartChar: Egrave
Encoding: 200 200
Width: 600
Flags: MW
HStem: 0 41<79 133 174 488> 272 41<232 368> 522 41<190 235 276 276 276 569>
Fore
223 272 m 1
 174 41 l 1
 488 41 l 1
 513 160 l 2
 517 178 526 187 540 187 c 0
 549 187 556 180 556 172 c 0
 556 169 555 165 554 160 c 2
 520 0 l 1
 70 0 l 2
 54 0 47 5 47 17 c 0
 47 32 59 41 79 41 c 2
 133 41 l 1
 235 522 l 1
 181 522 l 2
 165 522 158 527 158 539 c 0
 158 554 170 563 190 563 c 2
 619 563 l 1
 589 424 l 1
 586 406 577 397 563 397 c 0
 554 397 547 404 547 412 c 1
 548 424 l 1
 569 522 l 1
 276 522 l 1
 232 313 l 1
 377 313 l 1
 386 358 l 1
 390 376 399 385 412 385 c 0
 422 385 429 378 429 370 c 0
 429 368 428 362 427 358 c 2
 399 227 l 1
 396 209 387 200 373 200 c 0
 364 200 357 207 357 215 c 1
 358 227 l 1
 368 272 l 1
 223 272 l 1
383 780 m 2
 475 680 l 2
 480 674 485 668 484 666 c 0
 481 656 479 650 478 650 c 1
 474 644 465 640 459 640 c 0
 452 640 447 643 443 649 c 1
 350 749 l 2
 345 754 340 761 341 763 c 0
 346 782 353 789 366 789 c 0
 372 789 377 786 383 780 c 2
EndSplineSet
EndChar
StartChar: Eacute
Encoding: 201 201
Width: 600
Flags: MW
HStem: 0 41<79 133 174 488> 272 41<232 368> 522 41<190 235 276 276 276 569>
Fore
223 272 m 1
 174 41 l 1
 488 41 l 1
 513 160 l 2
 517 178 526 187 540 187 c 0
 549 187 556 180 556 172 c 0
 556 169 555 165 554 160 c 2
 520 0 l 1
 70 0 l 2
 54 0 47 5 47 17 c 0
 47 32 59 41 79 41 c 2
 133 41 l 1
 235 522 l 1
 181 522 l 2
 165 522 158 527 158 539 c 0
 158 554 170 563 190 563 c 2
 619 563 l 1
 589 424 l 1
 586 406 577 397 563 397 c 0
 554 397 547 404 547 412 c 1
 548 424 l 1
 569 522 l 1
 276 522 l 1
 232 313 l 1
 377 313 l 1
 386 358 l 1
 390 376 399 385 412 385 c 0
 422 385 429 378 429 370 c 0
 429 368 428 362 427 358 c 2
 399 227 l 1
 396 209 387 200 373 200 c 0
 364 200 357 207 357 215 c 1
 358 227 l 1
 368 272 l 1
 223 272 l 1
548 749 m 2
 414 649 l 2
 408 644 398 640 394 640 c 0
 383 640 376 647 376 657 c 0
 376 664 381 671 393 680 c 2
 528 780 l 2
 537 787 542 789 549 789 c 0
 558 789 565 781 565 772 c 0
 565 765 560 758 548 749 c 2
EndSplineSet
EndChar
StartChar: Ecircumflex
Encoding: 202 202
Width: 600
Flags: MW
HStem: 0 41<79 133 174 488> 272 41<232 368> 522 41<190 235 276 276 276 569>
Fore
223 272 m 1
 174 41 l 1
 488 41 l 1
 513 160 l 2
 517 178 526 187 540 187 c 0
 549 187 556 180 556 172 c 0
 556 169 555 165 554 160 c 2
 520 0 l 1
 70 0 l 2
 54 0 47 5 47 17 c 0
 47 32 59 41 79 41 c 2
 133 41 l 1
 235 522 l 1
 181 522 l 2
 165 522 158 527 158 539 c 0
 158 554 170 563 190 563 c 2
 619 563 l 1
 589 424 l 1
 586 406 577 397 563 397 c 0
 554 397 547 404 547 412 c 1
 548 424 l 1
 569 522 l 1
 276 522 l 1
 232 313 l 1
 377 313 l 1
 386 358 l 1
 390 376 399 385 412 385 c 0
 422 385 429 378 429 370 c 0
 429 368 428 362 427 358 c 2
 399 227 l 1
 396 209 387 200 373 200 c 0
 364 200 357 207 357 215 c 1
 358 227 l 1
 368 272 l 1
 223 272 l 1
457 789 m 1
 567 680 l 2
 576 672 577 670 577 664 c 0
 577 652 564 640 550 640 c 0
 546 640 542 642 536 648 c 2
 447 739 l 1
 322 648 l 2
 318 645 306 640 303 640 c 0
 294 640 286 647 286 656 c 0
 286 664 292 674 301 678 c 2
 305 680 l 1
 457 789 l 1
EndSplineSet
EndChar
StartChar: Edieresis
Encoding: 203 203
Width: 600
Flags: MW
HStem: 0 41<79 133 174 488> 272 41<232 368> 522 41<190 235 276 276 276 569> 661 101<327 335.5 548 557>
VStem: 281 101<706 716.5> 502 101<705.5 716.5>
Fore
223 272 m 1
 174 41 l 1
 488 41 l 1
 513 160 l 2
 517 178 526 187 540 187 c 0
 549 187 556 180 556 172 c 0
 556 169 555 165 554 160 c 2
 520 0 l 1
 70 0 l 2
 54 0 47 5 47 17 c 0
 47 32 59 41 79 41 c 2
 133 41 l 1
 235 522 l 1
 181 522 l 2
 165 522 158 527 158 539 c 0
 158 554 170 563 190 563 c 2
 619 563 l 1
 589 424 l 1
 586 406 577 397 563 397 c 0
 554 397 547 404 547 412 c 1
 548 424 l 1
 569 522 l 1
 276 522 l 1
 232 313 l 1
 377 313 l 1
 386 358 l 1
 390 376 399 385 412 385 c 0
 422 385 429 378 429 370 c 0
 429 368 428 362 427 358 c 2
 399 227 l 1
 396 209 387 200 373 200 c 0
 364 200 357 207 357 215 c 1
 358 227 l 1
 368 272 l 1
 223 272 l 1
342 762 m 0
 365 762 382 745 382 721 c 0
 382 691 351 661 320 661 c 0
 299 661 281 680 281 702 c 0
 281 731 312 762 342 762 c 0
563 762 m 0
 586 762 603 745 603 721 c 0
 603 690 573 661 541 661 c 0
 520 661 502 680 502 702 c 0
 502 731 533 762 563 762 c 0
EndSplineSet
EndChar
StartChar: Igrave
Encoding: 204 204
Width: 600
Flags: MW
HStem: 0 41<148 288 329 460> 522 41<259 390 431 571 431 431>
VStem: 117 375<17.5 24>
Fore
431 522 m 1
 329 41 l 1
 468 41 l 2
 486 41 492 37 492 25 c 0
 492 10 479 0 460 0 c 2
 140 0 l 2
 124 0 117 5 117 16 c 0
 117 32 129 41 148 41 c 2
 288 41 l 1
 390 522 l 1
 251 522 l 2
 235 522 228 527 228 538 c 0
 228 554 240 563 259 563 c 2
 579 563 l 2
 597 563 603 559 603 547 c 0
 603 532 590 522 571 522 c 2
 431 522 l 1
398 780 m 2
 490 680 l 2
 495 674 500 668 499 666 c 0
 496 656 494 650 493 650 c 1
 489 644 480 640 474 640 c 0
 467 640 462 643 458 649 c 1
 365 749 l 2
 360 754 355 761 356 763 c 0
 361 782 368 789 381 789 c 0
 387 789 392 786 398 780 c 2
EndSplineSet
EndChar
StartChar: Iacute
Encoding: 205 205
Width: 600
Flags: MW
HStem: 0 41<148 288 329 460> 522 41<259 390 431 571 431 431>
VStem: 117 375<17.5 24>
Fore
431 522 m 1
 329 41 l 1
 468 41 l 2
 486 41 492 37 492 25 c 0
 492 10 479 0 460 0 c 2
 140 0 l 2
 124 0 117 5 117 16 c 0
 117 32 129 41 148 41 c 2
 288 41 l 1
 390 522 l 1
 251 522 l 2
 235 522 228 527 228 538 c 0
 228 554 240 563 259 563 c 2
 579 563 l 2
 597 563 603 559 603 547 c 0
 603 532 590 522 571 522 c 2
 431 522 l 1
555 749 m 2
 421 649 l 2
 415 644 405 640 401 640 c 0
 390 640 383 647 383 657 c 0
 383 664 388 671 400 680 c 2
 535 780 l 2
 544 787 549 789 556 789 c 0
 565 789 572 781 572 772 c 0
 572 765 567 758 555 749 c 2
EndSplineSet
EndChar
StartChar: Icircumflex
Encoding: 206 206
Width: 600
Flags: MW
HStem: 0 41<148 288 329 460> 522 41<259 390 431 571 431 431>
VStem: 117 375<17.5 24>
Fore
431 522 m 1
 329 41 l 1
 468 41 l 2
 486 41 492 37 492 25 c 0
 492 10 479 0 460 0 c 2
 140 0 l 2
 124 0 117 5 117 16 c 0
 117 32 129 41 148 41 c 2
 288 41 l 1
 390 522 l 1
 251 522 l 2
 235 522 228 527 228 538 c 0
 228 554 240 563 259 563 c 2
 579 563 l 2
 597 563 603 559 603 547 c 0
 603 532 590 522 571 522 c 2
 431 522 l 1
466 789 m 1
 576 680 l 2
 585 672 586 670 586 664 c 0
 586 652 573 640 559 640 c 0
 555 640 551 642 545 648 c 2
 456 739 l 1
 331 648 l 2
 327 645 315 640 312 640 c 0
 303 640 295 647 295 656 c 0
 295 664 301 674 310 678 c 2
 314 680 l 1
 466 789 l 1
EndSplineSet
EndChar
StartChar: Idieresis
Encoding: 207 207
Width: 600
Flags: W
HStem: 0 41<148 288 329 460> 522 41<259 390 431 571 431 431> 661 101<335 343.5 556 565>
VStem: 117 375<17.5 24> 289 101<706 716.5> 510 101<705.5 716.5>
Fore
431 522 m 1
 329 41 l 1
 468 41 l 2
 486 41 492 37 492 25 c 0
 492 10 479 0 460 0 c 2
 140 0 l 2
 124 0 117 5 117 16 c 0
 117 32 129 41 148 41 c 2
 288 41 l 1
 390 522 l 1
 251 522 l 2
 235 522 228 527 228 538 c 0
 228 554 240 563 259 563 c 2
 579 563 l 2
 597 563 603 559 603 547 c 0
 603 532 590 522 571 522 c 2
 431 522 l 1
350 762 m 0
 373 762 390 745 390 721 c 0
 390 691 359 661 328 661 c 0
 307 661 289 680 289 702 c 0
 289 731 320 762 350 762 c 0
571 762 m 0
 594 762 611 745 611 721 c 0
 611 690 581 661 549 661 c 0
 528 661 510 680 510 702 c 0
 510 731 541 762 571 762 c 0
EndSplineSet
EndChar
StartChar: Eth
Encoding: 208 208
Width: 600
Flags: MW
HStem: 0 41<79 113 154 290> 272 41<94 162 212 365> 522 41<190 215 256 399 256 256>
VStem: 62 334 551 41<356.5 378>
Fore
162 272 m 1
 85 272 l 2
 69 272 62 277 62 288 c 0
 62 304 74 313 94 313 c 2
 171 313 l 1
 215 522 l 1
 181 522 l 2
 165 522 158 527 158 538 c 0
 158 554 170 563 190 563 c 2
 410 563 l 2
 516 563 592 481 592 366 c 0
 592 347 590 329 586 310 c 2
 574 254 l 2
 544 115 416 0 290 0 c 2
 70 0 l 2
 54 0 47 5 47 16 c 0
 47 32 59 41 79 41 c 2
 113 41 l 1
 162 272 l 1
256 522 m 1
 212 313 l 1
 374 313 l 2
 391 313 397 309 397 297 c 0
 397 282 385 272 365 272 c 2
 203 272 l 1
 154 41 l 1
 303 41 l 2
 398 41 509 140 531 245 c 1
 547 319 l 1
 550 331 551 345 551 357 c 0
 551 399 538 440 514 472 c 0
 488 507 453 522 399 522 c 2
 256 522 l 1
EndSplineSet
EndChar
StartChar: Ntilde
Encoding: 209 209
Width: 600
Flags: MW
HStem: 0 41<78 112 153 219> 522 41<169 214 505 571 612 612 612 646> 666 41<504.5 516.5> 714 41<384.5 396>
VStem: 46 205<17.5 24.5> 473 204
Fore
501 0 m 1
 449 0 l 1
 251 504 l 1
 153 41 l 1
 227 41 l 2
 244 41 251 37 251 25 c 0
 251 10 238 0 219 0 c 2
 69 0 l 2
 53 0 46 5 46 17 c 0
 46 32 58 41 78 41 c 2
 112 41 l 1
 214 522 l 1
 160 522 l 2
 143 522 137 527 137 539 c 0
 137 554 149 563 169 563 c 2
 275 563 l 1
 473 59 l 1
 571 522 l 1
 497 522 l 2
 480 522 473 527 473 538 c 0
 473 554 485 563 505 563 c 2
 655 563 l 2
 672 563 678 559 678 547 c 0
 678 532 666 522 646 522 c 2
 612 522 l 1
 501 0 l 1
593 753 m 0
 602 753 610 746 610 738 c 0
 610 728 606 723 588 708 c 0
 554 678 529 666 504 666 c 0
 482 666 465 673 430 697 c 0
 413 709 402 714 390 714 c 0
 370 714 359 708 324 677 c 0
 319 672 311 669 305 669 c 0
 296 669 289 675 289 684 c 0
 289 693 296 703 315 718 c 0
 349 744 372 755 397 755 c 0
 418 755 429 751 457 732 c 0
 489 712 498 707 511 707 c 0
 527 707 539 714 576 745 c 0
 583 751 588 753 593 753 c 0
EndSplineSet
EndChar
StartChar: Ograve
Encoding: 210 210
Width: 600
Flags: MW
HStem: -16 41<256.5 371.5> 535 41<346 461>
VStem: 102 42<161 297> 574 42<263 400>
Fore
422 576 m 0
 536 576 616 486 616 357 c 0
 616 164 461 -16 296 -16 c 0
 181 -16 102 74 102 207 c 0
 102 396 258 576 422 576 c 0
415 535 m 0
 277 535 144 378 144 216 c 0
 144 106 211 25 302 25 c 0
 441 25 574 181 574 345 c 0
 574 455 507 535 415 535 c 0
391 780 m 2
 483 680 l 2
 488 674 493 668 492 666 c 0
 489 656 487 650 486 650 c 1
 482 644 473 640 467 640 c 0
 460 640 455 643 451 649 c 1
 358 749 l 2
 353 754 348 761 349 763 c 0
 354 782 361 789 374 789 c 0
 380 789 385 786 391 780 c 2
EndSplineSet
EndChar
StartChar: Oacute
Encoding: 211 211
Width: 600
Flags: MW
HStem: -16 41<256.5 371.5> 535 41<346 461>
VStem: 102 42<161 297> 574 42<263 400>
Fore
422 576 m 0
 536 576 616 486 616 357 c 0
 616 164 461 -16 296 -16 c 0
 181 -16 102 74 102 207 c 0
 102 396 258 576 422 576 c 0
415 535 m 0
 277 535 144 378 144 216 c 0
 144 106 211 25 302 25 c 0
 441 25 574 181 574 345 c 0
 574 455 507 535 415 535 c 0
563 749 m 2
 429 649 l 2
 423 644 413 640 409 640 c 0
 398 640 391 647 391 657 c 0
 391 664 396 671 408 680 c 2
 543 780 l 2
 552 787 557 789 564 789 c 0
 573 789 580 781 580 772 c 0
 580 765 575 758 563 749 c 2
EndSplineSet
EndChar
StartChar: Ocircumflex
Encoding: 212 212
Width: 600
Flags: MW
HStem: -16 41<256.5 371.5> 535 41<346 461>
VStem: 102 42<161 297> 574 42<263 400>
Fore
422 576 m 0
 536 576 616 486 616 357 c 0
 616 164 461 -16 296 -16 c 0
 181 -16 102 74 102 207 c 0
 102 396 258 576 422 576 c 0
415 535 m 0
 277 535 144 378 144 216 c 0
 144 106 211 25 302 25 c 0
 441 25 574 181 574 345 c 0
 574 455 507 535 415 535 c 0
465 789 m 1
 575 680 l 2
 584 672 585 670 585 664 c 0
 585 652 572 640 558 640 c 0
 554 640 550 642 544 648 c 2
 455 739 l 1
 330 648 l 2
 326 645 314 640 311 640 c 0
 302 640 294 647 294 656 c 0
 294 664 300 674 309 678 c 2
 313 680 l 1
 465 789 l 1
EndSplineSet
EndChar
StartChar: Otilde
Encoding: 213 213
Width: 600
Flags: MW
HStem: -16 41<257 372.5> 535 41<347 462> 666 41<512.5 524.5> 714 41<393 404>
VStem: 103 42<160.5 297> 575 42<263 400>
Fore
423 576 m 0
 537 576 617 486 617 357 c 0
 617 164 462 -16 297 -16 c 0
 182 -16 103 74 103 207 c 0
 103 396 259 576 423 576 c 0
416 535 m 0
 278 535 145 378 145 216 c 0
 145 105 211 25 303 25 c 0
 442 25 575 181 575 345 c 0
 575 455 508 535 416 535 c 0
601 753 m 0
 610 753 618 746 618 737 c 0
 618 728 614 723 596 708 c 0
 561 678 537 666 512 666 c 0
 490 666 473 673 438 697 c 0
 421 709 410 714 398 714 c 0
 378 714 367 708 332 677 c 0
 327 672 319 669 313 669 c 0
 304 669 297 676 297 684 c 0
 297 693 304 703 323 718 c 0
 356 744 380 755 406 755 c 0
 426 755 438 750 465 732 c 0
 496 712 506 707 519 707 c 0
 536 707 547 714 584 745 c 0
 591 751 596 753 601 753 c 0
EndSplineSet
EndChar
StartChar: Odieresis
Encoding: 214 214
Width: 600
Flags: W
HStem: -16 41<256.5 371.5> 535 41<346 461> 661 101<334 342.5 555 564>
VStem: 102 42<161 297> 288 101<706 716.5> 509 101<705.5 716.5> 574 42<263 400>
Fore
422 576 m 0
 536 576 616 486 616 357 c 0
 616 164 461 -16 296 -16 c 0
 181 -16 102 74 102 207 c 0
 102 396 258 576 422 576 c 0
415 535 m 0
 277 535 144 378 144 216 c 0
 144 106 211 25 302 25 c 0
 441 25 574 181 574 345 c 0
 574 455 507 535 415 535 c 0
349 762 m 0
 372 762 389 745 389 721 c 0
 389 691 358 661 327 661 c 0
 306 661 288 680 288 702 c 0
 288 731 319 762 349 762 c 0
570 762 m 0
 593 762 610 745 610 721 c 0
 610 690 580 661 548 661 c 0
 527 661 509 680 509 702 c 0
 509 731 540 762 570 762 c 0
EndSplineSet
EndChar
StartChar: multiply
Encoding: 215 215
Width: 600
Flags: W
Fore
366 311 m 1
 539 453 l 2
 549 461 554 464 560 464 c 0
 570 464 577 457 577 447 c 0
 577 440 573 433 562 424 c 2
 389 282 l 1
 501 139 l 2
 505 134 508 128 508 124 c 0
 508 112 495 100 482 100 c 0
 476 100 472 103 466 110 c 2
 354 253 l 1
 181 110 l 2
 172 103 166 100 159 100 c 0
 150 100 143 107 143 116 c 0
 143 124 147 131 158 139 c 1
 331 282 l 1
 219 424 l 2
 215 429 212 436 212 440 c 0
 212 452 225 464 238 464 c 0
 243 464 248 461 254 453 c 2
 366 311 l 1
EndSplineSet
EndChar
StartChar: Oslash
Encoding: 216 216
Width: 600
Flags: MW
HStem: -16 41<279 371.5> 535 41<347 439>
VStem: 102 42<197.5 297.5> 574 42<262.5 363.5>
Fore
152 51 m 1
 69 -31 l 2
 60 -40 55 -43 48 -43 c 0
 40 -43 34 -37 34 -29 c 0
 34 -23 37 -18 46 -9 c 2
 134 78 l 1
 112 118 102 159 102 207 c 0
 102 396 259 576 423 576 c 0
 483 576 526 556 566 510 c 1
 650 593 l 2
 659 602 664 605 670 605 c 0
 679 605 685 599 685 591 c 0
 685 585 682 580 673 571 c 2
 585 483 l 1
 605 447 616 404 616 354 c 0
 616 164 460 -16 296 -16 c 0
 236 -16 187 7 152 51 c 1
167 112 m 1
 533 476 l 1
 502 515 462 535 416 535 c 0
 278 535 144 378 144 217 c 0
 144 178 151 145 167 112 c 1
551 449 m 1
 185 84 l 1
 215 46 256 25 302 25 c 0
 441 25 574 181 574 344 c 0
 574 383 566 418 551 449 c 1
EndSplineSet
EndChar
StartChar: Ugrave
Encoding: 217 217
Width: 600
Flags: W
HStem: -16 41<267.5 349.5> 522 41<187 212 253 253 253 328 504 569 610 644 610 610>
VStem: 136 42<113.5 147> 155 203 472 204<539.5 546.5>
Fore
610 522 m 1
 539 185 l 2
 515 72 409 -16 297 -16 c 0
 201 -16 136 47 136 140 c 0
 136 154 138 170 141 185 c 2
 212 522 l 1
 179 522 l 2
 162 522 155 527 155 538 c 0
 155 554 167 563 187 563 c 2
 337 563 l 2
 353 563 359 559 359 547 c 0
 359 532 347 522 328 522 c 2
 253 522 l 1
 182 185 l 1
 179 173 178 161 178 151 c 0
 178 76 230 25 305 25 c 0
 394 25 479 95 498 185 c 2
 569 522 l 1
 495 522 l 2
 478 522 472 527 472 539 c 0
 472 554 484 563 504 563 c 2
 653 563 l 2
 670 563 676 559 676 547 c 0
 676 532 664 522 644 522 c 2
 610 522 l 1
395 780 m 2
 487 680 l 2
 492 674 497 668 496 666 c 0
 493 656 491 650 490 650 c 1
 486 644 477 640 471 640 c 0
 464 640 459 643 455 649 c 1
 362 749 l 2
 357 754 352 761 353 763 c 0
 358 782 365 789 378 789 c 0
 384 789 389 786 395 780 c 2
EndSplineSet
EndChar
StartChar: Uacute
Encoding: 218 218
Width: 600
Flags: W
HStem: -16 41<267.5 349.5> 522 41<187 212 253 253 253 328 504 569 610 644 610 610>
VStem: 136 42<113.5 147> 155 203 472 204<539.5 546.5>
Fore
610 522 m 1
 539 185 l 2
 515 72 409 -16 297 -16 c 0
 201 -16 136 47 136 140 c 0
 136 154 138 170 141 185 c 2
 212 522 l 1
 179 522 l 2
 162 522 155 527 155 538 c 0
 155 554 167 563 187 563 c 2
 337 563 l 2
 353 563 359 559 359 547 c 0
 359 532 347 522 328 522 c 2
 253 522 l 1
 182 185 l 1
 179 173 178 161 178 151 c 0
 178 76 230 25 305 25 c 0
 394 25 479 95 498 185 c 2
 569 522 l 1
 495 522 l 2
 478 522 472 527 472 539 c 0
 472 554 484 563 504 563 c 2
 653 563 l 2
 670 563 676 559 676 547 c 0
 676 532 664 522 644 522 c 2
 610 522 l 1
560 749 m 2
 426 649 l 2
 420 644 410 640 406 640 c 0
 395 640 388 647 388 657 c 0
 388 664 393 671 405 680 c 2
 540 780 l 2
 549 787 554 789 561 789 c 0
 570 789 577 781 577 772 c 0
 577 765 572 758 560 749 c 2
EndSplineSet
EndChar
StartChar: Ucircumflex
Encoding: 219 219
Width: 600
Flags: W
HStem: -16 41<267.5 349.5> 522 41<187 212 253 253 253 328 504 569 610 644 610 610>
VStem: 136 42<113.5 147> 155 203 472 204<539.5 546.5>
Fore
610 522 m 1
 539 185 l 2
 515 72 409 -16 297 -16 c 0
 201 -16 136 47 136 140 c 0
 136 154 138 170 141 185 c 2
 212 522 l 1
 179 522 l 2
 162 522 155 527 155 538 c 0
 155 554 167 563 187 563 c 2
 337 563 l 2
 353 563 359 559 359 547 c 0
 359 532 347 522 328 522 c 2
 253 522 l 1
 182 185 l 1
 179 173 178 161 178 151 c 0
 178 76 230 25 305 25 c 0
 394 25 479 95 498 185 c 2
 569 522 l 1
 495 522 l 2
 478 522 472 527 472 539 c 0
 472 554 484 563 504 563 c 2
 653 563 l 2
 670 563 676 559 676 547 c 0
 676 532 664 522 644 522 c 2
 610 522 l 1
466 789 m 1
 576 680 l 2
 585 672 586 670 586 664 c 0
 586 652 573 640 559 640 c 0
 555 640 551 642 545 648 c 2
 456 739 l 1
 331 648 l 2
 327 645 315 640 312 640 c 0
 303 640 295 647 295 656 c 0
 295 664 301 674 310 678 c 2
 314 680 l 1
 466 789 l 1
EndSplineSet
EndChar
StartChar: Udieresis
Encoding: 220 220
Width: 600
Flags: W
HStem: -16 41<267.5 349.5> 522 41<187 212 253 253 253 328 504 569 610 644 610 610> 661 101<335 343.5 556 565>
VStem: 136 42<113.5 147> 155 203 289 101<706 716.5> 472 204<539.5 546.5> 510 101<705.5 716.5>
Fore
610 522 m 1
 539 185 l 2
 515 72 409 -16 297 -16 c 0
 201 -16 136 47 136 140 c 0
 136 154 138 170 141 185 c 2
 212 522 l 1
 179 522 l 2
 162 522 155 527 155 538 c 0
 155 554 167 563 187 563 c 2
 337 563 l 2
 353 563 359 559 359 547 c 0
 359 532 347 522 328 522 c 2
 253 522 l 1
 182 185 l 1
 179 173 178 161 178 151 c 0
 178 76 230 25 305 25 c 0
 394 25 479 95 498 185 c 2
 569 522 l 1
 495 522 l 2
 478 522 472 527 472 539 c 0
 472 554 484 563 504 563 c 2
 653 563 l 2
 670 563 676 559 676 547 c 0
 676 532 664 522 644 522 c 2
 610 522 l 1
350 762 m 0
 373 762 390 745 390 721 c 0
 390 691 359 661 328 661 c 0
 307 661 289 680 289 702 c 0
 289 731 320 762 350 762 c 0
571 762 m 0
 594 762 611 745 611 721 c 0
 611 690 581 661 549 661 c 0
 528 661 510 680 510 702 c 0
 510 731 541 762 571 762 c 0
EndSplineSet
EndChar
StartChar: Yacute
Encoding: 221 221
Width: 600
Flags: W
HStem: 0 41<185 290 331 427> 522 41<198 213 262 262 262 300 532 564 610 610 610 633>
VStem: 153 305 166 165 499 166<539 546>
Fore
376 254 m 1
 331 41 l 1
 436 41 l 2
 453 41 459 36 459 25 c 0
 459 10 447 0 427 0 c 2
 176 0 l 2
 160 0 153 5 153 16 c 0
 153 32 165 41 185 41 c 2
 290 41 l 1
 335 254 l 1
 213 522 l 1
 189 522 l 2
 173 522 166 527 166 538 c 0
 166 554 178 563 198 563 c 2
 309 563 l 2
 326 563 332 559 332 547 c 0
 332 532 320 522 300 522 c 2
 262 522 l 1
 366 295 l 1
 564 522 l 1
 523 522 l 2
 506 522 499 527 499 538 c 0
 499 554 511 563 532 563 c 2
 642 563 l 2
 658 563 665 558 665 546 c 0
 665 532 652 522 633 522 c 2
 610 522 l 1
 376 254 l 1
560 749 m 2
 426 649 l 2
 420 644 410 640 406 640 c 0
 395 640 388 647 388 657 c 0
 388 664 393 671 405 680 c 2
 540 780 l 2
 549 787 554 789 561 789 c 0
 570 789 577 781 577 772 c 0
 577 765 572 758 560 749 c 2
EndSplineSet
EndChar
StartChar: Thorn
Encoding: 222 222
Width: 600
Flags: MW
HStem: 0 41<79 133 174 304> 131 41<202 324> 422 41<263 404> 522 41<190 235 276 276 276 415>
VStem: 158 289<539.5 546.5> 524 42<282 350>
Fore
193 131 m 1
 174 41 l 1
 312 41 l 2
 329 41 336 36 336 25 c 0
 336 10 323 0 304 0 c 2
 70 0 l 2
 54 0 47 5 47 17 c 0
 47 32 59 41 79 41 c 2
 133 41 l 1
 235 522 l 1
 181 522 l 2
 165 522 158 527 158 539 c 0
 158 554 170 563 190 563 c 2
 423 563 l 2
 441 563 447 559 447 547 c 0
 447 532 435 522 415 522 c 2
 276 522 l 1
 263 463 l 1
 408 463 l 2
 500 463 566 408 566 331 c 0
 566 224 453 131 324 131 c 2
 193 131 l 1
202 172 m 1
 336 172 l 2
 434 172 524 243 524 321 c 0
 524 379 473 422 404 422 c 2
 255 422 l 1
 202 172 l 1
EndSplineSet
EndChar
StartChar: germandbls
Encoding: 223 223
Width: 600
Flags: W
HStem: -16 41<354.5 387> 0 41<79 133 174 180> 334 41 563 41<357.5 411>
VStem: 47 165<17.5 24> 278 42<64 86> 471 42<463 504> 497 42<184.5 237>
Fore
133 41 m 1
 225 476 l 2
 240 547 317 604 396 604 c 0
 465 604 513 556 513 487 c 0
 513 434 486 391 431 359 c 1
 504 326 539 276 539 206 c 0
 539 163 523 111 497 71 c 0
 460 14 413 -16 361 -16 c 0
 308 -16 278 18 278 79 c 0
 278 107 288 124 306 124 c 0
 315 124 322 118 322 109 c 0
 322 107 322 104 321 100 c 0
 320 95 320 89 320 83 c 0
 320 45 338 25 371 25 c 0
 434 25 497 113 497 200 c 0
 497 274 431 334 350 334 c 2
 346 334 l 2
 328 334 322 339 322 350 c 0
 322 364 334 375 350 375 c 2
 355 375 l 2
 376 375 402 383 424 398 c 0
 455 418 471 446 471 480 c 0
 471 528 436 563 386 563 c 0
 329 563 277 525 267 476 c 1
 174 41 l 1
 189 41 l 2
 206 41 212 37 212 25 c 0
 212 10 199 0 180 0 c 2
 70 0 l 2
 54 0 47 5 47 16 c 0
 47 32 59 41 79 41 c 2
 133 41 l 1
EndSplineSet
EndChar
StartChar: agrave
Encoding: 224 224
Width: 600
Flags: W
HStem: -16 41<200.5 260> 0 41<469 514> 217 41<279.5 359.5> 390 41<372 411.5>
VStem: 93 42<73.5 130.5> 486 42<326.5 342.5>
Fore
419 0 m 1
 433 67 l 1
 360 10 295 -16 225 -16 c 0
 143 -16 93 23 93 87 c 0
 93 184 200 258 338 258 c 0
 384 258 414 253 470 237 c 1
 485 308 l 2
 486 313 486 316 486 322 c 0
 486 363 444 390 379 390 c 0
 345 390 304 382 231 360 c 0
 226 359 223 358 220 358 c 0
 212 358 205 365 205 374 c 0
 205 384 211 392 223 397 c 0
 259 412 353 431 391 431 c 0
 472 431 528 390 528 331 c 0
 528 322 527 316 526 308 c 1
 469 41 l 1
 523 41 l 2
 540 41 546 37 546 25 c 0
 546 10 534 0 514 0 c 2
 419 0 l 1
443 112 m 1
 462 202 l 1
 427 211 382 217 337 217 c 0
 222 217 135 165 135 96 c 0
 135 51 170 25 231 25 c 0
 304 25 361 49 443 112 c 1
347 630 m 2
 439 530 l 1
 442 528 448 516 448 514 c 0
 448 502 434 490 422 490 c 0
 417 490 412 493 406 499 c 2
 313 599 l 2
 308 605 305 610 305 614 c 0
 305 627 317 639 331 639 c 0
 336 639 340 637 347 630 c 2
EndSplineSet
EndChar
StartChar: aacute
Encoding: 225 225
Width: 600
Flags: W
HStem: -16 41<200.5 260> 0 41<469 514> 217 41<279.5 359.5> 390 41<372 411.5>
VStem: 93 42<73.5 130.5> 486 42<326.5 342.5>
Fore
419 0 m 1
 433 67 l 1
 360 10 295 -16 225 -16 c 0
 143 -16 93 23 93 87 c 0
 93 184 200 258 338 258 c 0
 384 258 414 253 470 237 c 1
 485 308 l 2
 486 313 486 316 486 322 c 0
 486 363 444 390 379 390 c 0
 345 390 304 382 231 360 c 0
 226 359 223 358 220 358 c 0
 212 358 205 365 205 374 c 0
 205 384 211 392 223 397 c 0
 259 412 353 431 391 431 c 0
 472 431 528 390 528 331 c 0
 528 322 527 316 526 308 c 1
 469 41 l 1
 523 41 l 2
 540 41 546 37 546 25 c 0
 546 10 534 0 514 0 c 2
 419 0 l 1
443 112 m 1
 462 202 l 1
 427 211 382 217 337 217 c 0
 222 217 135 165 135 96 c 0
 135 51 170 25 231 25 c 0
 304 25 361 49 443 112 c 1
514 599 m 2
 379 499 l 2
 370 493 364 490 359 490 c 0
 349 490 342 497 342 506 c 0
 342 515 346 520 359 530 c 2
 494 630 l 2
 504 637 509 639 515 639 c 0
 524 639 531 632 531 623 c 0
 531 614 527 608 514 599 c 2
EndSplineSet
EndChar
StartChar: acircumflex
Encoding: 226 226
Width: 600
Flags: W
HStem: -16 41<200.5 260> 0 41<469 514> 217 41<279.5 359.5> 390 41<372 411.5>
VStem: 93 42<73.5 130.5> 486 42<326.5 342.5>
Fore
419 0 m 1
 433 67 l 1
 360 10 295 -16 225 -16 c 0
 143 -16 93 23 93 87 c 0
 93 184 200 258 338 258 c 0
 384 258 414 253 470 237 c 1
 485 308 l 2
 486 313 486 316 486 322 c 0
 486 363 444 390 379 390 c 0
 345 390 304 382 231 360 c 0
 226 359 223 358 220 358 c 0
 212 358 205 365 205 374 c 0
 205 384 211 392 223 397 c 0
 259 412 353 431 391 431 c 0
 472 431 528 390 528 331 c 0
 528 322 527 316 526 308 c 1
 469 41 l 1
 523 41 l 2
 540 41 546 37 546 25 c 0
 546 10 534 0 514 0 c 2
 419 0 l 1
443 112 m 1
 462 202 l 1
 427 211 382 217 337 217 c 0
 222 217 135 165 135 96 c 0
 135 51 170 25 231 25 c 0
 304 25 361 49 443 112 c 1
426 639 m 1
 535 531 l 1
 542 523 544 520 544 515 c 0
 544 502 532 490 519 490 c 0
 514 490 509 493 503 498 c 2
 415 586 l 1
 288 498 l 2
 281 493 274 490 269 490 c 0
 260 490 253 497 253 506 c 0
 253 514 258 522 267 528 c 2
 271 530 l 1
 426 639 l 1
EndSplineSet
EndChar
StartChar: atilde
Encoding: 227 227
Width: 600
Flags: W
HStem: -16 41<200.5 260> 0 41<469 514> 217 41<279.5 359.5> 390 41<372 411.5> 516 41<464.5 476.5> 564 41<345 356>
VStem: 93 42<73.5 130.5> 486 42<326.5 342.5>
Fore
419 0 m 1
 433 67 l 1
 360 10 295 -16 225 -16 c 0
 143 -16 93 23 93 87 c 0
 93 184 200 258 338 258 c 0
 384 258 414 253 470 237 c 1
 485 308 l 2
 486 313 486 316 486 322 c 0
 486 363 444 390 379 390 c 0
 345 390 304 382 231 360 c 0
 226 359 223 358 220 358 c 0
 212 358 205 365 205 374 c 0
 205 384 211 392 223 397 c 0
 259 412 353 431 391 431 c 0
 472 431 528 390 528 331 c 0
 528 322 527 316 526 308 c 1
 469 41 l 1
 523 41 l 2
 540 41 546 37 546 25 c 0
 546 10 534 0 514 0 c 2
 419 0 l 1
443 112 m 1
 462 202 l 1
 427 211 382 217 337 217 c 0
 222 217 135 165 135 96 c 0
 135 51 170 25 231 25 c 0
 304 25 361 49 443 112 c 1
553 603 m 0
 562 603 570 596 570 587 c 0
 570 578 566 573 548 558 c 0
 513 528 489 516 464 516 c 0
 442 516 425 523 390 547 c 0
 373 559 362 564 350 564 c 0
 330 564 319 558 284 527 c 0
 279 522 271 519 265 519 c 0
 256 519 249 525 249 534 c 0
 249 543 257 553 275 568 c 0
 309 594 333 605 357 605 c 0
 377 605 389 600 417 582 c 0
 449 561 458 557 471 557 c 0
 487 557 499 564 536 595 c 0
 543 601 548 603 553 603 c 0
EndSplineSet
EndChar
StartChar: adieresis
Encoding: 228 228
Width: 600
Flags: W
HStem: -16 41<200.5 260> 0 41<469 514> 217 41<279.5 359.5> 390 41<372 411.5> 511 100<293.5 304 514.5 525>
VStem: 93 42<73.5 130.5> 248 102<555.5 566> 469 102<555.5 566> 486 42<326.5 342.5>
Fore
419 0 m 1
 433 67 l 1
 360 10 295 -16 225 -16 c 0
 143 -16 93 23 93 87 c 0
 93 184 200 258 338 258 c 0
 384 258 414 253 470 237 c 1
 485 308 l 2
 486 313 486 316 486 322 c 0
 486 363 444 390 379 390 c 0
 345 390 304 382 231 360 c 0
 226 359 223 358 220 358 c 0
 212 358 205 365 205 374 c 0
 205 384 211 392 223 397 c 0
 259 412 353 431 391 431 c 0
 472 431 528 390 528 331 c 0
 528 322 527 316 526 308 c 1
 469 41 l 1
 523 41 l 2
 540 41 546 37 546 25 c 0
 546 10 534 0 514 0 c 2
 419 0 l 1
443 112 m 1
 462 202 l 1
 427 211 382 217 337 217 c 0
 222 217 135 165 135 96 c 0
 135 51 170 25 231 25 c 0
 304 25 361 49 443 112 c 1
309 611 m 0
 333 611 350 594 350 571 c 0
 350 540 320 511 288 511 c 0
 265 511 248 528 248 551 c 0
 248 581 278 611 309 611 c 0
530 611 m 0
 554 611 571 594 571 571 c 0
 571 540 541 511 509 511 c 0
 486 511 469 528 469 551 c 0
 469 581 499 611 530 611 c 0
EndSplineSet
EndChar
StartChar: aring
Encoding: 229 229
Width: 600
Flags: W
HStem: -16 41<200.5 260> 0 41<469 514> 217 41<279.5 359.5> 390 41<372 411.5> 480 33<385 418> 628 33<404.5 437>
VStem: 93 42<73.5 130.5> 316 34<546 576.5> 472 34<564 595.5>
Fore
419 0 m 1
 433 67 l 1
 360 10 295 -16 225 -16 c 0
 143 -16 93 23 93 87 c 0
 93 184 200 258 338 258 c 0
 384 258 414 253 470 237 c 1
 485 308 l 2
 486 313 486 316 486 322 c 0
 486 363 444 390 379 390 c 0
 345 390 304 382 231 360 c 0
 226 359 223 358 220 358 c 0
 212 358 205 365 205 374 c 0
 205 384 211 392 223 397 c 0
 259 412 353 431 391 431 c 0
 472 431 528 390 528 331 c 0
 528 322 527 316 526 308 c 1
 469 41 l 1
 523 41 l 2
 540 41 546 37 546 25 c 0
 546 10 534 0 514 0 c 2
 419 0 l 1
443 112 m 1
 462 202 l 1
 427 211 382 217 337 217 c 0
 222 217 135 165 135 96 c 0
 135 51 170 25 231 25 c 0
 304 25 361 49 443 112 c 1
430 661 m 0
 474 661 506 631 506 589 c 0
 506 533 451 480 392 480 c 0
 348 480 316 511 316 552 c 0
 316 608 372 661 430 661 c 0
423 628 m 0
 386 628 350 594 350 559 c 0
 350 533 371 513 399 513 c 0
 437 513 472 546 472 582 c 0
 472 609 451 628 423 628 c 0
EndSplineSet
EndChar
StartChar: ae
Encoding: 230 230
Width: 600
Flags: W
HStem: -16 41<139.5 178 424 458> 199 41<370 586> 216 41<218 257.5> 390 41<275 296 497 536.5>
VStem: 36 44<77.5 110> 589 41<281 319>
Fore
333 61 m 1
 325 27 l 1
 322 9 313 0 300 0 c 0
 291 0 284 7 284 15 c 1
 285 27 l 1
 291 52 l 1
 242 5 200 -16 156 -16 c 0
 83 -16 36 29 36 99 c 0
 36 136 48 166 71 190 c 0
 110 230 181 257 249 257 c 0
 277 257 305 253 332 245 c 1
 345 305 l 1
 346 311 347 319 347 322 c 0
 347 362 317 390 275 390 c 0
 247 390 211 380 185 365 c 0
 177 361 170 358 165 358 c 0
 158 358 150 366 150 374 c 0
 150 387 160 396 185 406 c 0
 226 423 260 431 290 431 c 0
 340 431 378 397 385 347 c 1
 421 399 473 431 521 431 c 0
 552 431 581 418 600 397 c 0
 620 375 630 342 630 296 c 0
 630 263 627 240 619 199 c 1
 361 199 l 1
 359 181 358 165 358 154 c 0
 358 79 397 25 451 25 c 0
 481 25 506 38 563 82 c 0
 567 85 573 87 577 87 c 0
 586 87 593 80 593 70 c 0
 593 61 587 54 565 38 c 0
 517 2 475 -16 441 -16 c 0
 394 -16 356 11 333 61 c 1
303 110 m 1
 323 203 l 1
 297 211 269 216 246 216 c 0
 190 216 122 190 98 159 c 0
 88 145 80 120 80 100 c 0
 80 55 114 25 165 25 c 0
 204 25 243 49 303 110 c 1
370 240 m 1
 586 240 l 1
 588 262 589 274 589 288 c 0
 589 354 562 390 512 390 c 0
 452 390 405 340 370 240 c 1
EndSplineSet
EndChar
StartChar: ccedilla
Encoding: 231 231
Width: 600
Flags: MW
HStem: -173 38<263.5 285.5> 391 40<358 413.5>
VStem: 122 42<121.5 185.5> 322 36
Fore
311 -16 m 1
 305 -47 l 1
 340 -48 359 -63 359 -93 c 0
 359 -138 318 -173 265 -173 c 0
 228 -173 184 -154 184 -138 c 0
 184 -125 196 -114 208 -114 c 0
 213 -114 216 -115 223 -119 c 0
 243 -131 256 -135 271 -135 c 0
 300 -135 322 -121 322 -101 c 0
 322 -88 308 -81 280 -81 c 2
 260 -81 l 1
 274 -14 l 1
 242 -9 228 -5 209 4 c 0
 155 29 122 87 122 154 c 0
 122 303 253 431 406 431 c 0
 468 431 516 412 551 376 c 1
 554 389 l 1
 557 408 566 417 580 417 c 0
 589 417 596 410 596 402 c 0
 596 399 595 395 594 389 c 1
 575 298 l 2
 571 280 562 270 549 270 c 0
 542 270 537 273 532 282 c 1
 535 318 l 1
 535 323 510 353 498 362 c 0
 477 379 434 391 393 391 c 0
 323 391 259 360 217 306 c 0
 184 264 164 209 164 162 c 0
 164 81 226 24 313 24 c 0
 388 24 460 50 519 97 c 0
 527 104 534 108 539 108 c 0
 546 108 555 99 555 91 c 0
 555 75 515 43 463 19 c 0
 417 -3 370 -13 311 -16 c 1
EndSplineSet
EndChar
StartChar: egrave
Encoding: 232 232
Width: 600
Flags: MW
HStem: -16 41<261.5 332> 199 41<155 529> 390 41<326 420.5>
VStem: 104 41<132 179> 530 40<255 292.5>
Fore
562 199 m 1
 146 199 l 1
 145 189 145 181 145 177 c 0
 145 87 213 25 310 25 c 0
 373 25 450 47 498 79 c 0
 507 84 511 86 516 86 c 0
 525 86 531 79 531 70 c 0
 531 58 521 48 491 32 c 0
 437 2 364 -16 300 -16 c 0
 184 -16 104 60 104 171 c 0
 104 309 235 431 383 431 c 0
 492 431 570 361 570 262 c 0
 570 248 567 224 562 199 c 1
155 240 m 1
 529 240 l 1
 530 245 530 250 530 252 c 0
 530 333 466 390 375 390 c 0
 277 390 192 332 155 240 c 1
362 630 m 2
 454 530 l 1
 457 528 463 516 463 514 c 0
 463 502 449 490 437 490 c 0
 432 490 427 493 421 499 c 2
 328 599 l 2
 323 605 320 610 320 614 c 0
 320 627 332 639 346 639 c 0
 351 639 355 637 362 630 c 2
EndSplineSet
EndChar
StartChar: eacute
Encoding: 233 233
Width: 600
Flags: MW
HStem: -16 41<261.5 332> 199 41<155 529> 390 41<326 420.5>
VStem: 104 41<132 179> 530 40<255 292.5>
Fore
562 199 m 1
 146 199 l 1
 145 189 145 181 145 177 c 0
 145 87 213 25 310 25 c 0
 373 25 450 47 498 79 c 0
 507 84 511 86 516 86 c 0
 525 86 531 79 531 70 c 0
 531 58 521 48 491 32 c 0
 437 2 364 -16 300 -16 c 0
 184 -16 104 60 104 171 c 0
 104 309 235 431 383 431 c 0
 492 431 570 361 570 262 c 0
 570 248 567 224 562 199 c 1
155 240 m 1
 529 240 l 1
 530 245 530 250 530 252 c 0
 530 333 466 390 375 390 c 0
 277 390 192 332 155 240 c 1
529 599 m 2
 394 499 l 2
 385 493 379 490 374 490 c 0
 364 490 357 497 357 506 c 0
 357 515 361 520 374 530 c 2
 509 630 l 2
 519 637 524 639 530 639 c 0
 539 639 546 632 546 623 c 0
 546 614 542 608 529 599 c 2
EndSplineSet
EndChar
StartChar: ecircumflex
Encoding: 234 234
Width: 600
Flags: MW
HStem: -16 41<261.5 332> 199 41<155 529> 390 41<326 420.5>
VStem: 104 41<132 179> 530 40<255 292.5>
Fore
562 199 m 1
 146 199 l 1
 145 189 145 181 145 177 c 0
 145 87 213 25 310 25 c 0
 373 25 450 47 498 79 c 0
 507 84 511 86 516 86 c 0
 525 86 531 79 531 70 c 0
 531 58 521 48 491 32 c 0
 437 2 364 -16 300 -16 c 0
 184 -16 104 60 104 171 c 0
 104 309 235 431 383 431 c 0
 492 431 570 361 570 262 c 0
 570 248 567 224 562 199 c 1
155 240 m 1
 529 240 l 1
 530 245 530 250 530 252 c 0
 530 333 466 390 375 390 c 0
 277 390 192 332 155 240 c 1
441 639 m 1
 550 531 l 1
 557 523 559 520 559 515 c 0
 559 502 547 490 534 490 c 0
 529 490 524 493 518 498 c 2
 430 586 l 1
 303 498 l 2
 296 493 289 490 284 490 c 0
 275 490 268 497 268 506 c 0
 268 514 273 522 282 528 c 2
 286 530 l 1
 441 639 l 1
EndSplineSet
EndChar
StartChar: edieresis
Encoding: 235 235
Width: 600
Flags: MW
HStem: -16 41<261.5 332> 199 41<155 530> 390 41<325.5 401.5> 511 100<308.5 319 529.5 540>
VStem: 104 41<132 179> 263 102<555.5 566> 484 102<555.5 566>
Fore
563 199 m 1
 146 199 l 1
 145 189 145 181 145 177 c 0
 145 87 213 25 310 25 c 0
 373 25 451 47 498 79 c 0
 507 84 511 86 516 86 c 0
 525 86 531 79 531 70 c 0
 531 58 521 48 491 32 c 0
 437 2 364 -16 300 -16 c 0
 184 -16 104 60 104 171 c 0
 104 309 235 431 383 431 c 0
 492 431 570 361 570 262 c 0
 570 248 567 224 563 199 c 1
155 240 m 1
 530 240 l 1
 528 287 520 311 501 335 c 0
 471 372 429 390 374 390 c 0
 277 390 192 332 155 240 c 1
324 611 m 0
 348 611 365 594 365 571 c 0
 365 540 335 511 303 511 c 0
 280 511 263 528 263 551 c 0
 263 581 293 611 324 611 c 0
545 611 m 0
 569 611 586 594 586 571 c 0
 586 540 556 511 524 511 c 0
 501 511 484 528 484 551 c 0
 484 581 514 611 545 611 c 0
EndSplineSet
EndChar
StartChar: igrave
Encoding: 236 236
Width: 600
Flags: MW
HStem: 0 41<127 288 329 481> 376 41<250 359>
VStem: 96 417<17.5 24>
Fore
409 417 m 1
 329 41 l 1
 489 41 l 2
 506 41 513 36 513 25 c 0
 513 10 500 0 481 0 c 2
 119 0 l 2
 103 0 96 5 96 16 c 0
 96 32 108 41 127 41 c 2
 288 41 l 1
 359 376 l 1
 241 376 l 2
 225 376 218 381 218 393 c 0
 218 408 230 417 250 417 c 2
 409 417 l 1
351 630 m 2
 443 530 l 1
 446 528 452 516 452 514 c 0
 452 502 438 490 426 490 c 0
 421 490 416 493 410 499 c 2
 317 599 l 2
 312 605 309 610 309 614 c 0
 309 627 321 639 335 639 c 0
 340 639 344 637 351 630 c 2
EndSplineSet
EndChar
StartChar: iacute
Encoding: 237 237
Width: 600
Flags: MW
HStem: 0 41<127 288 329 481> 376 41<250 359>
VStem: 96 417<17.5 24>
Fore
409 417 m 1
 329 41 l 1
 489 41 l 2
 506 41 513 36 513 25 c 0
 513 10 500 0 481 0 c 2
 119 0 l 2
 103 0 96 5 96 16 c 0
 96 32 108 41 127 41 c 2
 288 41 l 1
 359 376 l 1
 241 376 l 2
 225 376 218 381 218 393 c 0
 218 408 230 417 250 417 c 2
 409 417 l 1
518 599 m 2
 383 499 l 2
 374 493 368 490 363 490 c 0
 353 490 346 497 346 506 c 0
 346 515 350 520 363 530 c 2
 498 630 l 2
 508 637 513 639 519 639 c 0
 528 639 535 632 535 623 c 0
 535 614 531 608 518 599 c 2
EndSplineSet
EndChar
StartChar: icircumflex
Encoding: 238 238
Width: 600
Flags: MW
HStem: 0 41<126 287 328 480> 376 41<249 358>
VStem: 95 417<17.5 24>
Fore
408 417 m 1
 328 41 l 1
 488 41 l 2
 505 41 512 36 512 25 c 0
 512 10 499 0 480 0 c 2
 118 0 l 2
 102 0 95 5 95 16 c 0
 95 32 107 41 126 41 c 2
 287 41 l 1
 358 376 l 1
 240 376 l 2
 224 376 217 381 217 393 c 0
 217 408 229 417 249 417 c 2
 408 417 l 1
418 639 m 1
 527 531 l 1
 534 523 536 520 536 515 c 0
 536 502 524 490 511 490 c 0
 506 490 501 493 495 498 c 2
 407 586 l 1
 280 498 l 2
 273 493 266 490 261 490 c 0
 252 490 245 497 245 506 c 0
 245 514 250 522 259 528 c 2
 263 530 l 1
 418 639 l 1
EndSplineSet
EndChar
StartChar: idieresis
Encoding: 239 239
Width: 600
Flags: W
HStem: 0 41<127 288 329 480> 376 41<250 359> 511 100<289.5 300 511.5 522>
VStem: 96 417<17.5 24> 244 102<555.5 566> 466 102<555.5 566>
Fore
409 417 m 1
 329 41 l 1
 489 41 l 2
 506 41 513 36 513 25 c 0
 513 10 500 0 480 0 c 2
 119 0 l 2
 103 0 96 5 96 16 c 0
 96 32 108 41 127 41 c 2
 288 41 l 1
 359 376 l 1
 241 376 l 2
 225 376 218 381 218 393 c 0
 218 408 230 417 250 417 c 2
 409 417 l 1
305 611 m 0
 329 611 346 594 346 571 c 0
 346 540 316 511 284 511 c 0
 261 511 244 528 244 551 c 0
 244 581 274 611 305 611 c 0
527 611 m 4
 551 611 568 594 568 571 c 4
 568 540 538 511 506 511 c 4
 483 511 466 528 466 551 c 4
 466 581 496 611 527 611 c 4
EndSplineSet
EndChar
StartChar: eth
Encoding: 240 240
Width: 600
Flags: MW
HStem: -17 42<261.5 333> 390 40<324 417>
VStem: 111 43<128 227.5> 536 46<247 287.5>
Fore
562 577 m 2
 480 543 l 1
 545 474 582 380 582 286 c 0
 582 208 551 128 501 75 c 0
 444 16 370 -17 296 -17 c 0
 187 -17 111 57 111 161 c 0
 111 300 246 430 390 430 c 0
 444 430 478 416 524 377 c 1
 503 441 470 495 434 525 c 1
 335 483 l 1
 328 482 l 2
 319 482 312 490 312 500 c 0
 312 510 317 518 324 521 c 2
 393 549 l 1
 360 565 338 572 302 580 c 0
 291 582 286 586 286 594 c 0
 286 608 298 620 312 620 c 0
 338 620 397 600 450 572 c 1
 553 614 l 1
 560 615 l 2
 568 615 575 608 575 599 c 0
 575 589 570 580 562 577 c 2
383 390 m 0
 265 390 154 284 154 171 c 0
 154 85 217 25 306 25 c 0
 425 25 536 130 536 244 c 0
 536 331 474 390 383 390 c 0
EndSplineSet
EndChar
StartChar: ntilde
Encoding: 241 241
Width: 600
Flags: W
HStem: 0 41<89 135 176 212 414 448 489 514> 376 41<181 206> 390 41<383.5 421.5> 516 41<464.5 476.5> 564 41<345 356>
VStem: 57 186 382 164<17.5 24> 502 43<314 318.5>
Fore
256 417 m 1
 241 348 l 1
 313 412 353 431 414 431 c 0
 493 431 545 387 545 319 c 0
 545 309 544 303 543 295 c 1
 489 41 l 1
 523 41 l 2
 540 41 546 37 546 25 c 0
 546 10 533 0 514 0 c 2
 405 0 l 2
 389 0 382 5 382 16 c 0
 382 32 394 41 414 41 c 2
 448 41 l 1
 500 288 l 1
 502 295 502 298 502 308 c 0
 502 329 493 349 478 364 c 0
 458 384 440 390 403 390 c 0
 339 390 309 373 230 294 c 1
 176 41 l 1
 221 41 l 2
 238 41 244 37 244 25 c 0
 244 10 232 0 212 0 c 2
 81 0 l 2
 64 0 57 5 57 16 c 0
 57 32 69 41 89 41 c 2
 135 41 l 1
 206 376 l 1
 172 376 l 2
 156 376 149 381 149 392 c 0
 149 408 161 417 181 417 c 2
 256 417 l 1
553 603 m 0
 562 603 570 596 570 587 c 0
 570 578 566 573 548 558 c 0
 513 528 489 516 464 516 c 0
 442 516 425 523 390 547 c 0
 373 559 362 564 350 564 c 0
 330 564 319 558 284 527 c 0
 279 522 271 519 265 519 c 0
 256 519 249 525 249 534 c 0
 249 543 257 553 275 568 c 0
 309 594 333 605 357 605 c 0
 377 605 389 600 417 582 c 0
 449 561 458 557 471 557 c 0
 487 557 499 564 536 595 c 0
 543 601 548 603 553 603 c 0
EndSplineSet
EndChar
StartChar: ograve
Encoding: 242 242
Width: 600
Flags: MW
HStem: -16 41<260.5 364.5> 390 41<323 427.5>
VStem: 111 42<128 227.5> 535 42<187 287.5>
Fore
391 431 m 0
 501 431 577 358 577 252 c 0
 577 113 441 -16 296 -16 c 0
 187 -16 111 58 111 162 c 0
 111 301 247 431 391 431 c 0
382 390 m 0
 264 390 153 284 153 171 c 0
 153 85 216 25 305 25 c 0
 424 25 535 130 535 244 c 0
 535 331 473 390 382 390 c 0
364 630 m 2
 456 530 l 1
 459 528 465 516 465 514 c 0
 465 502 451 490 439 490 c 0
 434 490 429 493 423 499 c 2
 330 599 l 2
 325 605 322 610 322 614 c 0
 322 627 334 639 348 639 c 0
 353 639 357 637 364 630 c 2
EndSplineSet
EndChar
StartChar: oacute
Encoding: 243 243
Width: 600
Flags: MW
HStem: -16 41<260.5 364.5> 390 41<323 427.5>
VStem: 111 42<128 227.5> 535 42<187 287.5>
Fore
391 431 m 0
 501 431 577 358 577 252 c 0
 577 113 441 -16 296 -16 c 0
 187 -16 111 58 111 162 c 0
 111 301 247 431 391 431 c 0
382 390 m 0
 264 390 153 284 153 171 c 0
 153 85 216 25 305 25 c 0
 424 25 535 130 535 244 c 0
 535 331 473 390 382 390 c 0
525 599 m 2
 390 499 l 2
 381 493 375 490 370 490 c 0
 360 490 353 497 353 506 c 0
 353 515 357 520 370 530 c 2
 505 630 l 2
 515 637 520 639 526 639 c 0
 535 639 542 632 542 623 c 0
 542 614 538 608 525 599 c 2
EndSplineSet
EndChar
StartChar: ocircumflex
Encoding: 244 244
Width: 600
Flags: MW
HStem: -16 41<260.5 364.5> 390 41<323 427.5>
VStem: 111 42<128 227.5> 535 42<187 287.5>
Fore
391 431 m 0
 501 431 577 358 577 252 c 0
 577 113 441 -16 296 -16 c 0
 187 -16 111 58 111 162 c 0
 111 301 247 431 391 431 c 0
382 390 m 0
 264 390 153 284 153 171 c 0
 153 85 216 25 305 25 c 0
 424 25 535 130 535 244 c 0
 535 331 473 390 382 390 c 0
436 639 m 1
 545 531 l 1
 552 523 554 520 554 515 c 0
 554 502 542 490 529 490 c 0
 524 490 519 493 513 498 c 2
 425 586 l 1
 298 498 l 2
 291 493 284 490 279 490 c 0
 270 490 263 497 263 506 c 0
 263 514 268 522 277 528 c 2
 281 530 l 1
 436 639 l 1
EndSplineSet
EndChar
StartChar: otilde
Encoding: 245 245
Width: 600
Flags: MW
HStem: -16 41<260.5 364.5> 390 41<323 427.5> 516 41<480.5 492.5> 564 41<361 372>
VStem: 111 42<128 227.5> 535 42<187 287.5>
Fore
391 431 m 0
 501 431 577 358 577 252 c 0
 577 113 441 -16 296 -16 c 0
 187 -16 111 58 111 162 c 0
 111 301 247 431 391 431 c 0
382 390 m 0
 264 390 153 284 153 171 c 0
 153 85 216 25 305 25 c 0
 424 25 535 130 535 244 c 0
 535 331 473 390 382 390 c 0
569 603 m 0
 578 603 586 596 586 587 c 0
 586 578 582 573 564 558 c 0
 529 528 505 516 480 516 c 0
 458 516 441 523 406 547 c 0
 389 559 378 564 366 564 c 0
 346 564 335 558 300 527 c 0
 295 522 287 519 281 519 c 0
 272 519 265 525 265 534 c 0
 265 543 273 553 291 568 c 0
 325 594 349 605 373 605 c 0
 393 605 405 600 433 582 c 0
 465 561 474 557 487 557 c 0
 503 557 515 564 552 595 c 0
 559 601 564 603 569 603 c 0
EndSplineSet
EndChar
StartChar: odieresis
Encoding: 246 246
Width: 600
Flags: W
HStem: -16 41<260.5 364.5> 390 41<323 427.5> 511 100<303.5 314 524.5 535>
VStem: 111 42<128 227.5> 258 102<555.5 566> 479 102<555.5 566> 535 42<187 287.5>
Fore
391 431 m 0
 501 431 577 358 577 252 c 0
 577 113 441 -16 296 -16 c 0
 187 -16 111 58 111 162 c 0
 111 301 247 431 391 431 c 0
382 390 m 0
 264 390 153 284 153 171 c 0
 153 85 216 25 305 25 c 0
 424 25 535 130 535 244 c 0
 535 331 473 390 382 390 c 0
319 611 m 0
 343 611 360 594 360 571 c 0
 360 540 330 511 298 511 c 0
 275 511 258 528 258 551 c 0
 258 581 288 611 319 611 c 0
540 611 m 0
 564 611 581 594 581 571 c 0
 581 540 551 511 519 511 c 0
 496 511 479 528 479 551 c 0
 479 581 509 611 540 611 c 0
EndSplineSet
EndChar
StartChar: divide
Encoding: 247 247
Width: 600
Flags: W
HStem: 25 99<310.5 321> 262 40<163 556> 441 99<399.5 409>
VStem: 131 457<278.5 285.5> 265 102<69 79.5> 354 101<485 495.5>
Fore
556 262 m 2
 154 262 l 2
 138 262 131 267 131 278 c 0
 131 293 143 302 163 302 c 2
 565 302 l 2
 581 302 588 297 588 286 c 0
 588 271 576 262 556 262 c 2
326 124 m 0
 350 124 367 108 367 84 c 0
 367 54 337 25 305 25 c 0
 282 25 265 42 265 64 c 0
 265 95 295 124 326 124 c 0
415 540 m 0
 438 540 455 524 455 500 c 0
 455 470 425 441 393 441 c 0
 371 441 354 458 354 480 c 0
 354 511 384 540 415 540 c 0
EndSplineSet
EndChar
StartChar: oslash
Encoding: 248 248
Width: 600
Flags: MW
HStem: -16 41<283 365> 390 41<323 404.5>
VStem: 111 42<155.5 228> 535 42<188 261>
Fore
161 35 m 1
 80 -33 l 2
 71 -41 67 -43 61 -43 c 0
 53 -43 47 -37 47 -29 c 0
 47 -22 51 -17 61 -8 c 2
 141 59 l 1
 121 90 111 123 111 162 c 0
 111 302 246 431 392 431 c 0
 446 431 490 415 525 382 c 1
 603 448 l 2
 613 456 617 458 623 458 c 0
 631 458 637 452 637 444 c 0
 637 437 633 432 623 423 c 2
 545 358 l 1
 567 326 577 294 577 254 c 0
 577 113 442 -16 296 -16 c 0
 241 -16 197 1 161 35 c 1
511 329 m 1
 197 65 l 1
 224 39 261 25 305 25 c 0
 425 25 535 131 535 245 c 0
 535 277 527 304 511 329 c 1
176 89 m 1
 490 352 l 1
 461 378 426 390 383 390 c 0
 263 390 153 285 153 171 c 0
 153 140 161 113 176 89 c 1
EndSplineSet
EndChar
StartChar: ugrave
Encoding: 249 249
Width: 600
Flags: W
HStem: -16 41<239.5 286.5> 0 41<489 514> 376 41<159 204 454 519>
VStem: 146 42
Fore
439 0 m 1
 453 66 l 1
 387 11 320 -16 253 -16 c 0
 187 -16 145 22 145 82 c 0
 145 93 146 104 149 115 c 1
 204 376 l 1
 150 376 l 2
 134 376 127 381 127 392 c 0
 127 408 139 417 159 417 c 2
 254 417 l 1
 190 115 l 1
 188 109 188 105 188 97 c 0
 188 55 218 25 261 25 c 0
 329 25 395 54 464 115 c 1
 519 376 l 1
 445 376 l 2
 428 376 421 381 421 392 c 0
 421 408 433 417 454 417 c 2
 569 417 l 1
 489 41 l 1
 523 41 l 2
 540 41 546 37 546 25 c 0
 546 10 534 0 514 0 c 2
 439 0 l 1
356 630 m 2
 448 530 l 1
 451 528 457 516 457 514 c 0
 457 502 443 490 431 490 c 0
 426 490 421 493 415 499 c 2
 322 599 l 2
 317 605 314 610 314 614 c 0
 314 627 326 639 340 639 c 0
 345 639 349 637 356 630 c 2
EndSplineSet
EndChar
StartChar: uacute
Encoding: 250 250
Width: 600
Flags: W
HStem: -16 41<239.5 286.5> 0 41<489 514> 376 41<159 204 454 519>
VStem: 146 42
Fore
439 0 m 1
 453 66 l 1
 387 11 320 -16 253 -16 c 0
 187 -16 145 22 145 82 c 0
 145 93 146 104 149 115 c 1
 204 376 l 1
 150 376 l 2
 134 376 127 381 127 392 c 0
 127 408 139 417 159 417 c 2
 254 417 l 1
 190 115 l 1
 188 109 188 105 188 97 c 0
 188 55 218 25 261 25 c 0
 329 25 395 54 464 115 c 1
 519 376 l 1
 445 376 l 2
 428 376 421 381 421 392 c 0
 421 408 433 417 454 417 c 2
 569 417 l 1
 489 41 l 1
 523 41 l 2
 540 41 546 37 546 25 c 0
 546 10 534 0 514 0 c 2
 439 0 l 1
510 599 m 2
 375 499 l 2
 366 493 360 490 355 490 c 0
 345 490 338 497 338 506 c 0
 338 515 342 520 355 530 c 2
 490 630 l 2
 500 637 505 639 511 639 c 0
 520 639 527 632 527 623 c 0
 527 614 523 608 510 599 c 2
EndSplineSet
EndChar
StartChar: ucircumflex
Encoding: 251 251
Width: 600
Flags: W
HStem: -16 41<239.5 286.5> 0 41<489 514> 376 41<159 204 454 519>
VStem: 146 42
Fore
439 0 m 1
 453 66 l 1
 387 11 320 -16 253 -16 c 0
 187 -16 145 22 145 82 c 0
 145 93 146 104 149 115 c 1
 204 376 l 1
 150 376 l 2
 134 376 127 381 127 392 c 0
 127 408 139 417 159 417 c 2
 254 417 l 1
 190 115 l 1
 188 109 188 105 188 97 c 0
 188 55 218 25 261 25 c 0
 329 25 395 54 464 115 c 1
 519 376 l 1
 445 376 l 2
 428 376 421 381 421 392 c 0
 421 408 433 417 454 417 c 2
 569 417 l 1
 489 41 l 1
 523 41 l 2
 540 41 546 37 546 25 c 0
 546 10 534 0 514 0 c 2
 439 0 l 1
428 639 m 1
 537 531 l 1
 544 523 546 520 546 515 c 0
 546 502 534 490 521 490 c 0
 516 490 511 493 505 498 c 2
 417 586 l 1
 290 498 l 2
 283 493 276 490 271 490 c 0
 262 490 255 497 255 506 c 0
 255 514 260 522 269 528 c 2
 273 530 l 1
 428 639 l 1
EndSplineSet
EndChar
StartChar: udieresis
Encoding: 252 252
Width: 600
Flags: W
HStem: -16 41<239.5 286.5> 0 41<489 514> 376 41<159 204 454 519> 511 100<295.5 306 516.5 527>
VStem: 146 42 250 102<555.5 566> 471 102<555.5 566>
Fore
439 0 m 1
 453 66 l 1
 387 11 320 -16 253 -16 c 0
 187 -16 145 22 145 82 c 0
 145 93 146 104 149 115 c 1
 204 376 l 1
 150 376 l 2
 134 376 127 381 127 392 c 0
 127 408 139 417 159 417 c 2
 254 417 l 1
 190 115 l 1
 188 109 188 105 188 97 c 0
 188 55 218 25 261 25 c 0
 329 25 395 54 464 115 c 1
 519 376 l 1
 445 376 l 2
 428 376 421 381 421 392 c 0
 421 408 433 417 454 417 c 2
 569 417 l 1
 489 41 l 1
 523 41 l 2
 540 41 546 37 546 25 c 0
 546 10 534 0 514 0 c 2
 439 0 l 1
311 611 m 0
 335 611 352 594 352 571 c 0
 352 540 322 511 290 511 c 0
 267 511 250 528 250 551 c 0
 250 581 280 611 311 611 c 0
532 611 m 0
 556 611 573 594 573 571 c 0
 573 540 543 511 511 511 c 0
 488 511 471 528 471 551 c 0
 471 581 501 611 532 611 c 0
EndSplineSet
EndChar
StartChar: yacute
Encoding: 253 253
Width: 600
Flags: MW
HStem: -186 41<54 180 222 278> 376 41<167 175 221 221 221 273 501 546 589 589 589 602>
VStem: 135 169 469 164
Fore
282 0 m 1
 175 376 l 1
 159 376 l 2
 142 376 135 381 135 392 c 0
 135 408 147 417 167 417 c 2
 282 417 l 2
 298 417 305 412 305 401 c 0
 305 386 293 376 273 376 c 2
 221 376 l 1
 315 45 l 1
 546 376 l 1
 492 376 l 2
 476 376 469 381 469 393 c 0
 469 407 481 417 501 417 c 2
 611 417 l 2
 627 417 634 412 634 401 c 0
 634 386 622 376 602 376 c 2
 589 376 l 1
 222 -145 l 1
 286 -145 l 2
 304 -145 310 -149 310 -161 c 0
 310 -176 297 -186 278 -186 c 2
 45 -186 l 2
 29 -186 22 -181 22 -170 c 0
 22 -154 34 -145 54 -145 c 2
 180 -145 l 1
 282 0 l 1
560 599 m 2
 425 499 l 2
 416 493 410 490 405 490 c 0
 395 490 388 497 388 506 c 0
 388 515 392 520 405 530 c 2
 540 630 l 2
 550 637 555 639 561 639 c 0
 570 639 577 632 577 623 c 0
 577 614 573 608 560 599 c 2
EndSplineSet
EndChar
StartChar: thorn
Encoding: 254 254
Width: 600
Flags: MW
HStem: -186 41<19 73 114 203> 10 41<290.5 390> 390 41<377 448> 549 41<175 220>
VStem: -13 247 551 42<202 295>
Fore
270 590 m 1
 216 335 l 1
 283 404 339 431 415 431 c 0
 523 431 593 365 593 264 c 0
 593 131 466 10 326 10 c 0
 249 10 199 40 167 106 c 1
 114 -145 l 1
 211 -145 l 2
 229 -145 235 -149 235 -161 c 0
 235 -177 223 -186 203 -186 c 2
 10 -186 l 2
 -6 -186 -13 -181 -13 -170 c 0
 -13 -154 -1 -145 19 -145 c 2
 73 -145 l 1
 220 549 l 1
 166 549 l 2
 150 549 143 554 143 565 c 0
 143 581 155 590 175 590 c 2
 270 590 l 1
405 390 m 0
 292 390 188 292 188 187 c 0
 188 107 248 51 333 51 c 0
 447 51 551 149 551 255 c 0
 551 335 491 390 405 390 c 0
EndSplineSet
EndChar
StartChar: ydieresis
Encoding: 255 255
Width: 600
Flags: W
HStem: -186 41<54 180 222 278> 376 41<167 175 221 221 221 273 501 546 589 589 589 602> 511 100<303.5 314 524.5 535>
VStem: 135 169 258 102<555.5 566> 469 164 479 102<555.5 566>
Fore
282 0 m 1
 175 376 l 1
 159 376 l 2
 142 376 135 381 135 392 c 0
 135 408 147 417 167 417 c 2
 282 417 l 2
 298 417 305 412 305 401 c 0
 305 386 293 376 273 376 c 2
 221 376 l 1
 315 45 l 1
 546 376 l 1
 492 376 l 2
 476 376 469 381 469 393 c 0
 469 407 481 417 501 417 c 2
 611 417 l 2
 627 417 634 412 634 401 c 0
 634 386 622 376 602 376 c 2
 589 376 l 1
 222 -145 l 1
 286 -145 l 2
 304 -145 310 -149 310 -161 c 0
 310 -176 297 -186 278 -186 c 2
 45 -186 l 2
 29 -186 22 -181 22 -170 c 0
 22 -154 34 -145 54 -145 c 2
 180 -145 l 1
 282 0 l 1
319 611 m 0
 343 611 360 594 360 571 c 0
 360 540 330 511 298 511 c 0
 275 511 258 528 258 551 c 0
 258 581 288 611 319 611 c 0
540 611 m 0
 564 611 581 594 581 571 c 0
 581 540 551 511 519 511 c 0
 496 511 479 528 479 551 c 0
 479 581 509 611 540 611 c 0
EndSplineSet
EndChar
StartChar: Amacron
Encoding: 256 256
Width: 600
Flags: W
HStem: 0 41<45 76 117 187 417 493 536 564> 188 41<227 462> 522 41<246 357 397 397 397 412> 683 40<296 523>
VStem: 13 206<17.5 24.5> 264 291<699.5 706.5> 385 210
Fore
468 188 m 1
 203 188 l 1
 117 41 l 1
 196 41 l 2
 213 41 219 37 219 25 c 0
 219 10 206 0 187 0 c 2
 36 0 l 2
 20 0 13 5 13 17 c 0
 13 32 25 41 45 41 c 2
 76 41 l 1
 357 522 l 1
 237 522 l 2
 221 522 214 527 214 538 c 0
 214 554 226 563 246 563 c 2
 449 563 l 1
 536 41 l 1
 573 41 l 2
 590 41 596 37 596 25 c 0
 596 10 584 0 564 0 c 2
 408 0 l 2
 392 0 385 5 385 16 c 0
 385 32 397 41 417 41 c 2
 493 41 l 1
 468 188 l 1
462 229 m 1
 412 522 l 1
 397 522 l 1
 227 229 l 1
 462 229 l 1
523 683 m 2
 287 683 l 2
 271 683 264 688 264 699 c 0
 264 714 276 723 296 723 c 2
 532 723 l 2
 548 723 555 718 555 707 c 0
 555 692 543 683 523 683 c 2
EndSplineSet
EndChar
StartChar: amacron
Encoding: 257 257
Width: 600
Flags: W
HStem: -16 41<200.5 260> 0 41<469 514> 217 41<279.5 359.5> 390 41<372 411.5> 536 40<305 532>
VStem: 93 42<73.5 130.5> 273 291<552.5 559.5> 486 42<326.5 342.5>
Fore
419 0 m 1
 433 67 l 1
 360 10 295 -16 225 -16 c 0
 143 -16 93 23 93 87 c 0
 93 184 200 258 338 258 c 0
 384 258 414 253 470 237 c 1
 485 308 l 2
 486 313 486 316 486 322 c 0
 486 363 444 390 379 390 c 0
 345 390 304 382 231 360 c 0
 226 359 223 358 220 358 c 0
 212 358 205 365 205 374 c 0
 205 384 211 392 223 397 c 0
 259 412 353 431 391 431 c 0
 472 431 528 390 528 331 c 0
 528 322 527 316 526 308 c 1
 469 41 l 1
 523 41 l 2
 540 41 546 37 546 25 c 0
 546 10 534 0 514 0 c 2
 419 0 l 1
443 112 m 1
 462 202 l 1
 427 211 382 217 337 217 c 0
 222 217 135 165 135 96 c 0
 135 51 170 25 231 25 c 0
 304 25 361 49 443 112 c 1
532 536 m 2
 296 536 l 2
 280 536 273 541 273 552 c 0
 273 567 285 576 305 576 c 2
 541 576 l 2
 557 576 564 571 564 560 c 0
 564 545 552 536 532 536 c 2
EndSplineSet
EndChar
StartChar: Abreve
Encoding: 258 258
Width: 600
Flags: MW
HStem: 0 41<45 76 117 187 417 493 536 564> 188 41<227 462> 522 41<246 357 397 397 397 412> 647 41<383.5 425>
VStem: 13 206<17.5 24.5> 385 210
Fore
468 188 m 1
 203 188 l 1
 117 41 l 1
 196 41 l 2
 213 41 219 37 219 25 c 0
 219 10 206 0 187 0 c 2
 36 0 l 2
 20 0 13 5 13 17 c 0
 13 32 25 41 45 41 c 2
 76 41 l 1
 357 522 l 1
 237 522 l 2
 221 522 214 527 214 538 c 0
 214 554 226 563 246 563 c 2
 449 563 l 1
 536 41 l 1
 573 41 l 2
 590 41 596 37 596 25 c 0
 596 10 584 0 564 0 c 2
 408 0 l 2
 392 0 385 5 385 16 c 0
 385 32 397 41 417 41 c 2
 493 41 l 1
 468 188 l 1
462 229 m 1
 412 522 l 1
 397 522 l 1
 227 229 l 1
 462 229 l 1
298 777 m 0
 303 777 306 775 310 771 c 0
 313 767 313 767 315 736 c 0
 316 712 361 688 406 688 c 0
 466 688 516 715 533 755 c 0
 541 773 545 777 558 777 c 0
 569 777 576 771 576 761 c 0
 576 741 558 713 532 692 c 0
 496 662 451 647 399 647 c 0
 317 647 271 682 271 744 c 0
 271 764 282 777 298 777 c 0
EndSplineSet
EndChar
StartChar: abreve
Encoding: 259 259
Width: 600
Flags: W
HStem: -16 41<200.5 260> 0 41<469 514> 217 41<279.5 359.5> 390 41<372 411.5> 489 41<401 427.5>
VStem: 93 42<73.5 130.5> 280 42<579 581> 486 42<326.5 342.5>
Fore
419 0 m 1
 433 67 l 1
 360 10 295 -16 225 -16 c 0
 143 -16 93 23 93 87 c 0
 93 184 200 258 338 258 c 0
 384 258 414 253 470 237 c 1
 485 308 l 2
 486 313 486 316 486 322 c 0
 486 363 444 390 379 390 c 0
 345 390 304 382 231 360 c 0
 226 359 223 358 220 358 c 0
 212 358 205 365 205 374 c 0
 205 384 211 392 223 397 c 0
 259 412 353 431 391 431 c 0
 472 431 528 390 528 331 c 0
 528 322 527 316 526 308 c 1
 469 41 l 1
 523 41 l 2
 540 41 546 37 546 25 c 0
 546 10 534 0 514 0 c 2
 419 0 l 1
443 112 m 1
 462 202 l 1
 427 211 382 217 337 217 c 0
 222 217 135 165 135 96 c 0
 135 51 170 25 231 25 c 0
 304 25 361 49 443 112 c 1
324 610 m 1
 322 581 l 1
 322 577 338 557 345 551 c 0
 360 539 388 530 414 530 c 0
 467 530 520 560 532 598 c 0
 537 613 545 621 557 621 c 0
 565 621 574 612 574 605 c 0
 574 588 552 552 532 534 c 0
 500 506 451 489 404 489 c 0
 332 489 280 528 280 584 c 0
 280 604 293 621 307 621 c 0
 313 621 317 619 324 610 c 1
EndSplineSet
EndChar
StartChar: Aogonek
Encoding: 260 260
Width: 600
Flags: W
HStem: -155 30<466.5 490> 0 41<45 76 117 187 417 493> 188 41<227 462> 522 41<246 357 397 397 397 412>
VStem: 13 206<17.5 24.5> 385 210 403 42<-108.5 -96>
Fore
449 563 m 1
 536 41 l 1
 573 41 l 2
 590 41 596 37 596 25 c 0
 596 11 587 2 569 0 c 0
 553 -2 523 -16 495 -32 c 0
 464 -51 445 -77 445 -100 c 0
 445 -117 456 -125 477 -125 c 0
 503 -125 509 -123 532 -107 c 0
 535 -105 539 -104 542 -104 c 0
 547 -104 553 -110 553 -116 c 0
 553 -135 510 -155 470 -155 c 0
 427 -155 403 -138 403 -108 c 0
 403 -84 417 -58 441 -39 c 0
 455 -27 465 -22 509 0 c 1
 408 0 l 2
 392 0 385 5 385 16 c 0
 385 32 397 41 417 41 c 2
 493 41 l 1
 468 188 l 1
 203 188 l 1
 117 41 l 1
 196 41 l 2
 213 41 219 37 219 25 c 0
 219 10 206 0 187 0 c 2
 36 0 l 2
 20 0 13 5 13 17 c 0
 13 32 25 41 45 41 c 2
 76 41 l 1
 357 522 l 1
 237 522 l 2
 221 522 214 527 214 538 c 0
 214 554 226 563 246 563 c 2
 449 563 l 1
462 229 m 1
 412 522 l 1
 397 522 l 1
 227 229 l 1
 462 229 l 1
EndSplineSet
EndChar
StartChar: aogonek
Encoding: 261 261
Width: 600
Flags: W
HStem: -155 32<443.5 463.5> -16 41<200.5 260> 0 41<469 477> 217 41<279.5 359.5> 390 41<372 411.5>
VStem: 93 42<73.5 130.5> 378 40<-107 -94> 486 42<326.5 342.5>
Fore
469 41 m 1
 523 41 l 2
 540 41 546 37 546 25 c 0
 546 13 539 6 523 -1 c 0
 456 -29 418 -64 418 -99 c 0
 418 -115 431 -123 456 -123 c 0
 474 -123 483 -121 508 -107 c 0
 511 -105 515 -104 517 -104 c 0
 523 -104 528 -109 528 -116 c 0
 528 -134 484 -155 443 -155 c 0
 402 -155 378 -138 378 -109 c 0
 378 -79 396 -49 427 -26 c 0
 440 -17 448 -13 477 0 c 1
 419 0 l 1
 433 67 l 1
 360 10 295 -16 225 -16 c 0
 143 -16 93 23 93 87 c 0
 93 184 200 258 338 258 c 0
 384 258 414 253 470 237 c 1
 485 308 l 2
 486 313 486 316 486 322 c 0
 486 363 444 390 379 390 c 0
 345 390 304 382 231 360 c 0
 226 359 223 358 220 358 c 0
 212 358 205 365 205 374 c 0
 205 384 211 392 223 397 c 0
 259 412 353 431 391 431 c 0
 472 431 528 390 528 331 c 0
 528 322 527 316 526 308 c 1
 469 41 l 1
443 112 m 1
 462 202 l 1
 427 211 382 217 337 217 c 0
 222 217 135 165 135 96 c 0
 135 51 170 25 231 25 c 0
 304 25 361 49 443 112 c 1
EndSplineSet
EndChar
StartChar: Cacute
Encoding: 262 262
Width: 600
Flags: MW
HStem: -16 41<277.5 354> 536 40<394.5 441.5>
VStem: 110 42<152 204>
Fore
586 507 m 1
 592 536 l 2
 596 554 605 563 618 563 c 0
 628 563 635 557 635 548 c 0
 635 546 634 541 633 536 c 2
 609 424 l 1
 606 406 596 396 583 396 c 0
 577 396 572 399 566 408 c 1
 570 446 l 1
 570 449 546 486 538 494 c 0
 515 518 464 536 419 536 c 0
 309 536 197 438 172 319 c 2
 157 248 l 2
 154 233 152 217 152 203 c 0
 152 101 227 25 328 25 c 0
 397 25 454 51 522 115 c 0
 530 123 534 125 542 125 c 0
 552 125 558 119 558 111 c 0
 558 100 551 91 524 67 c 0
 461 14 389 -16 319 -16 c 0
 201 -16 110 76 110 196 c 0
 110 212 112 227 115 242 c 2
 132 325 l 1
 145 386 188 455 242 502 c 0
 296 550 361 576 428 576 c 0
 494 576 549 552 586 507 c 1
555 749 m 2
 421 649 l 2
 415 644 405 640 401 640 c 0
 390 640 383 647 383 657 c 0
 383 664 388 671 400 680 c 2
 535 780 l 2
 544 787 549 789 556 789 c 0
 565 789 572 781 572 772 c 0
 572 765 567 758 555 749 c 2
EndSplineSet
EndChar
StartChar: cacute
Encoding: 263 263
Width: 600
Flags: MW
HStem: -17 41<268.5 335> 391 41<358 413>
VStem: 121 42<121.5 186>
Fore
551 376 m 1
 554 389 l 1
 557 408 566 417 580 417 c 0
 589 417 596 410 596 402 c 0
 596 399 595 395 594 389 c 1
 575 298 l 2
 571 280 562 270 549 270 c 0
 542 270 537 273 532 282 c 1
 535 318 l 1
 535 323 510 353 498 362 c 0
 477 379 433 391 393 391 c 0
 323 391 258 360 216 306 c 0
 183 264 163 210 163 162 c 0
 163 81 225 24 312 24 c 0
 387 24 460 50 519 97 c 0
 527 104 534 108 539 108 c 0
 546 108 555 99 555 91 c 0
 555 79 534 59 501 39 c 0
 442 3 369 -17 301 -17 c 0
 196 -17 121 53 121 152 c 0
 121 301 253 432 403 432 c 0
 465 432 516 413 551 376 c 1
560 599 m 2
 425 499 l 2
 416 493 410 490 405 490 c 0
 395 490 388 497 388 506 c 0
 388 515 392 520 405 530 c 2
 540 630 l 2
 550 637 555 639 561 639 c 0
 570 639 577 632 577 623 c 0
 577 614 573 608 560 599 c 2
EndSplineSet
EndChar
StartChar: Ccaron
Encoding: 268 268
Width: 600
Flags: MW
HStem: -16 41<277.5 354> 536 40<394.5 441.5>
VStem: 110 42<152 204>
Fore
586 507 m 1
 592 536 l 2
 596 554 605 563 618 563 c 0
 628 563 635 557 635 548 c 0
 635 546 634 541 633 536 c 2
 609 424 l 1
 606 406 596 396 583 396 c 0
 577 396 572 399 566 408 c 1
 570 446 l 1
 570 449 546 486 538 494 c 0
 515 518 464 536 419 536 c 0
 309 536 197 438 172 319 c 2
 157 248 l 2
 154 233 152 217 152 203 c 0
 152 101 227 25 328 25 c 0
 397 25 454 51 522 115 c 0
 530 123 534 125 542 125 c 0
 552 125 558 119 558 111 c 0
 558 100 551 91 524 67 c 0
 461 14 389 -16 319 -16 c 0
 201 -16 110 76 110 196 c 0
 110 212 112 227 115 242 c 2
 132 325 l 1
 145 386 188 455 242 502 c 0
 296 550 361 576 428 576 c 0
 494 576 549 552 586 507 c 1
458 640 m 1
 348 749 l 1
 340 753 338 757 338 766 c 0
 338 775 351 789 360 789 c 2
 363 789 l 1
 368 789 l 2
 371 789 372 788 379 781 c 2
 468 690 l 1
 593 781 l 2
 596 783 610 789 612 789 c 0
 621 789 628 783 628 774 c 0
 628 763 623 755 614 751 c 2
 610 749 l 1
 458 640 l 1
EndSplineSet
EndChar
StartChar: ccaron
Encoding: 269 269
Width: 600
Flags: MW
HStem: -17 41<268.5 335> 391 41<358 413>
VStem: 121 42<121.5 186>
Fore
551 376 m 1
 554 389 l 1
 557 408 566 417 580 417 c 0
 589 417 596 410 596 402 c 0
 596 399 595 395 594 389 c 1
 575 298 l 2
 571 280 562 270 549 270 c 0
 542 270 537 273 532 282 c 1
 535 318 l 1
 535 323 510 353 498 362 c 0
 477 379 433 391 393 391 c 0
 323 391 258 360 216 306 c 0
 183 264 163 210 163 162 c 0
 163 81 225 24 312 24 c 0
 387 24 460 50 519 97 c 0
 527 104 534 108 539 108 c 0
 546 108 555 99 555 91 c 0
 555 79 534 59 501 39 c 0
 442 3 369 -17 301 -17 c 0
 196 -17 121 53 121 152 c 0
 121 301 253 432 403 432 c 0
 465 432 516 413 551 376 c 1
404 490 m 1
 296 599 l 1
 288 605 286 608 286 614 c 0
 286 627 298 639 311 639 c 0
 316 639 321 636 327 631 c 2
 415 543 l 1
 542 631 l 2
 549 636 556 639 561 639 c 0
 570 639 577 632 577 623 c 0
 577 613 573 608 559 598 c 2
 404 490 l 1
EndSplineSet
EndChar
StartChar: Dcaron
Encoding: 270 270
Width: 600
Flags: MW
HStem: 0 41<79 113 154 290> 522 41<190 215 256 256 256 399>
VStem: 551 41<358 378>
Fore
113 41 m 1
 215 522 l 1
 181 522 l 2
 165 522 158 527 158 538 c 0
 158 554 170 563 190 563 c 2
 410 563 l 2
 519 563 592 484 592 368 c 0
 592 348 590 329 586 310 c 2
 574 254 l 2
 544 112 419 0 290 0 c 2
 70 0 l 2
 54 0 47 5 47 16 c 0
 47 32 59 41 79 41 c 2
 113 41 l 1
154 41 m 1
 303 41 l 2
 399 41 508 139 531 245 c 2
 547 318 l 1
 549 332 551 346 551 357 c 0
 551 399 538 440 514 472 c 0
 488 507 453 522 399 522 c 2
 256 522 l 1
 154 41 l 1
398 640 m 1
 288 749 l 1
 280 753 278 757 278 766 c 0
 278 775 291 789 300 789 c 2
 303 789 l 1
 308 789 l 2
 311 789 312 788 319 781 c 2
 408 690 l 1
 533 781 l 2
 536 783 550 789 552 789 c 0
 561 789 568 783 568 774 c 0
 568 763 563 755 554 751 c 2
 550 749 l 1
 398 640 l 1
EndSplineSet
EndChar
StartChar: dcaron
Encoding: 271 271
Width: 600
Flags: W
HStem: -16 41<245 312> 0 41<510 556> 390 41<308 407.5> 563 41<535 580>
VStem: 102 42<126.5 226.5>
Fore
630 604 m 1
 510 41 l 1
 565 41 l 2
 581 41 587 37 587 25 c 0
 587 10 575 0 556 0 c 2
 461 0 l 1
 480 89 l 1
 417 18 350 -16 274 -16 c 0
 176 -16 102 58 102 157 c 0
 102 299 232 431 371 431 c 0
 446 431 496 398 530 327 c 1
 580 563 l 1
 526 563 l 2
 509 563 503 567 503 580 c 0
 503 595 515 604 535 604 c 2
 630 604 l 1
365 390 m 0
 251 390 144 284 144 169 c 0
 144 84 203 25 287 25 c 0
 403 25 509 132 509 248 c 0
 509 331 450 390 365 390 c 0
762 580 m 2
 652 455 l 2
 644 445 635 440 627 440 c 0
 619 440 611 448 611 455 c 0
 611 461 615 469 622 477 c 2
 733 603 l 2
 742 614 749 618 758 618 c 0
 766 618 774 611 774 603 c 0
 774 596 771 590 762 580 c 2
EndSplineSet
EndChar
StartChar: Dcroat
Encoding: 272 272
Width: 600
Flags: MW
HStem: 0 41<79 113 154 290> 272 41<94 162 212 365> 522 41<190 215 256 399 256 256>
VStem: 62 334 551 41<356.5 378>
Fore
162 272 m 1
 85 272 l 2
 69 272 62 277 62 288 c 0
 62 304 74 313 94 313 c 2
 171 313 l 1
 215 522 l 1
 181 522 l 2
 165 522 158 527 158 538 c 0
 158 554 170 563 190 563 c 2
 410 563 l 2
 516 563 592 481 592 366 c 0
 592 347 590 329 586 310 c 2
 574 254 l 2
 544 115 416 0 290 0 c 2
 70 0 l 2
 54 0 47 5 47 16 c 0
 47 32 59 41 79 41 c 2
 113 41 l 1
 162 272 l 1
256 522 m 1
 212 313 l 1
 374 313 l 2
 391 313 397 309 397 297 c 0
 397 282 385 272 365 272 c 2
 203 272 l 1
 154 41 l 1
 303 41 l 2
 398 41 509 140 531 245 c 1
 547 319 l 1
 550 331 551 345 551 357 c 0
 551 399 538 440 514 472 c 0
 488 507 453 522 399 522 c 2
 256 522 l 1
EndSplineSet
EndChar
StartChar: dcroat
Encoding: 273 273
Width: 600
Flags: W
HStem: -16 41<245 312> 0 41<510 556> 390 41<308 407.5> 479 41<434 562 612 657> 563 41<535 580>
VStem: 102 42<126.5 226.5> 401 288
Fore
612 520 m 1
 666 520 l 2
 684 520 690 516 690 504 c 0
 690 487 680 479 657 479 c 2
 603 479 l 1
 510 41 l 1
 565 41 l 2
 581 41 587 37 587 25 c 0
 587 10 575 0 556 0 c 2
 461 0 l 1
 480 89 l 1
 417 18 350 -16 274 -16 c 0
 176 -16 102 58 102 157 c 0
 102 299 232 431 371 431 c 0
 446 431 496 398 530 327 c 1
 562 479 l 1
 425 479 l 2
 407 479 401 483 401 494 c 0
 401 511 413 520 434 520 c 2
 571 520 l 1
 580 563 l 1
 526 563 l 2
 509 563 503 567 503 580 c 0
 503 595 515 604 535 604 c 2
 630 604 l 1
 612 520 l 1
365 390 m 0
 251 390 144 284 144 169 c 0
 144 84 203 25 287 25 c 0
 403 25 509 132 509 248 c 0
 509 331 450 390 365 390 c 0
EndSplineSet
EndChar
StartChar: Emacron
Encoding: 274 274
Width: 600
Flags: MW
HStem: 0 41<79 133 174 488> 272 41<232 368> 522 41<190 235 276 276 276 569> 683 40<326 553>
VStem: 294 291<699.5 706.5>
Fore
223 272 m 1
 174 41 l 1
 488 41 l 1
 513 160 l 2
 517 178 526 187 540 187 c 0
 549 187 556 180 556 172 c 0
 556 169 555 165 554 160 c 2
 520 0 l 1
 70 0 l 2
 54 0 47 5 47 17 c 0
 47 32 59 41 79 41 c 2
 133 41 l 1
 235 522 l 1
 181 522 l 2
 165 522 158 527 158 539 c 0
 158 554 170 563 190 563 c 2
 619 563 l 1
 589 424 l 1
 586 406 577 397 563 397 c 0
 554 397 547 404 547 412 c 1
 548 424 l 1
 569 522 l 1
 276 522 l 1
 232 313 l 1
 377 313 l 1
 386 358 l 1
 390 376 399 385 412 385 c 0
 422 385 429 378 429 370 c 0
 429 368 428 362 427 358 c 2
 399 227 l 1
 396 209 387 200 373 200 c 0
 364 200 357 207 357 215 c 1
 358 227 l 1
 368 272 l 1
 223 272 l 1
553 683 m 2
 317 683 l 2
 301 683 294 688 294 699 c 0
 294 714 306 723 326 723 c 2
 562 723 l 2
 578 723 585 718 585 707 c 0
 585 692 573 683 553 683 c 2
EndSplineSet
EndChar
StartChar: emacron
Encoding: 275 275
Width: 600
Flags: W
HStem: -16 41<261.5 332> 199 41<155 529> 390 41<326 420.5> 536 40<305 532>
VStem: 104 41<132 179> 273 291<552.5 559.5> 530 40<255 292.5>
Fore
562 199 m 1
 146 199 l 1
 145 189 145 181 145 177 c 0
 145 87 213 25 310 25 c 0
 373 25 450 47 498 79 c 0
 507 84 511 86 516 86 c 0
 525 86 531 79 531 70 c 0
 531 58 521 48 491 32 c 0
 437 2 364 -16 300 -16 c 0
 184 -16 104 60 104 171 c 0
 104 309 235 431 383 431 c 0
 492 431 570 361 570 262 c 0
 570 248 567 224 562 199 c 1
155 240 m 1
 529 240 l 1
 530 245 530 250 530 252 c 0
 530 333 466 390 375 390 c 0
 277 390 192 332 155 240 c 1
532 536 m 2
 296 536 l 2
 280 536 273 541 273 552 c 0
 273 567 285 576 305 576 c 2
 541 576 l 2
 557 576 564 571 564 560 c 0
 564 545 552 536 532 536 c 2
EndSplineSet
EndChar
StartChar: Edotaccent
Encoding: 278 278
Width: 600
Flags: MW
HStem: 0 41<79 133 174 488> 272 41<232 368> 522 41<190 235 276 276 276 569> 661 101<429 437.5>
VStem: 383 101<706 716.5>
Fore
223 272 m 1
 174 41 l 1
 488 41 l 1
 513 160 l 2
 517 178 526 187 540 187 c 0
 549 187 556 180 556 172 c 0
 556 169 555 165 554 160 c 2
 520 0 l 1
 70 0 l 2
 54 0 47 5 47 17 c 0
 47 32 59 41 79 41 c 2
 133 41 l 1
 235 522 l 1
 181 522 l 2
 165 522 158 527 158 539 c 0
 158 554 170 563 190 563 c 2
 619 563 l 1
 589 424 l 1
 586 406 577 397 563 397 c 0
 554 397 547 404 547 412 c 1
 548 424 l 1
 569 522 l 1
 276 522 l 1
 232 313 l 1
 377 313 l 1
 386 358 l 1
 390 376 399 385 412 385 c 0
 422 385 429 378 429 370 c 0
 429 368 428 362 427 358 c 2
 399 227 l 1
 396 209 387 200 373 200 c 0
 364 200 357 207 357 215 c 1
 358 227 l 1
 368 272 l 1
 223 272 l 1
444 762 m 0
 467 762 484 745 484 721 c 0
 484 691 453 661 422 661 c 0
 401 661 383 680 383 702 c 0
 383 731 414 762 444 762 c 0
EndSplineSet
EndChar
StartChar: edotaccent
Encoding: 279 279
Width: 600
Flags: MW
HStem: -16 41<261.5 332> 199 41<155 529> 390 41<326 420.5> 511 100<413.5 424>
VStem: 104 41<132 179> 368 102<555.5 566> 530 40<255 292.5>
Fore
562 199 m 1
 146 199 l 1
 145 189 145 181 145 177 c 0
 145 87 213 25 310 25 c 0
 373 25 450 47 498 79 c 0
 507 84 511 86 516 86 c 0
 525 86 531 79 531 70 c 0
 531 58 521 48 491 32 c 0
 437 2 364 -16 300 -16 c 0
 184 -16 104 60 104 171 c 0
 104 309 235 431 383 431 c 0
 492 431 570 361 570 262 c 0
 570 248 567 224 562 199 c 1
155 240 m 1
 529 240 l 1
 530 245 530 250 530 252 c 0
 530 333 466 390 375 390 c 0
 277 390 192 332 155 240 c 1
429 611 m 0
 453 611 470 594 470 571 c 0
 470 540 440 511 408 511 c 0
 385 511 368 528 368 551 c 0
 368 581 398 611 429 611 c 0
EndSplineSet
EndChar
StartChar: Eogonek
Encoding: 280 280
Width: 600
Flags: MW
HStem: -155 30<414.5 438> 0 41<79 133 174 458> 272 41<232 368> 522 41<190 235 276 276 276 569>
VStem: 351 42<-108 -95.5>
Fore
174 41 m 1
 488 41 l 1
 513 160 l 2
 517 178 526 187 540 187 c 0
 549 187 556 180 556 172 c 0
 556 169 555 165 554 160 c 2
 520 0 l 1
 440 -23 393 -60 393 -100 c 0
 393 -116 404 -125 425 -125 c 0
 451 -125 457 -123 480 -107 c 0
 483 -105 487 -104 490 -104 c 0
 495 -104 501 -110 501 -116 c 0
 501 -135 458 -155 418 -155 c 0
 375 -155 351 -138 351 -108 c 0
 351 -83 365 -58 389 -39 c 0
 403 -27 413 -22 458 0 c 1
 70 0 l 2
 54 0 47 5 47 17 c 0
 47 32 59 41 79 41 c 2
 133 41 l 1
 235 522 l 1
 181 522 l 2
 165 522 158 527 158 539 c 0
 158 554 170 563 190 563 c 2
 619 563 l 1
 589 424 l 1
 586 406 577 397 563 397 c 0
 554 397 547 404 547 412 c 1
 548 424 l 1
 569 522 l 1
 276 522 l 1
 232 313 l 1
 377 313 l 1
 386 358 l 1
 390 376 399 385 412 385 c 0
 422 385 429 378 429 370 c 0
 429 368 428 362 427 358 c 2
 399 227 l 1
 396 209 387 200 373 200 c 0
 364 200 357 207 357 215 c 1
 358 227 l 1
 368 272 l 1
 223 272 l 1
 174 41 l 1
EndSplineSet
EndChar
StartChar: eogonek
Encoding: 281 281
Width: 600
Flags: MW
HStem: -155 32<350.5 370.5> -16 41<261.5 310> 199 41<155 529> 390 41<326 420.5>
VStem: 104 41<132 179> 285 40<-107 -90> 530 40<255 292.5>
Fore
562 199 m 1
 146 199 l 1
 145 189 145 181 145 177 c 0
 145 87 213 25 310 25 c 0
 373 25 450 47 498 79 c 0
 507 84 511 86 516 86 c 0
 525 86 531 79 531 70 c 0
 531 56 516 43 473 22 c 0
 355 -35 325 -59 325 -99 c 0
 325 -115 338 -123 363 -123 c 0
 381 -123 390 -121 415 -107 c 0
 418 -105 422 -104 424 -104 c 0
 430 -104 435 -109 435 -116 c 0
 435 -134 391 -155 350 -155 c 0
 309 -155 285 -138 285 -109 c 0
 285 -71 313 -34 359 -11 c 1
 333 -15 319 -16 301 -16 c 0
 184 -16 104 60 104 171 c 0
 104 309 235 431 383 431 c 0
 492 431 570 361 570 262 c 0
 570 248 567 224 562 199 c 1
155 240 m 1
 529 240 l 1
 530 245 530 250 530 252 c 0
 530 333 466 390 375 390 c 0
 277 390 192 332 155 240 c 1
EndSplineSet
EndChar
StartChar: Ecaron
Encoding: 282 282
Width: 600
Flags: MW
HStem: 0 41<79 133 174 488> 272 41<232 368> 522 41<190 235 276 276 276 569>
Fore
223 272 m 1
 174 41 l 1
 488 41 l 1
 513 160 l 2
 517 178 526 187 540 187 c 0
 549 187 556 180 556 172 c 0
 556 169 555 165 554 160 c 2
 520 0 l 1
 70 0 l 2
 54 0 47 5 47 17 c 0
 47 32 59 41 79 41 c 2
 133 41 l 1
 235 522 l 1
 181 522 l 2
 165 522 158 527 158 539 c 0
 158 554 170 563 190 563 c 2
 619 563 l 1
 589 424 l 1
 586 406 577 397 563 397 c 0
 554 397 547 404 547 412 c 1
 548 424 l 1
 569 522 l 1
 276 522 l 1
 232 313 l 1
 377 313 l 1
 386 358 l 1
 390 376 399 385 412 385 c 0
 422 385 429 378 429 370 c 0
 429 368 428 362 427 358 c 2
 399 227 l 1
 396 209 387 200 373 200 c 0
 364 200 357 207 357 215 c 1
 358 227 l 1
 368 272 l 1
 223 272 l 1
408 640 m 1
 298 749 l 1
 290 753 288 757 288 766 c 0
 288 775 301 789 310 789 c 2
 313 789 l 1
 318 789 l 2
 321 789 322 788 329 781 c 2
 418 690 l 1
 543 781 l 2
 546 783 560 789 562 789 c 0
 571 789 578 783 578 774 c 0
 578 763 573 755 564 751 c 2
 560 749 l 1
 408 640 l 1
EndSplineSet
EndChar
StartChar: ecaron
Encoding: 283 283
Width: 600
Flags: MW
HStem: -16 41<261.5 332> 199 41<155 529> 390 41<326 420.5>
VStem: 104 41<132 179> 530 40<255 292.5>
Fore
562 199 m 1
 146 199 l 1
 145 189 145 181 145 177 c 0
 145 87 213 25 310 25 c 0
 373 25 450 47 498 79 c 0
 507 84 511 86 516 86 c 0
 525 86 531 79 531 70 c 0
 531 58 521 48 491 32 c 0
 437 2 364 -16 300 -16 c 0
 184 -16 104 60 104 171 c 0
 104 309 235 431 383 431 c 0
 492 431 570 361 570 262 c 0
 570 248 567 224 562 199 c 1
155 240 m 1
 529 240 l 1
 530 245 530 250 530 252 c 0
 530 333 466 390 375 390 c 0
 277 390 192 332 155 240 c 1
404 490 m 1
 296 599 l 1
 288 605 286 608 286 614 c 0
 286 627 298 639 311 639 c 0
 316 639 321 636 327 631 c 2
 415 543 l 1
 542 631 l 2
 549 636 556 639 561 639 c 0
 570 639 577 632 577 623 c 0
 577 613 573 608 559 598 c 2
 404 490 l 1
EndSplineSet
EndChar
StartChar: Gbreve
Encoding: 286 286
Width: 600
Flags: MW
HStem: -16 41<281.5 361> 209 41<394 524 565 579 565 565> 536 40<370.5 448> 647 41<463.5 505>
VStem: 108 42<136.5 189.5> 362 250<226.5 233>
Fore
565 209 m 1
 528 36 l 1
 462 2 392 -16 330 -16 c 0
 193 -16 108 59 108 179 c 0
 108 200 110 222 115 244 c 2
 131 318 l 2
 162 463 295 576 436 576 c 0
 502 576 553 558 590 522 c 1
 593 536 l 2
 597 554 606 563 619 563 c 0
 629 563 636 556 636 548 c 0
 636 545 636 544 634 536 c 1
 615 445 l 2
 611 427 601 417 588 417 c 0
 583 417 578 421 572 429 c 1
 575 465 l 1
 576 471 552 499 537 508 c 1
 513 525 468 536 428 536 c 0
 313 536 197 438 172 317 c 1
 156 244 l 1
 152 224 150 206 150 187 c 0
 150 86 222 25 341 25 c 0
 393 25 430 33 492 59 c 1
 524 209 l 1
 385 209 l 2
 369 209 362 214 362 225 c 0
 362 241 374 250 394 250 c 2
 588 250 l 2
 605 250 612 245 612 234 c 0
 612 219 599 209 579 209 c 2
 565 209 l 1
378 777 m 0
 383 777 386 775 390 771 c 0
 393 767 393 767 395 736 c 0
 396 712 441 688 486 688 c 0
 546 688 596 715 613 755 c 0
 621 773 625 777 638 777 c 0
 649 777 656 771 656 761 c 0
 656 741 638 713 612 692 c 0
 576 662 531 647 479 647 c 0
 397 647 351 682 351 744 c 0
 351 764 362 777 378 777 c 0
EndSplineSet
EndChar
StartChar: gbreve
Encoding: 287 287
Width: 600
Flags: W
HStem: -186 41<171 277> 10 41<242 307.5> 376 41<561 615 561 561> 390 41<300.5 394.5> 489 41<401 427.5>
VStem: 105 42<146 238.5> 280 42<579 581>
Fore
511 334 m 1
 529 417 l 1
 624 417 l 2
 641 417 647 413 647 401 c 0
 647 386 635 376 615 376 c 2
 561 376 l 1
 475 -28 l 1
 466 -69 447 -100 410 -132 c 0
 367 -170 326 -186 277 -186 c 2
 162 -186 l 2
 146 -186 139 -181 139 -170 c 0
 139 -154 151 -145 171 -145 c 2
 287 -145 l 2
 355 -145 421 -90 435 -22 c 1
 463 107 l 1
 403 40 344 10 271 10 c 0
 174 10 105 79 105 177 c 0
 105 307 230 431 361 431 c 0
 433 431 480 401 511 334 c 1
354 390 m 0
 247 390 147 291 147 186 c 0
 147 106 202 51 282 51 c 0
 392 51 491 150 491 258 c 0
 491 336 435 390 354 390 c 0
324 610 m 1
 322 581 l 1
 322 577 338 557 345 551 c 0
 360 539 388 530 414 530 c 0
 467 530 520 560 532 598 c 0
 537 613 545 621 557 621 c 0
 565 621 574 612 574 605 c 0
 574 588 552 552 532 534 c 0
 500 506 451 489 404 489 c 0
 332 489 280 528 280 584 c 0
 280 604 293 621 307 621 c 0
 313 621 317 619 324 610 c 1
EndSplineSet
EndChar
StartChar: Gcommaaccent
Encoding: 290 290
Width: 600
Flags: MW
HStem: -16 41<281.5 361> 209 41<394 524 565 579 565 565> 536 40<370.5 448>
VStem: 108 42<136.5 189.5> 362 250<226.5 233>
Fore
565 209 m 1
 528 36 l 1
 462 2 392 -16 330 -16 c 0
 193 -16 108 59 108 179 c 0
 108 200 110 222 115 244 c 2
 131 318 l 2
 162 463 295 576 436 576 c 0
 502 576 553 558 590 522 c 1
 593 536 l 2
 597 554 606 563 619 563 c 0
 629 563 636 556 636 548 c 0
 636 545 636 544 634 536 c 1
 615 445 l 2
 611 427 601 417 588 417 c 0
 583 417 578 421 572 429 c 1
 575 465 l 1
 576 471 552 499 537 508 c 1
 513 525 468 536 428 536 c 0
 313 536 197 438 172 317 c 1
 156 244 l 1
 152 224 150 206 150 187 c 0
 150 86 222 25 341 25 c 0
 393 25 430 33 492 59 c 1
 524 209 l 1
 385 209 l 2
 369 209 362 214 362 225 c 0
 362 241 374 250 394 250 c 2
 588 250 l 2
 605 250 612 245 612 234 c 0
 612 219 599 209 579 209 c 2
 565 209 l 1
310 -97 m 1
 200 -223 l 2
 192 -232 183 -237 175 -237 c 0
 167 -237 159 -229 159 -222 c 0
 159 -216 163 -209 170 -200 c 2
 281 -74 l 2
 290 -64 297 -60 306 -60 c 0
 314 -60 322 -67 322 -75 c 0
 322 -81 319 -88 310 -97 c 1
EndSplineSet
EndChar
StartChar: gcommaaccent
Encoding: 291 291
Width: 600
Flags: W
HStem: -186 41<171 277> 10 41<242 307.5> 376 41<561 615 561 561> 390 41<300.5 394.5>
VStem: 105 42<146 238.5>
Fore
511 334 m 1
 529 417 l 1
 624 417 l 2
 641 417 647 413 647 401 c 0
 647 386 635 376 615 376 c 2
 561 376 l 1
 475 -28 l 1
 466 -69 447 -100 410 -132 c 0
 367 -170 326 -186 277 -186 c 2
 162 -186 l 2
 146 -186 139 -181 139 -170 c 0
 139 -154 151 -145 171 -145 c 2
 287 -145 l 2
 355 -145 421 -90 435 -22 c 1
 463 107 l 1
 403 40 344 10 271 10 c 0
 174 10 105 79 105 177 c 0
 105 307 230 431 361 431 c 0
 433 431 480 401 511 334 c 1
354 390 m 0
 247 390 147 291 147 186 c 0
 147 106 202 51 282 51 c 0
 392 51 491 150 491 258 c 0
 491 336 435 390 354 390 c 0
506 630 m 2
 396 505 l 2
 388 495 379 490 371 490 c 0
 363 490 355 498 355 505 c 0
 355 511 359 519 366 527 c 2
 477 653 l 2
 486 664 493 668 502 668 c 0
 510 668 518 661 518 653 c 0
 518 646 515 640 506 630 c 2
EndSplineSet
EndChar
StartChar: Hbar
Encoding: 294 294
Width: 600
Flags: W
HStem: 0 41<80 135 177 230 382 446 488 533> 272 41<235 494> 405 40<191 211 265 521 574 583> 522 41<211 236 278 342 493 547 589 624>
VStem: 57.0159 195.984<16 25> 157.245 460.755<421 429> 189 174.036<538 547> 360.016 195.984<16 25> 471 174.036<538 547>
DStem: 212.189 405 253.368 405 135 41 234 313 212.189 405 564.189 405 135 41 487 41 212.189 405 225 272 135 41 176 41 237 522 278 522 220.672 445 261.789 445 495 272 564.189 405 446 41 487 41 523.368 405 564.189 405 504 313 487 41 548 522 589 522 531.789 445 572.672 445
Fore
572.672 445 m 1
 581.581 445 l 2
 606.916 445 618 440 618 429 c 0
 618 414 598.999 405 567.33 405 c 2
 564.189 405 l 1
 487 41 l 1
 532 41 l 2
 550 41 556 37 556 25 c 0
 556 10 543 0 524 0 c 2
 383 0 l 2
 367 0 360 5 360 16 c 0
 360 32 372 41 392 41 c 2
 446 41 l 1
 495 272 l 1
 225 272 l 1
 176 41 l 1
 230 41 l 2
 247 41 253 37 253 25 c 0
 253 10 240 0 221 0 c 2
 81 0 l 2
 64 0 57 5 57 16 c 0
 57 32 69 41 89 41 c 2
 135 41 l 1
 212.189 405 l 1
 193.636 405 l 2
 168.301 405 157.217 410 157.217 421 c 0
 157.217 436 176.218 445 207.887 445 c 2
 220.672 445 l 1
 237 522 l 1
 212 522 l 2
 196 522 189 527 189 538 c 0
 189 554 201 563 221 563 c 2
 341 563 l 2
 358 563 364 559 364 547 c 0
 364 532 352 522 332 522 c 2
 278 522 l 1
 261.789 445 l 1
 531.789 445 l 1
 548 522 l 1
 494 522 l 2
 478 522 471 527 471 538 c 0
 471 554 483 563 503 563 c 2
 623 563 l 2
 640 563 646 559 646 547 c 0
 646 532 634 522 614 522 c 2
 589 522 l 1
 572.672 445 l 1
523.368 405 m 1
 253.368 405 l 1
 234 313 l 1
 504 313 l 1
 523.368 405 l 1
EndSplineSet
EndChar
StartChar: hbar
Encoding: 295 295
Width: 600
Flags: W
HStem: 0 41<77 133 175 220 391 446 488 533> 390 41<391 413> 473 40<154 221 279 351> 563 41<188 243>
VStem: 55.0735 187.927<17 25> 136.323 232.677<490 496> 369.073 186.927<17 25> 501 42<304 321>
DStem: 224.862 473 265.475 473 133 41 239 347 224.862 473 228 296 133 41 174 41 244 563 293 604 233.368 513 273.879 513 498 288 540 291 446 41 487 41
Fore
233.368 513 m 1
 244 563 l 1
 189 563 l 2
 173 563 167 567 167 580 c 0
 167 595 179 604 198 604 c 2
 293 604 l 1
 273.879 513 l 1
 350.609 513 l 2
 363.403 513 369 508 369 497 c 0
 369 482 359.405 473 343.413 473 c 2
 265.475 473 l 1
 239 347 l 1
 303 408 350 431 411 431 c 0
 491 431 543 387 543 319 c 0
 543 310 542 301 540 291 c 2
 487 41 l 1
 532 41 l 2
 549 41 556 36 556 25 c 0
 556 10 543 0 524 0 c 2
 392 0 l 2
 376 0 369 5 369 17 c 0
 369 32 381 41 400 41 c 2
 446 41 l 1
 498 288 l 1
 500 295 501 304 501 309 c 0
 501 330 493 349 477 364 c 0
 457 384 438 390 396 390 c 0
 341 390 309 373 241 309 c 2
 228 296 l 1
 174 41 l 1
 219 41 l 2
 236 41 243 36 243 25 c 0
 243 10 230 0 210 0 c 2
 78 0 l 2
 62 0 55 5 55 17 c 0
 55 32 67 41 87 41 c 2
 133 41 l 1
 224.862 473 l 1
 154.714 473 l 2
 141.92 473 136.323 478 136.323 489 c 0
 136.323 504 145.918 513 161.91 513 c 2
 233.368 513 l 1
EndSplineSet
MinimumDistance: x13,-1 
EndChar
StartChar: Imacron
Encoding: 298 298
Width: 600
Flags: W
HStem: 0 41<148 288 329 460> 522 41<259 390 431 571 431 431> 683 40<336 563>
VStem: 117 375<17.5 24> 304 291<699.5 706.5>
Fore
431 522 m 1
 329 41 l 1
 468 41 l 2
 486 41 492 37 492 25 c 0
 492 10 479 0 460 0 c 2
 140 0 l 2
 124 0 117 5 117 16 c 0
 117 32 129 41 148 41 c 2
 288 41 l 1
 390 522 l 1
 251 522 l 2
 235 522 228 527 228 538 c 0
 228 554 240 563 259 563 c 2
 579 563 l 2
 597 563 603 559 603 547 c 0
 603 532 590 522 571 522 c 2
 431 522 l 1
563 683 m 2
 327 683 l 2
 311 683 304 688 304 699 c 0
 304 714 316 723 336 723 c 2
 572 723 l 2
 588 723 595 718 595 707 c 0
 595 692 583 683 563 683 c 2
EndSplineSet
EndChar
StartChar: imacron
Encoding: 299 299
Width: 600
Flags: W
HStem: 0 41<127 288 329 481> 376 41<250 359> 536 40<305 532>
VStem: 96 417<17.5 24> 273 291<552.5 559.5>
Fore
409 417 m 1
 329 41 l 1
 489 41 l 2
 506 41 513 36 513 25 c 0
 513 10 500 0 481 0 c 2
 119 0 l 2
 103 0 96 5 96 16 c 0
 96 32 108 41 127 41 c 2
 288 41 l 1
 359 376 l 1
 241 376 l 2
 225 376 218 381 218 393 c 0
 218 408 230 417 250 417 c 2
 409 417 l 1
532 536 m 2
 296 536 l 2
 280 536 273 541 273 552 c 0
 273 567 285 576 305 576 c 2
 541 576 l 2
 557 576 564 571 564 560 c 0
 564 545 552 536 532 536 c 2
EndSplineSet
EndChar
StartChar: Iogonek
Encoding: 302 302
Width: 600
Flags: W
HStem: -155 30<366.5 390> 0 41<148 288 329 409> 522 41<259 390 431 571 431 431>
VStem: 228 375<539.5 546> 303 42<-108.5 -96>
Fore
431 522 m 1
 329 41 l 1
 468 41 l 2
 486 41 492 37 492 25 c 0
 492 19 489 13 485 8 c 0
 481 4 481 4 433 -13 c 0
 386 -28 345 -69 345 -100 c 0
 345 -117 356 -125 377 -125 c 0
 403 -125 409 -123 432 -107 c 0
 435 -105 439 -104 442 -104 c 0
 447 -104 453 -110 453 -116 c 0
 453 -135 410 -155 370 -155 c 0
 327 -155 303 -138 303 -108 c 0
 303 -84 317 -58 341 -39 c 0
 355 -27 365 -22 409 0 c 1
 140 0 l 2
 124 0 117 5 117 16 c 0
 117 32 129 41 148 41 c 2
 288 41 l 1
 390 522 l 1
 251 522 l 2
 235 522 228 527 228 538 c 0
 228 554 240 563 259 563 c 2
 579 563 l 2
 597 563 603 559 603 547 c 0
 603 532 590 522 571 522 c 2
 431 522 l 1
EndSplineSet
EndChar
StartChar: iogonek
Encoding: 303 303
Width: 600
Flags: MW
HStem: -155 32<410.5 430.5> 0 41<127 288 329 444> 376 41<250 359> 520 104<392 429>
VStem: 345 40<-107 -94>
Fore
409 417 m 1
 329 41 l 1
 489 41 l 2
 506 41 513 36 513 25 c 0
 513 14 506 6 490 -1 c 0
 422 -30 385 -64 385 -99 c 0
 385 -115 398 -123 423 -123 c 0
 441 -123 450 -121 475 -107 c 0
 478 -105 482 -104 484 -104 c 0
 490 -104 495 -109 495 -116 c 0
 495 -134 451 -155 410 -155 c 0
 369 -155 345 -138 345 -109 c 0
 345 -79 363 -49 394 -27 c 0
 407 -17 414 -13 444 0 c 1
 119 0 l 2
 103 0 96 5 96 16 c 0
 96 32 108 41 127 41 c 2
 288 41 l 1
 359 376 l 1
 241 376 l 2
 225 376 218 381 218 393 c 0
 218 408 230 417 250 417 c 2
 409 417 l 1
451 624 m 1
 429 520 l 1
 370 520 l 1
 392 624 l 1
 451 624 l 1
EndSplineSet
EndChar
StartChar: Idotaccent
Encoding: 304 304
Width: 600
Flags: W
HStem: 0 41<148 288 329 460> 522 41<259 390 431 571 431 431> 661 101<449 457.5>
VStem: 117 375<17.5 24> 403 101<706 716.5>
Fore
431 522 m 1
 329 41 l 1
 468 41 l 2
 486 41 492 37 492 25 c 0
 492 10 479 0 460 0 c 2
 140 0 l 2
 124 0 117 5 117 16 c 0
 117 32 129 41 148 41 c 2
 288 41 l 1
 390 522 l 1
 251 522 l 2
 235 522 228 527 228 538 c 0
 228 554 240 563 259 563 c 2
 579 563 l 2
 597 563 603 559 603 547 c 0
 603 532 590 522 571 522 c 2
 431 522 l 1
464 762 m 0
 487 762 504 745 504 721 c 0
 504 691 473 661 442 661 c 0
 421 661 403 680 403 702 c 0
 403 731 434 762 464 762 c 0
EndSplineSet
EndChar
StartChar: dotlessi
Encoding: 305 305
Width: 600
Flags: MW
HStem: 0 41<127 288 329 481> 376 41<250 359>
VStem: 96 417<17.5 24>
Fore
409 417 m 1
 329 41 l 1
 489 41 l 2
 506 41 513 36 513 25 c 0
 513 10 500 0 481 0 c 2
 119 0 l 2
 103 0 96 5 96 16 c 0
 96 32 108 41 127 41 c 2
 288 41 l 1
 359 376 l 1
 241 376 l 2
 225 376 218 381 218 393 c 0
 218 408 230 417 250 417 c 2
 409 417 l 1
EndSplineSet
EndChar
StartChar: IJ
Encoding: 306 306
Width: 600
Flags: W
HStem: -16 41<331 349> 0 41<49 108 150 199> 522 41<160 209 251 310 441 548 590 650>
VStem: 27.0159 194.984<16 25> 138.623 194.197<538 547> 418 253.036<538 547>
DStem: 210 522 251 522 108 41 149 41 251 223 292 223 219 74 264 93 549 522 590 522 473 165 514 165
Fore
251 522 m 1
 149 41 l 1
 198 41 l 2
 216 41 222 37 222 25 c 0
 222 10 209 0 190 0 c 2
 50 0 l 2
 34 0 27 5 27 16 c 0
 27 32 39 41 58 41 c 2
 108 41 l 1
 210 522 l 1
 161 522 l 2
 145 522 138 527 138 538 c 0
 138 554 150 563 169 563 c 2
 309 563 l 2
 327 563 333 559 333 547 c 0
 333 532 320 522 301 522 c 2
 251 522 l 1
590 522 m 1
 514 165 l 2
 493 67 440 -16 338 -16 c 0
 274 -16 260 0 219 74 c 1
 251 223 l 2
 255 241 263 250 277 250 c 0
 286 250 293 243 293 235 c 1
 292 223 l 1
 264 93 l 1
 290 44 297 25 347 25 c 0
 429 25 457 87 473 165 c 1
 549 522 l 1
 442 522 l 2
 425 522 418 527 418 538 c 0
 418 554 430 563 450 563 c 2
 649 563 l 2
 666 563 672 559 672 547 c 0
 672 532 660 522 640 522 c 2
 590 522 l 1
EndSplineSet
Ligature: I J
EndChar
StartChar: ij
Encoding: 307 307
Width: 600
Flags: W
HStem: -186 41<234 378> 0 41<56 188 230 353> 376 41<140 258 456 596> 520 104<285 322 588 625>
VStem: 34.6233 341.197<16 25>
DStem: 259 376 309 417 188 41 229 41 285 624 344 624 263 520 322 520 588 624 647 624 566 520 625 520 597 376 647 417 511 -28 552 -28
Fore
344 624 m 1
 322 520 l 1
 263 520 l 1
 285 624 l 1
 344 624 l 1
309 417 m 1
 229 41 l 1
 352 41 l 2
 369 41 376 36 376 25 c 0
 376 10 363 0 344 0 c 2
 57 0 l 2
 41 0 34 5 34 16 c 0
 34 32 46 41 65 41 c 2
 188 41 l 1
 259 376 l 1
 141 376 l 2
 125 376 118 381 118 393 c 0
 118 408 130 417 150 417 c 2
 309 417 l 1
597 376 m 1
 457 376 l 2
 440 376 433 381 433 392 c 0
 433 408 445 417 466 417 c 2
 647 417 l 1
 552 -28 l 1
 533 -121 455 -186 364 -186 c 2
 235 -186 l 2
 219 -186 212 -181 212 -170 c 0
 212 -154 224 -145 244 -145 c 2
 372 -145 l 2
 438 -145 497 -96 511 -28 c 1
 597 376 l 1
647 624 m 1
 625 520 l 1
 566 520 l 1
 588 624 l 1
 647 624 l 1
EndSplineSet
Ligature: i j
EndChar
StartChar: jcircumflex
Encoding: 309 309
Width: 600
HStem: -186 41<134 274> 376 41<256 496>
DStem: 497 376 547 417 411 -28 452 -28
Fore
497 376 m 1
 257 376 l 2
 240 376 233 381 233 392 c 0
 233 408 245 417 266 417 c 2
 547 417 l 1
 452 -28 l 1
 433 -121 355 -186 264 -186 c 2
 135 -186 l 2
 119 -186 112 -181 112 -170 c 0
 112 -154 124 -145 144 -145 c 2
 272 -145 l 2
 338 -145 397 -96 411 -28 c 1
 497 376 l 1
EndSplineSet
MinimumDistance: x4,-1 
Ref: 710 N 1 0 0 1 40.4568 74
EndChar
StartChar: Kcommaaccent
Encoding: 310 310
Width: 600
Flags: MW
HStem: 0 41<79 133 174 240 498 545> 522 41<190 235 276 276 276 351 519 556 613 613 613 630>
VStem: 158 225<539.5 546.5> 487 174
Fore
212 221 m 1
 174 41 l 1
 248 41 l 2
 265 41 272 36 272 25 c 0
 272 10 259 0 240 0 c 2
 70 0 l 2
 54 0 47 5 47 17 c 0
 47 32 59 41 79 41 c 2
 133 41 l 1
 235 522 l 1
 181 522 l 2
 165 522 158 527 158 539 c 0
 158 554 170 563 190 563 c 2
 359 563 l 2
 377 563 383 559 383 547 c 0
 383 532 371 522 351 522 c 2
 276 522 l 1
 223 273 l 1
 556 522 l 1
 511 522 l 2
 494 522 487 527 487 538 c 0
 487 554 499 563 519 563 c 2
 638 563 l 2
 656 563 662 559 662 547 c 0
 662 532 650 522 630 522 c 2
 613 522 l 1
 349 324 l 1
 437 284 464 233 498 41 c 1
 554 41 l 2
 570 41 577 36 577 25 c 0
 577 10 564 0 545 0 c 2
 459 0 l 1
 428 204 397 263 309 294 c 1
 212 221 l 1
310 -97 m 1
 200 -223 l 2
 192 -232 183 -237 175 -237 c 0
 167 -237 159 -229 159 -222 c 0
 159 -216 163 -209 170 -200 c 2
 281 -74 l 2
 290 -64 297 -60 306 -60 c 0
 314 -60 322 -67 322 -75 c 0
 322 -81 319 -88 310 -97 c 1
EndSplineSet
EndChar
StartChar: kcommaaccent
Encoding: 311 311
Width: 600
Flags: W
HStem: 0 41<99 153 392 420 478 514> 376 41<425 438 499 499 499 546> 563 41<218 264>
VStem: 360 186<17.5 24.5> 393 185<393 400.5>
Fore
223 180 m 1
 185 0 l 1
 90 0 l 2
 74 0 67 5 67 17 c 0
 67 32 79 41 99 41 c 2
 153 41 l 1
 264 563 l 1
 210 563 l 2
 193 563 187 567 187 580 c 0
 187 595 199 604 218 604 c 2
 314 604 l 1
 234 229 l 1
 438 376 l 1
 416 376 l 2
 400 376 393 381 393 393 c 0
 393 408 405 417 425 417 c 2
 554 417 l 2
 572 417 578 413 578 400 c 0
 578 386 565 376 546 376 c 2
 499 376 l 1
 314 245 l 1
 478 41 l 1
 523 41 l 2
 539 41 546 37 546 25 c 0
 546 10 533 0 514 0 c 2
 383 0 l 2
 367 0 360 5 360 17 c 0
 360 32 372 41 392 41 c 2
 420 41 l 1
 278 219 l 1
 223 180 l 1
310 -97 m 1
 200 -223 l 2
 192 -232 183 -237 175 -237 c 0
 167 -237 159 -229 159 -222 c 0
 159 -216 163 -209 170 -200 c 2
 281 -74 l 2
 290 -64 297 -60 306 -60 c 0
 314 -60 322 -67 322 -75 c 0
 322 -81 319 -88 310 -97 c 1
EndSplineSet
EndChar
StartChar: Lacute
Encoding: 313 313
Width: 600
Flags: MW
HStem: 0 41<99 195 236 508> 522 41<209 297 338 434 338 338>
VStem: 178 288<539.5 546.5>
Fore
338 522 m 1
 236 41 l 1
 508 41 l 1
 542 201 l 2
 546 219 555 228 568 228 c 0
 578 228 585 222 585 214 c 0
 585 211 584 206 583 201 c 2
 541 0 l 1
 90 0 l 2
 74 0 67 5 67 16 c 0
 67 32 79 41 99 41 c 2
 195 41 l 1
 297 522 l 1
 201 522 l 2
 184 522 178 527 178 539 c 0
 178 554 190 563 209 563 c 2
 443 563 l 2
 460 563 466 559 466 547 c 0
 466 532 454 522 434 522 c 2
 338 522 l 1
475 749 m 2
 341 649 l 2
 335 644 325 640 321 640 c 0
 310 640 303 647 303 657 c 0
 303 664 308 671 320 680 c 2
 455 780 l 2
 464 787 469 789 476 789 c 0
 485 789 492 781 492 772 c 0
 492 765 487 758 475 749 c 2
EndSplineSet
EndChar
StartChar: lacute
Encoding: 314 314
Width: 600
Flags: MW
HStem: 0 41<127 288 329 481> 563 41<291 399>
VStem: 96 417<17.5 24>
Fore
449 604 m 1
 329 41 l 1
 489 41 l 2
 506 41 513 36 513 25 c 0
 513 10 500 0 481 0 c 2
 119 0 l 2
 103 0 96 5 96 16 c 0
 96 32 108 41 127 41 c 2
 288 41 l 1
 399 563 l 1
 282 563 l 2
 265 563 259 567 259 579 c 0
 259 595 271 604 291 604 c 2
 449 604 l 1
555 749 m 2
 420 649 l 2
 411 643 405 640 400 640 c 0
 390 640 383 647 383 656 c 0
 383 665 387 670 400 680 c 2
 535 780 l 2
 545 787 550 789 556 789 c 0
 565 789 572 782 572 773 c 0
 572 764 568 758 555 749 c 2
EndSplineSet
EndChar
StartChar: Lcommaaccent
Encoding: 315 315
Width: 600
Flags: MW
HStem: 0 41<99 195 236 508> 522 41<209 297 338 434 338 338>
VStem: 178 288<539.5 546.5>
Fore
338 522 m 1
 236 41 l 1
 508 41 l 1
 542 201 l 2
 546 219 555 228 568 228 c 0
 578 228 585 222 585 214 c 0
 585 211 584 206 583 201 c 2
 541 0 l 1
 90 0 l 2
 74 0 67 5 67 16 c 0
 67 32 79 41 99 41 c 2
 195 41 l 1
 297 522 l 1
 201 522 l 2
 184 522 178 527 178 539 c 0
 178 554 190 563 209 563 c 2
 443 563 l 2
 460 563 466 559 466 547 c 0
 466 532 454 522 434 522 c 2
 338 522 l 1
310 -97 m 1
 200 -223 l 2
 192 -232 183 -237 175 -237 c 0
 167 -237 159 -229 159 -222 c 0
 159 -216 163 -209 170 -200 c 2
 281 -74 l 2
 290 -64 297 -60 306 -60 c 0
 314 -60 322 -67 322 -75 c 0
 322 -81 319 -88 310 -97 c 1
EndSplineSet
EndChar
StartChar: lcommaaccent
Encoding: 316 316
Width: 600
Flags: MW
HStem: 0 41<127 288 329 481> 563 41<291 399>
VStem: 96 416
Fore
449 604 m 1
 329 41 l 1
 489 41 l 2
 506 41 513 36 513 25 c 0
 513 10 500 0 481 0 c 2
 119 0 l 2
 103 0 96 5 96 16 c 0
 96 32 108 41 127 41 c 2
 288 41 l 1
 399 563 l 1
 282 563 l 2
 265 563 259 567 259 579 c 0
 259 595 271 604 291 604 c 2
 449 604 l 1
310 -97 m 1
 200 -223 l 2
 192 -232 183 -237 175 -237 c 0
 167 -237 159 -229 159 -222 c 0
 159 -216 163 -209 170 -200 c 2
 281 -74 l 2
 290 -64 297 -60 306 -60 c 0
 314 -60 322 -67 322 -75 c 0
 322 -81 319 -88 310 -97 c 1
EndSplineSet
EndChar
StartChar: Lcaron
Encoding: 317 317
Width: 600
Flags: MW
HStem: 0 41<99 195 236 508> 522 41<209 297 338 434 338 338>
VStem: 178 288<539.5 546.5>
Fore
338 522 m 1
 236 41 l 1
 508 41 l 1
 542 201 l 2
 546 219 555 228 568 228 c 0
 578 228 585 222 585 214 c 0
 585 211 584 206 583 201 c 2
 541 0 l 1
 90 0 l 2
 74 0 67 5 67 16 c 0
 67 32 79 41 99 41 c 2
 195 41 l 1
 297 522 l 1
 201 522 l 2
 184 522 178 527 178 539 c 0
 178 554 190 563 209 563 c 2
 443 563 l 2
 460 563 466 559 466 547 c 0
 466 532 454 522 434 522 c 2
 338 522 l 1
626 539 m 1
 516 413 l 2
 508 404 499 399 491 399 c 0
 483 399 475 407 475 414 c 0
 475 420 479 427 486 436 c 2
 597 562 l 2
 606 572 613 576 622 576 c 0
 630 576 638 569 638 561 c 0
 638 555 635 548 626 539 c 1
EndSplineSet
EndChar
StartChar: lcaron
Encoding: 318 318
Width: 600
Flags: MW
HStem: 0 41<127 288 329 481> 563 41<291 399>
VStem: 96 417<17.5 24>
Fore
449 604 m 1
 329 41 l 1
 489 41 l 2
 506 41 513 36 513 25 c 0
 513 10 500 0 481 0 c 2
 119 0 l 2
 103 0 96 5 96 16 c 0
 96 32 108 41 127 41 c 2
 288 41 l 1
 399 563 l 1
 282 563 l 2
 265 563 259 567 259 579 c 0
 259 595 271 604 291 604 c 2
 449 604 l 1
581 580 m 2
 471 455 l 2
 463 445 454 440 446 440 c 0
 438 440 430 448 430 455 c 0
 430 461 434 469 441 477 c 2
 552 603 l 2
 561 614 568 618 577 618 c 0
 585 618 593 611 593 603 c 0
 593 596 590 590 581 580 c 2
EndSplineSet
EndChar
StartChar: Lslash
Encoding: 321 321
Width: 600
Flags: MW
HStem: 0 41<98 194 235 509> 522 41<209 296 337 434 337 337>
VStem: 177 287
Fore
337 522 m 1
 292 310 l 1
 443 390 l 2
 448 392 458 395 462 395 c 0
 471 395 478 388 478 379 c 0
 478 370 472 363 461 357 c 2
 456 355 l 1
 282 263 l 1
 235 41 l 1
 509 41 l 1
 543 202 l 2
 547 220 556 229 570 229 c 0
 579 229 586 222 586 214 c 0
 586 212 585 206 584 202 c 2
 541 0 l 1
 89 0 l 2
 73 0 66 5 66 16 c 0
 66 32 78 41 98 41 c 2
 194 41 l 1
 238 246 l 1
 118 184 l 2
 111 181 104 178 100 178 c 0
 92 178 85 186 85 195 c 0
 85 205 90 212 105 219 c 2
 248 293 l 1
 296 522 l 1
 200 522 l 2
 184 522 177 527 177 538 c 0
 177 554 189 563 209 563 c 2
 442 563 l 2
 459 563 465 559 465 547 c 0
 465 532 453 522 434 522 c 2
 337 522 l 1
EndSplineSet
EndChar
StartChar: lslash
Encoding: 322 322
Width: 600
Flags: MW
HStem: 0 41<128 287 328 481> 563 41<290 397>
VStem: 96 417<17.5 24>
Fore
447 604 m 1
 392 343 l 1
 490 394 l 2
 499 398 504 400 509 400 c 0
 517 400 524 393 524 384 c 0
 524 373 518 366 503 359 c 2
 382 297 l 1
 328 41 l 1
 490 41 l 2
 507 41 513 37 513 25 c 0
 513 10 500 0 481 0 c 2
 119 0 l 2
 103 0 96 5 96 16 c 0
 96 32 108 41 128 41 c 2
 287 41 l 1
 337 280 l 1
 240 230 l 2
 230 225 227 224 221 224 c 0
 213 224 206 231 206 240 c 0
 206 251 212 258 227 266 c 2
 347 327 l 1
 397 563 l 1
 281 563 l 2
 264 563 258 567 258 580 c 0
 258 595 270 604 290 604 c 2
 447 604 l 1
EndSplineSet
EndChar
StartChar: Nacute
Encoding: 323 323
Width: 600
Flags: MW
HStem: 0 41<78 112 153 219> 522 41<169 214 505 571 612 612 612 646>
VStem: 46 205<17.5 24.5> 473 204
Fore
501 0 m 1
 449 0 l 1
 251 504 l 1
 153 41 l 1
 227 41 l 2
 244 41 251 37 251 25 c 0
 251 10 238 0 219 0 c 2
 69 0 l 2
 53 0 46 5 46 17 c 0
 46 32 58 41 78 41 c 2
 112 41 l 1
 214 522 l 1
 160 522 l 2
 143 522 137 527 137 539 c 0
 137 554 149 563 169 563 c 2
 275 563 l 1
 473 59 l 1
 571 522 l 1
 497 522 l 2
 480 522 473 527 473 538 c 0
 473 554 485 563 505 563 c 2
 655 563 l 2
 672 563 678 559 678 547 c 0
 678 532 666 522 646 522 c 2
 612 522 l 1
 501 0 l 1
555 749 m 2
 421 649 l 2
 415 644 405 640 401 640 c 0
 390 640 383 647 383 657 c 0
 383 664 388 671 400 680 c 2
 535 780 l 2
 544 787 549 789 556 789 c 0
 565 789 572 781 572 772 c 0
 572 765 567 758 555 749 c 2
EndSplineSet
EndChar
StartChar: nacute
Encoding: 324 324
Width: 600
Flags: W
HStem: 0 41<89 135 176 212 414 448 489 514> 376 41<181 206> 390 41<383.5 421.5>
VStem: 57 186 382 164<17.5 24> 502 43<314 318.5>
Fore
256 417 m 1
 241 348 l 1
 313 412 353 431 414 431 c 0
 493 431 545 387 545 319 c 0
 545 309 544 303 543 295 c 1
 489 41 l 1
 523 41 l 2
 540 41 546 37 546 25 c 0
 546 10 533 0 514 0 c 2
 405 0 l 2
 389 0 382 5 382 16 c 0
 382 32 394 41 414 41 c 2
 448 41 l 1
 500 288 l 1
 502 295 502 298 502 308 c 0
 502 329 493 349 478 364 c 0
 458 384 440 390 403 390 c 0
 339 390 309 373 230 294 c 1
 176 41 l 1
 221 41 l 2
 238 41 244 37 244 25 c 0
 244 10 232 0 212 0 c 2
 81 0 l 2
 64 0 57 5 57 16 c 0
 57 32 69 41 89 41 c 2
 135 41 l 1
 206 376 l 1
 172 376 l 2
 156 376 149 381 149 392 c 0
 149 408 161 417 181 417 c 2
 256 417 l 1
560 599 m 2
 425 499 l 2
 416 493 410 490 405 490 c 0
 395 490 388 497 388 506 c 0
 388 515 392 520 405 530 c 2
 540 630 l 2
 550 637 555 639 561 639 c 0
 570 639 577 632 577 623 c 0
 577 614 573 608 560 599 c 2
EndSplineSet
EndChar
StartChar: Ncommaaccent
Encoding: 325 325
Width: 600
Flags: MW
HStem: 0 41<78 112 153 219> 522 41<169 214 505 571 612 612 612 646>
VStem: 46 205<17.5 24.5> 473 204
Fore
501 0 m 1
 449 0 l 1
 251 504 l 1
 153 41 l 1
 227 41 l 2
 244 41 251 37 251 25 c 0
 251 10 238 0 219 0 c 2
 69 0 l 2
 53 0 46 5 46 17 c 0
 46 32 58 41 78 41 c 2
 112 41 l 1
 214 522 l 1
 160 522 l 2
 143 522 137 527 137 539 c 0
 137 554 149 563 169 563 c 2
 275 563 l 1
 473 59 l 1
 571 522 l 1
 497 522 l 2
 480 522 473 527 473 538 c 0
 473 554 485 563 505 563 c 2
 655 563 l 2
 672 563 678 559 678 547 c 0
 678 532 666 522 646 522 c 2
 612 522 l 1
 501 0 l 1
310 -97 m 1
 200 -223 l 2
 192 -232 183 -237 175 -237 c 0
 167 -237 159 -229 159 -222 c 0
 159 -216 163 -209 170 -200 c 2
 281 -74 l 2
 290 -64 297 -60 306 -60 c 0
 314 -60 322 -67 322 -75 c 0
 322 -81 319 -88 310 -97 c 1
EndSplineSet
EndChar
StartChar: ncommaaccent
Encoding: 326 326
Width: 600
Flags: W
HStem: 0 41<89 135 176 212 414 448 489 514> 376 41<181 206> 390 41<383.5 421.5>
VStem: 57 186 502 43<314 318.5>
Fore
256 417 m 1
 241 348 l 1
 313 412 353 431 414 431 c 0
 493 431 545 387 545 319 c 0
 545 309 544 303 543 295 c 1
 489 41 l 1
 523 41 l 2
 540 41 546 37 546 25 c 0
 546 10 533 0 514 0 c 2
 405 0 l 2
 389 0 382 5 382 16 c 0
 382 32 394 41 414 41 c 2
 448 41 l 1
 500 288 l 1
 502 295 502 298 502 308 c 0
 502 329 493 349 478 364 c 0
 458 384 440 390 403 390 c 0
 339 390 309 373 230 294 c 1
 176 41 l 1
 221 41 l 2
 238 41 244 37 244 25 c 0
 244 10 232 0 212 0 c 2
 81 0 l 2
 64 0 57 5 57 16 c 0
 57 32 69 41 89 41 c 2
 135 41 l 1
 206 376 l 1
 172 376 l 2
 156 376 149 381 149 392 c 0
 149 408 161 417 181 417 c 2
 256 417 l 1
310 -97 m 1
 200 -223 l 2
 192 -232 183 -237 175 -237 c 0
 167 -237 159 -229 159 -222 c 0
 159 -216 163 -209 170 -200 c 2
 281 -74 l 2
 290 -64 297 -60 306 -60 c 0
 314 -60 322 -67 322 -75 c 0
 322 -81 319 -88 310 -97 c 1
EndSplineSet
EndChar
StartChar: Ncaron
Encoding: 327 327
Width: 600
Flags: MW
HStem: 0 41<78 112 153 219> 522 41<169 214 505 571 612 612 612 646>
VStem: 46 205<17.5 24.5> 473 204
Fore
501 0 m 1
 449 0 l 1
 251 504 l 1
 153 41 l 1
 227 41 l 2
 244 41 251 37 251 25 c 0
 251 10 238 0 219 0 c 2
 69 0 l 2
 53 0 46 5 46 17 c 0
 46 32 58 41 78 41 c 2
 112 41 l 1
 214 522 l 1
 160 522 l 2
 143 522 137 527 137 539 c 0
 137 554 149 563 169 563 c 2
 275 563 l 1
 473 59 l 1
 571 522 l 1
 497 522 l 2
 480 522 473 527 473 538 c 0
 473 554 485 563 505 563 c 2
 655 563 l 2
 672 563 678 559 678 547 c 0
 678 532 666 522 646 522 c 2
 612 522 l 1
 501 0 l 1
438 640 m 1
 328 749 l 1
 320 753 318 757 318 766 c 0
 318 775 331 789 340 789 c 2
 343 789 l 1
 348 789 l 2
 351 789 352 788 359 781 c 2
 448 690 l 1
 573 781 l 2
 576 783 590 789 592 789 c 0
 601 789 608 783 608 774 c 0
 608 763 603 755 594 751 c 2
 590 749 l 1
 438 640 l 1
EndSplineSet
EndChar
StartChar: ncaron
Encoding: 328 328
Width: 600
Flags: W
HStem: 0 41<89 135 176 212 414 448 489 514> 376 41<181 206> 390 41<383.5 421.5>
VStem: 57 186 382 164<17.5 24> 502 43<314 318.5>
Fore
256 417 m 1
 241 348 l 1
 313 412 353 431 414 431 c 0
 493 431 545 387 545 319 c 0
 545 309 544 303 543 295 c 1
 489 41 l 1
 523 41 l 2
 540 41 546 37 546 25 c 0
 546 10 533 0 514 0 c 2
 405 0 l 2
 389 0 382 5 382 16 c 0
 382 32 394 41 414 41 c 2
 448 41 l 1
 500 288 l 1
 502 295 502 298 502 308 c 0
 502 329 493 349 478 364 c 0
 458 384 440 390 403 390 c 0
 339 390 309 373 230 294 c 1
 176 41 l 1
 221 41 l 2
 238 41 244 37 244 25 c 0
 244 10 232 0 212 0 c 2
 81 0 l 2
 64 0 57 5 57 16 c 0
 57 32 69 41 89 41 c 2
 135 41 l 1
 206 376 l 1
 172 376 l 2
 156 376 149 381 149 392 c 0
 149 408 161 417 181 417 c 2
 256 417 l 1
404 490 m 1
 296 599 l 1
 288 605 286 608 286 614 c 0
 286 627 298 639 311 639 c 0
 316 639 321 636 327 631 c 2
 415 543 l 1
 542 631 l 2
 549 636 556 639 561 639 c 0
 570 639 577 632 577 623 c 0
 577 613 573 608 559 598 c 2
 404 490 l 1
EndSplineSet
EndChar
StartChar: Omacron
Encoding: 332 332
Width: 600
Flags: W
HStem: -16 41<256.5 371.5> 535 41<346 461> 683 40<336 563>
VStem: 102 42<161 297> 304 291<699.5 706.5> 574 42<263 400>
Fore
422 576 m 0
 536 576 616 486 616 357 c 0
 616 164 461 -16 296 -16 c 0
 181 -16 102 74 102 207 c 0
 102 396 258 576 422 576 c 0
415 535 m 0
 277 535 144 378 144 216 c 0
 144 106 211 25 302 25 c 0
 441 25 574 181 574 345 c 0
 574 455 507 535 415 535 c 0
563 683 m 2
 327 683 l 2
 311 683 304 688 304 699 c 0
 304 714 316 723 336 723 c 2
 572 723 l 2
 588 723 595 718 595 707 c 0
 595 692 583 683 563 683 c 2
EndSplineSet
EndChar
StartChar: omacron
Encoding: 333 333
Width: 600
Flags: W
HStem: -16 41<260.5 364.5> 390 41<323 427.5> 536 40<305 532>
VStem: 111 42<128 227.5> 273 291<552.5 559.5> 535 42<187 287.5>
Fore
391 431 m 0
 501 431 577 358 577 252 c 0
 577 113 441 -16 296 -16 c 0
 187 -16 111 58 111 162 c 0
 111 301 247 431 391 431 c 0
382 390 m 0
 264 390 153 284 153 171 c 0
 153 85 216 25 305 25 c 0
 424 25 535 130 535 244 c 0
 535 331 473 390 382 390 c 0
532 536 m 2
 296 536 l 2
 280 536 273 541 273 552 c 0
 273 567 285 576 305 576 c 2
 541 576 l 2
 557 576 564 571 564 560 c 0
 564 545 552 536 532 536 c 2
EndSplineSet
EndChar
StartChar: Ohungarumlaut
Encoding: 336 336
Width: 600
Flags: MW
HStem: -16 41<256.5 371.5> 535 41<346 461>
VStem: 102 42<161 297> 574 42<263 400>
Fore
422 576 m 0
 536 576 616 486 616 357 c 0
 616 164 461 -16 296 -16 c 0
 181 -16 102 74 102 207 c 0
 102 396 258 576 422 576 c 0
415 535 m 0
 277 535 144 378 144 216 c 0
 144 106 211 25 302 25 c 0
 441 25 574 181 574 345 c 0
 574 455 507 535 415 535 c 0
514 747 m 2
 396 649 l 2
 391 645 380 640 376 640 c 0
 365 640 358 647 358 657 c 0
 358 664 363 671 375 680 c 2
 493 778 l 1
 503 784 510 787 512 787 c 0
 523 787 530 780 530 770 c 0
 530 763 524 755 514 747 c 2
656 747 m 2
 538 649 l 2
 534 645 522 640 518 640 c 0
 506 640 501 646 501 658 c 0
 501 664 506 671 513 677 c 2
 517 680 l 1
 636 778 l 2
 644 784 650 787 655 787 c 0
 665 787 672 780 672 770 c 0
 672 764 666 755 656 747 c 2
EndSplineSet
EndChar
StartChar: ohungarumlaut
Encoding: 337 337
Width: 600
Flags: MW
HStem: -16 41<260.5 364.5> 390 41<323 427.5>
VStem: 111 42<128 227.5> 535 42<187 287.5>
Fore
391 431 m 0
 501 431 577 358 577 252 c 0
 577 113 441 -16 296 -16 c 0
 187 -16 111 58 111 162 c 0
 111 301 247 431 391 431 c 0
382 390 m 0
 264 390 153 284 153 171 c 0
 153 85 216 25 305 25 c 0
 424 25 535 130 535 244 c 0
 535 331 473 390 382 390 c 0
457 593 m 2
 340 499 l 2
 332 493 325 490 319 490 c 0
 310 490 303 497 303 506 c 0
 303 515 306 519 320 530 c 2
 437 624 l 2
 445 630 452 633 458 633 c 0
 467 633 474 626 474 617 c 0
 474 608 471 604 457 593 c 2
599 593 m 2
 481 499 l 2
 473 493 466 490 460 490 c 0
 451 490 444 497 444 506 c 0
 444 514 448 521 457 527 c 2
 461 530 l 1
 579 624 l 2
 587 630 594 633 600 633 c 0
 609 633 616 626 616 617 c 0
 616 608 613 604 599 593 c 2
EndSplineSet
EndChar
StartChar: OE
Encoding: 338 338
Width: 600
Flags: MW
HStem: 0 41<274 306 347 558> 272 41<405 474> 522 41<376 408 449 640 449 449>
VStem: 62 42<181 244.5>
Fore
396 272 m 1
 347 41 l 1
 558 41 l 1
 578 133 l 1
 581 152 589 160 604 160 c 0
 613 160 620 153 620 144 c 1
 619 133 l 1
 590 0 l 1
 264 0 l 2
 202 0 153 17 120 49 c 0
 84 84 62 142 62 203 c 0
 62 400 204 563 376 563 c 2
 690 563 l 1
 657 409 l 2
 653 391 645 382 631 382 c 0
 622 382 615 389 615 397 c 1
 616 409 l 1
 640 522 l 1
 449 522 l 1
 405 313 l 1
 483 313 l 1
 489 340 l 2
 493 358 501 367 515 367 c 0
 525 367 532 360 532 352 c 0
 532 350 532 347 531 345 c 1
 530 340 l 1
 509 244 l 2
 505 226 497 217 483 217 c 0
 474 217 467 224 467 232 c 1
 468 244 l 1
 474 272 l 1
 396 272 l 1
408 522 m 1
 376 522 l 2
 286 522 217 485 164 408 c 0
 126 353 104 279 104 210 c 0
 104 152 125 101 161 72 c 0
 187 52 226 41 274 41 c 2
 306 41 l 1
 408 522 l 1
EndSplineSet
EndChar
StartChar: oe
Encoding: 339 339
Width: 600
Flags: MW
HStem: -16 41<148 190 424 457> 199 41<371 586> 390 41<506.5 536.5>
VStem: 50 41<115.5 175.5> 589 41<280.5 318.5>
Fore
619 199 m 1
 362 199 l 1
 360 183 359 171 359 163 c 0
 359 81 397 25 451 25 c 0
 480 25 505 38 562 82 c 0
 566 85 572 87 576 87 c 0
 585 87 592 80 592 70 c 0
 592 61 586 54 564 38 c 0
 516 2 474 -16 440 -16 c 0
 381 -16 335 29 321 103 c 1
 275 27 218 -16 162 -16 c 0
 97 -16 50 52 50 145 c 0
 50 287 154 431 258 431 c 0
 311 431 354 386 367 317 c 1
 393 360 406 376 429 394 c 0
 460 418 492 431 521 431 c 0
 552 431 581 418 600 397 c 0
 621 375 630 342 630 295 c 0
 630 262 627 240 619 199 c 1
371 240 m 1
 586 240 l 1
 588 262 589 274 589 287 c 0
 589 354 562 390 512 390 c 0
 452 390 405 340 371 240 c 1
249 390 m 0
 215 392 165 354 134 302 c 0
 107 257 91 201 91 150 c 0
 91 81 126 25 170 25 c 0
 248 25 330 149 330 267 c 0
 330 336 297 387 249 390 c 0
EndSplineSet
EndChar
StartChar: Racute
Encoding: 340 340
Width: 600
Flags: MW
HStem: 0 41<79 133 174 240 540 562> 251 41<227 341 341 351> 522 41<189 235 276 276 276 429>
VStem: 47 225<17.5 24.5> 545 42<395.5 452>
Fore
218 251 m 1
 174 41 l 1
 248 41 l 2
 265 41 272 37 272 25 c 0
 272 10 259 0 240 0 c 2
 70 0 l 2
 54 0 47 5 47 17 c 0
 47 32 59 41 79 41 c 2
 133 41 l 1
 235 522 l 1
 181 522 l 2
 164 522 158 527 158 539 c 0
 158 554 170 563 189 563 c 2
 438 563 l 2
 522 563 587 507 587 434 c 0
 587 357 528 299 414 262 c 1
 468 218 489 183 540 41 c 1
 570 41 l 2
 587 41 594 36 594 25 c 0
 594 10 581 0 562 0 c 2
 505 0 l 1
 452 162 419 216 351 251 c 1
 218 251 l 1
227 292 m 1
 341 292 l 2
 448 292 545 355 545 425 c 0
 545 479 493 522 429 522 c 2
 276 522 l 1
 227 292 l 1
555 749 m 2
 421 649 l 2
 415 644 405 640 401 640 c 0
 390 640 383 647 383 657 c 0
 383 664 388 671 400 680 c 2
 535 780 l 2
 544 787 549 789 556 789 c 0
 565 789 572 781 572 772 c 0
 572 765 567 758 555 749 c 2
EndSplineSet
EndChar
StartChar: racute
Encoding: 341 341
Width: 600
Flags: W
HStem: 0 41<120 216 257 427> 376 41<221 287> 386 41<506 531>
VStem: 88 371<17 24>
Fore
337 417 m 1
 315 315 l 1
 427 400 480 427 532 427 c 0
 558 427 575 420 595 403 c 0
 610 389 619 377 619 369 c 0
 619 357 606 344 592 344 c 0
 586 344 584 345 578 352 c 0
 559 376 542 386 520 386 c 0
 475 386 435 363 304 262 c 1
 257 41 l 1
 436 41 l 2
 451 41 459 36 459 24 c 0
 459 10 446 0 427 0 c 2
 111 0 l 2
 96 0 88 5 88 17 c 0
 88 31 101 41 120 41 c 2
 216 41 l 1
 287 376 l 1
 213 376 l 2
 197 376 190 381 190 393 c 0
 190 407 203 417 221 417 c 2
 337 417 l 1
560 599 m 2
 425 499 l 2
 416 493 410 490 405 490 c 0
 395 490 388 497 388 506 c 0
 388 515 392 520 405 530 c 2
 540 630 l 2
 550 637 555 639 561 639 c 0
 570 639 577 632 577 623 c 0
 577 614 573 608 560 599 c 2
EndSplineSet
EndChar
StartChar: Rcommaaccent
Encoding: 342 342
Width: 600
Flags: MW
HStem: 0 41<79 133 174 240 540 562> 251 41<227 341 341 351> 522 41<189 235 276 276 276 429>
VStem: 47 225<17.5 24.5> 545 42<395.5 452>
Fore
218 251 m 1
 174 41 l 1
 248 41 l 2
 265 41 272 37 272 25 c 0
 272 10 259 0 240 0 c 2
 70 0 l 2
 54 0 47 5 47 17 c 0
 47 32 59 41 79 41 c 2
 133 41 l 1
 235 522 l 1
 181 522 l 2
 164 522 158 527 158 539 c 0
 158 554 170 563 189 563 c 2
 438 563 l 2
 522 563 587 507 587 434 c 0
 587 357 528 299 414 262 c 1
 468 218 489 183 540 41 c 1
 570 41 l 2
 587 41 594 36 594 25 c 0
 594 10 581 0 562 0 c 2
 505 0 l 1
 452 162 419 216 351 251 c 1
 218 251 l 1
227 292 m 1
 341 292 l 2
 448 292 545 355 545 425 c 0
 545 479 493 522 429 522 c 2
 276 522 l 1
 227 292 l 1
310 -97 m 1
 200 -223 l 2
 192 -232 183 -237 175 -237 c 0
 167 -237 159 -229 159 -222 c 0
 159 -216 163 -209 170 -200 c 2
 281 -74 l 2
 290 -64 297 -60 306 -60 c 0
 314 -60 322 -67 322 -75 c 0
 322 -81 319 -88 310 -97 c 1
EndSplineSet
EndChar
StartChar: rcommaaccent
Encoding: 343 343
Width: 600
Flags: W
HStem: 0 41<120 216 257 427> 376 41<221 287> 386 41<506 531>
VStem: 88 371<17 24>
Fore
337 417 m 1
 315 315 l 1
 427 400 480 427 532 427 c 0
 558 427 575 420 595 403 c 0
 610 389 619 377 619 369 c 0
 619 357 606 344 592 344 c 0
 586 344 584 345 578 352 c 0
 559 376 542 386 520 386 c 0
 475 386 435 363 304 262 c 1
 257 41 l 1
 436 41 l 2
 451 41 459 36 459 24 c 0
 459 10 446 0 427 0 c 2
 111 0 l 2
 96 0 88 5 88 17 c 0
 88 31 101 41 120 41 c 2
 216 41 l 1
 287 376 l 1
 213 376 l 2
 197 376 190 381 190 393 c 0
 190 407 203 417 221 417 c 2
 337 417 l 1
250 -97 m 1
 140 -223 l 2
 132 -232 123 -237 115 -237 c 0
 107 -237 99 -229 99 -222 c 0
 99 -216 103 -209 110 -200 c 2
 221 -74 l 2
 230 -64 237 -60 246 -60 c 0
 254 -60 262 -67 262 -75 c 0
 262 -81 259 -88 250 -97 c 1
EndSplineSet
EndChar
StartChar: Rcaron
Encoding: 344 344
Width: 600
Flags: MW
HStem: 0 41<79 133 174 240 540 562> 251 41<227 341 341 351> 522 41<189 235 276 276 276 429>
VStem: 47 225<17.5 24.5> 545 42<395.5 452>
Fore
218 251 m 1
 174 41 l 1
 248 41 l 2
 265 41 272 37 272 25 c 0
 272 10 259 0 240 0 c 2
 70 0 l 2
 54 0 47 5 47 17 c 0
 47 32 59 41 79 41 c 2
 133 41 l 1
 235 522 l 1
 181 522 l 2
 164 522 158 527 158 539 c 0
 158 554 170 563 189 563 c 2
 438 563 l 2
 522 563 587 507 587 434 c 0
 587 357 528 299 414 262 c 1
 468 218 489 183 540 41 c 1
 570 41 l 2
 587 41 594 36 594 25 c 0
 594 10 581 0 562 0 c 2
 505 0 l 1
 452 162 419 216 351 251 c 1
 218 251 l 1
227 292 m 1
 341 292 l 2
 448 292 545 355 545 425 c 0
 545 479 493 522 429 522 c 2
 276 522 l 1
 227 292 l 1
398 640 m 1
 288 749 l 1
 280 753 278 757 278 766 c 0
 278 775 291 789 300 789 c 2
 303 789 l 1
 308 789 l 2
 311 789 312 788 319 781 c 2
 408 690 l 1
 533 781 l 2
 536 783 550 789 552 789 c 0
 561 789 568 783 568 774 c 0
 568 763 563 755 554 751 c 2
 550 749 l 1
 398 640 l 1
EndSplineSet
EndChar
StartChar: rcaron
Encoding: 345 345
Width: 600
Flags: W
HStem: 0 41<120 216 257 427> 376 41<221 287> 386 41<506 531>
VStem: 88 371<17 24>
Fore
337 417 m 1
 315 315 l 1
 427 400 480 427 532 427 c 0
 558 427 575 420 595 403 c 0
 610 389 619 377 619 369 c 0
 619 357 606 344 592 344 c 0
 586 344 584 345 578 352 c 0
 559 376 542 386 520 386 c 0
 475 386 435 363 304 262 c 1
 257 41 l 1
 436 41 l 2
 451 41 459 36 459 24 c 0
 459 10 446 0 427 0 c 2
 111 0 l 2
 96 0 88 5 88 17 c 0
 88 31 101 41 120 41 c 2
 216 41 l 1
 287 376 l 1
 213 376 l 2
 197 376 190 381 190 393 c 0
 190 407 203 417 221 417 c 2
 337 417 l 1
404 490 m 1
 296 599 l 1
 288 605 286 608 286 614 c 0
 286 627 298 639 311 639 c 0
 316 639 321 636 327 631 c 2
 415 543 l 1
 542 631 l 2
 549 636 556 639 561 639 c 0
 570 639 577 632 577 623 c 0
 577 613 573 608 559 598 c 2
 404 490 l 1
EndSplineSet
EndChar
StartChar: Sacute
Encoding: 346 346
Width: 600
Flags: MW
HStem: -17 41<287.5 332.5> 536 41<371 433.5>
VStem: 201 45<389 435> 500 45<161 188>
Fore
555 517 m 1
 559 536 l 2
 563 554 572 563 586 563 c 0
 595 563 602 556 602 548 c 0
 602 545 602 543 600 536 c 1
 578 433 l 1
 575 416 565 405 553 405 c 0
 547 405 542 408 536 417 c 1
 539 459 l 1
 539 464 517 497 508 506 c 0
 491 523 451 536 416 536 c 0
 326 536 246 471 246 399 c 0
 246 379 257 356 272 344 c 0
 292 328 317 319 378 309 c 0
 453 296 480 287 505 269 c 0
 528 252 545 217 545 185 c 0
 545 137 520 84 482 50 c 0
 437 10 364 -17 301 -17 c 0
 231 -17 176 9 145 56 c 1
 139 27 l 2
 135 9 126 0 112 0 c 0
 103 0 96 7 96 15 c 0
 96 17 97 23 98 27 c 2
 121 139 l 1
 125 157 135 167 148 167 c 0
 154 167 159 163 164 155 c 1
 160 109 l 1
 160 103 188 65 201 55 c 0
 222 37 268 24 307 24 c 0
 410 24 500 95 500 177 c 0
 500 199 487 224 470 237 c 0
 450 253 430 259 361 271 c 0
 293 283 259 295 234 317 c 0
 214 334 201 364 201 392 c 0
 201 489 305 577 420 577 c 0
 479 577 523 558 555 517 c 1
555 749 m 2
 421 649 l 2
 415 644 405 640 401 640 c 0
 390 640 383 647 383 657 c 0
 383 664 388 671 400 680 c 2
 535 780 l 2
 544 787 549 789 556 789 c 0
 565 789 572 781 572 772 c 0
 572 765 567 758 555 749 c 2
EndSplineSet
EndChar
